G04 (created by PCBNEW (2013-06-11 BZR 4021)-stable) date Tue 16 Jul 2013 06:26:29 PM CDT*
%MOIN*%
G04 Gerber Fmt 3.4, Leading zero omitted, Abs format*
%FSLAX34Y34*%
G01*
G70*
G90*
G04 APERTURE LIST*
%ADD10C,0.00590551*%
%ADD11C,0.16*%
%ADD12R,0.0276X0.0394*%
%ADD13R,0.08X0.144*%
%ADD14R,0.08X0.04*%
%ADD15R,0.035X0.055*%
%ADD16R,0.055X0.035*%
%ADD17R,0.0709X0.0629*%
%ADD18R,0.0629X0.0709*%
%ADD19C,0.0472*%
%ADD20C,0.07*%
%ADD21C,0.055*%
%ADD22C,0.254*%
%ADD23R,0.035X0.0236*%
%ADD24R,0.12X0.065*%
%ADD25R,0.326772X0.295276*%
%ADD26R,0.0885827X0.0590551*%
%ADD27C,0.04*%
%ADD28C,0.008*%
%ADD29C,0.01*%
G04 APERTURE END LIST*
G54D10*
G54D11*
X13000Y-37500D03*
X13000Y-27000D03*
X71500Y-27000D03*
X71500Y-37750D03*
G54D12*
X27698Y-33650D03*
X27323Y-33650D03*
X26948Y-33650D03*
X26948Y-32650D03*
X27323Y-32650D03*
X27698Y-32650D03*
G54D13*
X25440Y-32760D03*
G54D14*
X22840Y-32760D03*
X22840Y-33660D03*
X22840Y-31860D03*
G54D15*
X64125Y-27000D03*
X64875Y-27000D03*
X21875Y-35500D03*
X21125Y-35500D03*
G54D16*
X30157Y-35099D03*
X30157Y-34349D03*
X31024Y-35099D03*
X31024Y-34349D03*
X28425Y-35099D03*
X28425Y-34349D03*
G54D15*
X23721Y-29567D03*
X22971Y-29567D03*
X26948Y-31811D03*
X27698Y-31811D03*
X22029Y-29567D03*
X21279Y-29567D03*
G54D16*
X32835Y-34349D03*
X32835Y-35099D03*
X27717Y-30926D03*
X27717Y-30176D03*
G54D15*
X31908Y-28110D03*
X32658Y-28110D03*
G54D16*
X31890Y-35099D03*
X31890Y-34349D03*
X21810Y-31645D03*
X21810Y-32395D03*
X21800Y-34055D03*
X21800Y-33305D03*
G54D17*
X31890Y-33000D03*
X31890Y-31882D03*
G54D18*
X65941Y-27000D03*
X67059Y-27000D03*
G54D19*
X36287Y-32894D03*
X35500Y-32894D03*
X34713Y-32894D03*
X36287Y-32106D03*
X35500Y-32106D03*
X34713Y-32106D03*
G54D20*
X37390Y-32500D03*
X33610Y-32500D03*
G54D21*
X21750Y-28169D03*
X24900Y-28169D03*
X26474Y-28169D03*
X25687Y-28169D03*
X23325Y-28169D03*
X24112Y-28169D03*
X22537Y-28169D03*
X28049Y-28169D03*
X28837Y-28169D03*
X27262Y-28169D03*
X27262Y-36831D03*
X28837Y-36831D03*
X28049Y-36831D03*
X22537Y-36831D03*
X24112Y-36831D03*
X23325Y-36831D03*
X25687Y-36831D03*
X26474Y-36831D03*
X24900Y-36831D03*
X21750Y-36831D03*
G54D20*
X42599Y-28920D03*
X43425Y-28920D03*
X47618Y-28920D03*
X48444Y-28920D03*
X52638Y-28920D03*
X53464Y-28920D03*
X62579Y-28920D03*
X63405Y-28920D03*
X67697Y-28920D03*
X68523Y-28920D03*
X57559Y-28920D03*
X58385Y-28920D03*
G54D12*
X28916Y-31941D03*
X29291Y-31941D03*
X29666Y-31941D03*
X29666Y-32941D03*
X29291Y-32941D03*
X28916Y-32941D03*
G54D22*
X68000Y-33700D03*
X68167Y-36500D03*
X15500Y-30700D03*
X15667Y-33500D03*
X63000Y-33700D03*
X63167Y-36500D03*
X53000Y-33700D03*
X53167Y-36500D03*
X48000Y-33700D03*
X48167Y-36500D03*
X43000Y-33700D03*
X43167Y-36500D03*
X58000Y-33700D03*
X58167Y-36500D03*
G54D16*
X29291Y-34351D03*
X29291Y-33601D03*
G54D23*
X26457Y-29429D03*
G54D15*
X25688Y-29272D03*
G54D23*
X26457Y-29115D03*
G54D24*
X34411Y-34990D03*
G54D25*
X38544Y-35990D03*
G54D24*
X34411Y-36990D03*
G54D26*
X39735Y-34218D03*
X39735Y-37761D03*
G54D24*
X34411Y-28050D03*
G54D25*
X38544Y-29050D03*
G54D24*
X34411Y-30050D03*
G54D26*
X39735Y-27278D03*
X39735Y-30821D03*
G54D27*
X63250Y-27000D03*
X28740Y-33819D03*
X33010Y-29020D03*
X33010Y-29500D03*
X33010Y-30030D03*
X33010Y-30500D03*
X33500Y-29000D03*
X33500Y-30500D03*
X33500Y-29500D03*
X34000Y-29000D03*
X34000Y-30750D03*
X33500Y-30000D03*
X34500Y-29000D03*
X34500Y-30750D03*
X19000Y-36250D03*
X34500Y-36000D03*
X32500Y-36000D03*
X19500Y-28750D03*
X19000Y-35750D03*
X20000Y-37250D03*
X32500Y-37000D03*
X19000Y-28750D03*
X19000Y-29250D03*
X19500Y-36250D03*
X21000Y-37250D03*
X20000Y-36250D03*
X33500Y-36000D03*
X33500Y-36500D03*
X19500Y-28250D03*
X33000Y-36000D03*
X19500Y-27750D03*
X33500Y-37000D03*
X19000Y-29750D03*
X20000Y-36750D03*
X19000Y-35250D03*
X20500Y-28250D03*
X20000Y-28750D03*
X19000Y-27750D03*
X32500Y-36500D03*
X20000Y-28250D03*
X33000Y-37000D03*
X19500Y-35750D03*
X20500Y-36750D03*
X19500Y-36750D03*
X19500Y-29250D03*
X33000Y-36500D03*
X21000Y-27750D03*
X20500Y-27750D03*
X20500Y-37250D03*
X19000Y-36750D03*
X19500Y-37250D03*
X34000Y-36000D03*
X20000Y-27750D03*
X19000Y-28250D03*
X19000Y-37250D03*
X20860Y-32560D03*
X27008Y-28898D03*
X29291Y-32441D03*
G54D28*
X21875Y-35500D02*
X21875Y-34130D01*
X21875Y-34130D02*
X21800Y-34055D01*
X22840Y-33660D02*
X21970Y-33660D01*
X21970Y-33660D02*
X21800Y-33830D01*
X21800Y-33830D02*
X21800Y-34055D01*
X22840Y-33660D02*
X26350Y-33660D01*
X26457Y-33553D02*
X26457Y-32795D01*
X26350Y-33660D02*
X26457Y-33553D01*
X21875Y-36706D02*
X21750Y-36831D01*
X21875Y-35500D02*
X21875Y-36706D01*
X26457Y-30650D02*
X26457Y-29429D01*
X27323Y-33650D02*
X27323Y-33465D01*
X26812Y-33150D02*
X26457Y-32795D01*
X27323Y-33485D02*
X26988Y-33150D01*
X27323Y-33650D02*
X27323Y-33485D01*
X26988Y-33150D02*
X26812Y-33150D01*
X26457Y-32795D02*
X26457Y-30650D01*
X64125Y-27000D02*
X63250Y-27000D01*
X29272Y-34351D02*
X29291Y-34351D01*
X28740Y-33819D02*
X29272Y-34351D01*
X30157Y-35099D02*
X28425Y-35099D01*
X26948Y-33650D02*
X26948Y-34271D01*
X26948Y-34271D02*
X27776Y-35099D01*
X27776Y-35099D02*
X28425Y-35099D01*
X31024Y-35099D02*
X30157Y-35099D01*
X31890Y-35099D02*
X31024Y-35099D01*
X22537Y-28169D02*
X22537Y-29426D01*
X22537Y-29426D02*
X22677Y-29567D01*
X22971Y-29567D02*
X22677Y-29567D01*
X22677Y-29567D02*
X22029Y-29567D01*
X33500Y-30500D02*
X33010Y-30500D01*
X33010Y-30030D02*
X33010Y-29500D01*
X34500Y-29900D02*
X34500Y-29000D01*
X34000Y-29000D02*
X33500Y-29000D01*
X33750Y-30750D02*
X34000Y-30750D01*
X33500Y-30500D02*
X33750Y-30750D01*
X34500Y-30750D02*
X34250Y-31000D01*
X33500Y-29500D02*
X33500Y-30000D01*
X34250Y-31000D02*
X33500Y-31000D01*
X33500Y-36500D02*
X33500Y-37000D01*
X35250Y-31000D02*
X34500Y-31000D01*
X19500Y-36750D02*
X19500Y-37250D01*
X34500Y-36900D02*
X34500Y-36000D01*
X20500Y-37000D02*
X20500Y-36750D01*
X19500Y-28250D02*
X19500Y-27750D01*
X27323Y-32650D02*
X27323Y-32913D01*
X34000Y-36000D02*
X33500Y-36000D01*
X20500Y-37250D02*
X21000Y-37250D01*
X19000Y-35750D02*
X19000Y-35250D01*
X20500Y-27750D02*
X21000Y-27750D01*
X19000Y-29764D02*
X19000Y-29750D01*
X20000Y-36250D02*
X20500Y-36750D01*
X33000Y-37000D02*
X33000Y-36500D01*
X20000Y-28250D02*
X20000Y-28500D01*
X19000Y-28250D02*
X19000Y-28750D01*
X20000Y-28500D02*
X20000Y-28250D01*
X32500Y-36500D02*
X32500Y-37000D01*
X20500Y-36750D02*
X20500Y-37000D01*
X20000Y-28750D02*
X20500Y-28250D01*
X20000Y-37250D02*
X20000Y-36750D01*
X27698Y-33288D02*
X27698Y-33650D01*
X21125Y-35500D02*
X20750Y-35500D01*
X36287Y-32106D02*
X36287Y-32037D01*
X29291Y-31941D02*
X29291Y-31575D01*
X27323Y-32913D02*
X27698Y-33288D01*
X19000Y-36750D02*
X19000Y-36250D01*
X19000Y-29250D02*
X19000Y-29764D01*
X19500Y-35750D02*
X19500Y-36250D01*
X18976Y-29764D02*
X19000Y-29764D01*
X33000Y-36000D02*
X32500Y-36000D01*
X15667Y-33073D02*
X18976Y-29764D01*
X36287Y-32037D02*
X35250Y-31000D01*
X20750Y-35500D02*
X19000Y-37250D01*
X19500Y-29250D02*
X19500Y-28750D01*
X20000Y-27750D02*
X20000Y-28250D01*
X15667Y-33500D02*
X15667Y-33073D01*
X34500Y-28100D02*
X32668Y-28100D01*
X32668Y-28100D02*
X32658Y-28110D01*
X28425Y-34349D02*
X28425Y-33189D01*
X28673Y-32941D02*
X28916Y-32941D01*
X28425Y-33189D02*
X28673Y-32941D01*
X32836Y-35100D02*
X32835Y-35099D01*
X34500Y-35100D02*
X32836Y-35100D01*
X26457Y-28186D02*
X26474Y-28169D01*
X26457Y-29115D02*
X26457Y-28186D01*
X20860Y-32560D02*
X20870Y-32560D01*
X20870Y-32560D02*
X20860Y-32560D01*
X20860Y-32560D02*
X20870Y-32560D01*
X22840Y-31860D02*
X22025Y-31860D01*
X22025Y-31860D02*
X21810Y-31645D01*
X20870Y-32120D02*
X20870Y-32000D01*
X20870Y-32000D02*
X21225Y-31645D01*
X21225Y-31645D02*
X21810Y-31645D01*
X20870Y-32560D02*
X20870Y-32120D01*
X22840Y-31860D02*
X23500Y-31860D01*
X23721Y-31639D02*
X23721Y-29567D01*
X23500Y-31860D02*
X23721Y-31639D01*
X22765Y-31935D02*
X22840Y-31860D01*
X27717Y-30926D02*
X27717Y-31792D01*
X27698Y-31811D02*
X27698Y-32650D01*
X27717Y-31792D02*
X27698Y-31811D01*
X26948Y-32650D02*
X26948Y-31811D01*
X26948Y-28958D02*
X26948Y-31811D01*
X27008Y-28898D02*
X26948Y-28958D01*
X31890Y-34349D02*
X31890Y-33000D01*
X31024Y-34349D02*
X31890Y-34349D01*
X64875Y-27000D02*
X65941Y-27000D01*
X34961Y-31575D02*
X32835Y-31575D01*
X32835Y-31575D02*
X32756Y-31496D01*
X31908Y-28110D02*
X31908Y-30648D01*
X31908Y-30648D02*
X32756Y-31496D01*
X35500Y-32106D02*
X35500Y-32035D01*
X35500Y-32106D02*
X35492Y-32106D01*
X35492Y-32106D02*
X34961Y-31575D01*
X32835Y-34349D02*
X32835Y-31575D01*
X28916Y-31941D02*
X28916Y-32066D01*
X29666Y-31941D02*
X29666Y-32066D01*
X28916Y-32066D02*
X29291Y-32441D01*
X29666Y-32066D02*
X29291Y-32441D01*
X30157Y-34349D02*
X30157Y-33149D01*
X30157Y-33149D02*
X29949Y-32941D01*
X29949Y-32941D02*
X29666Y-32941D01*
X29291Y-32941D02*
X29291Y-33601D01*
G54D10*
G36*
X72700Y-38950D02*
X72430Y-38950D01*
X72430Y-37565D01*
X72430Y-26815D01*
X72288Y-26473D01*
X72027Y-26212D01*
X71685Y-26070D01*
X71315Y-26069D01*
X70973Y-26211D01*
X70712Y-26472D01*
X70570Y-26814D01*
X70569Y-27184D01*
X70711Y-27526D01*
X70972Y-27787D01*
X71314Y-27929D01*
X71684Y-27930D01*
X72026Y-27788D01*
X72287Y-27527D01*
X72429Y-27185D01*
X72430Y-26815D01*
X72430Y-37565D01*
X72288Y-37223D01*
X72027Y-36962D01*
X71685Y-36820D01*
X71315Y-36819D01*
X70973Y-36961D01*
X70712Y-37222D01*
X70570Y-37564D01*
X70569Y-37934D01*
X70711Y-38276D01*
X70972Y-38537D01*
X71314Y-38679D01*
X71684Y-38680D01*
X72026Y-38538D01*
X72287Y-38277D01*
X72429Y-37935D01*
X72430Y-37565D01*
X72430Y-38950D01*
X69589Y-38950D01*
X69589Y-36378D01*
X69527Y-36067D01*
X69418Y-35884D01*
X69400Y-35903D01*
X69400Y-33422D01*
X69187Y-32907D01*
X69003Y-32723D01*
X69003Y-28824D01*
X68930Y-28648D01*
X68795Y-28513D01*
X68618Y-28440D01*
X68427Y-28439D01*
X68251Y-28512D01*
X68116Y-28647D01*
X68045Y-28819D01*
X67944Y-28920D01*
X68045Y-29020D01*
X68115Y-29191D01*
X68250Y-29326D01*
X68427Y-29399D01*
X68618Y-29400D01*
X68794Y-29327D01*
X68929Y-29192D01*
X69002Y-29015D01*
X69003Y-28824D01*
X69003Y-32723D01*
X68794Y-32513D01*
X68279Y-32300D01*
X67871Y-32299D01*
X67871Y-29342D01*
X67871Y-28497D01*
X67824Y-28447D01*
X67633Y-28434D01*
X67569Y-28447D01*
X67522Y-28497D01*
X67697Y-28672D01*
X67871Y-28497D01*
X67871Y-29342D01*
X67697Y-29167D01*
X67522Y-29342D01*
X67569Y-29392D01*
X67760Y-29405D01*
X67824Y-29392D01*
X67871Y-29342D01*
X67871Y-32299D01*
X67722Y-32299D01*
X67503Y-32390D01*
X67503Y-27328D01*
X67503Y-26671D01*
X67503Y-26619D01*
X67483Y-26571D01*
X67447Y-26535D01*
X67399Y-26515D01*
X67248Y-26515D01*
X67216Y-26548D01*
X67216Y-26822D01*
X67471Y-26822D01*
X67503Y-26790D01*
X67503Y-26671D01*
X67503Y-27328D01*
X67503Y-27209D01*
X67471Y-27177D01*
X67216Y-27177D01*
X67216Y-27452D01*
X67248Y-27484D01*
X67399Y-27484D01*
X67447Y-27464D01*
X67483Y-27428D01*
X67503Y-27380D01*
X67503Y-27328D01*
X67503Y-32390D01*
X67449Y-32412D01*
X67449Y-28920D01*
X67274Y-28745D01*
X67224Y-28792D01*
X67211Y-28983D01*
X67224Y-29047D01*
X67274Y-29094D01*
X67449Y-28920D01*
X67449Y-32412D01*
X67207Y-32512D01*
X66901Y-32818D01*
X66901Y-27452D01*
X66901Y-27177D01*
X66901Y-26822D01*
X66901Y-26548D01*
X66869Y-26515D01*
X66718Y-26515D01*
X66670Y-26535D01*
X66634Y-26571D01*
X66614Y-26619D01*
X66614Y-26671D01*
X66614Y-26790D01*
X66647Y-26822D01*
X66901Y-26822D01*
X66901Y-27177D01*
X66647Y-27177D01*
X66614Y-27209D01*
X66614Y-27328D01*
X66614Y-27380D01*
X66634Y-27428D01*
X66670Y-27464D01*
X66718Y-27484D01*
X66869Y-27484D01*
X66901Y-27452D01*
X66901Y-32818D01*
X66813Y-32905D01*
X66600Y-33420D01*
X66599Y-33977D01*
X66812Y-34492D01*
X67205Y-34886D01*
X67720Y-35099D01*
X67934Y-35099D01*
X67734Y-35139D01*
X67551Y-35248D01*
X68167Y-35863D01*
X68782Y-35248D01*
X68599Y-35139D01*
X68246Y-35100D01*
X68277Y-35100D01*
X68792Y-34887D01*
X69186Y-34494D01*
X69399Y-33979D01*
X69400Y-33422D01*
X69400Y-35903D01*
X68803Y-36500D01*
X69418Y-37115D01*
X69527Y-36932D01*
X69589Y-36378D01*
X69589Y-38950D01*
X68782Y-38950D01*
X68782Y-37751D01*
X68167Y-37136D01*
X67551Y-37751D01*
X67734Y-37860D01*
X68288Y-37922D01*
X68599Y-37860D01*
X68782Y-37751D01*
X68782Y-38950D01*
X67530Y-38950D01*
X67530Y-36500D01*
X66915Y-35884D01*
X66806Y-36067D01*
X66744Y-36621D01*
X66806Y-36932D01*
X66915Y-37115D01*
X67530Y-36500D01*
X67530Y-38950D01*
X66385Y-38950D01*
X66385Y-27328D01*
X66385Y-26619D01*
X66365Y-26571D01*
X66329Y-26535D01*
X66281Y-26515D01*
X66229Y-26515D01*
X65600Y-26515D01*
X65552Y-26535D01*
X65516Y-26571D01*
X65496Y-26619D01*
X65496Y-26671D01*
X65496Y-26830D01*
X65180Y-26830D01*
X65180Y-26699D01*
X65160Y-26651D01*
X65123Y-26614D01*
X65075Y-26595D01*
X65024Y-26594D01*
X64674Y-26594D01*
X64626Y-26614D01*
X64589Y-26651D01*
X64570Y-26699D01*
X64569Y-26750D01*
X64569Y-27300D01*
X64589Y-27348D01*
X64626Y-27385D01*
X64674Y-27404D01*
X64725Y-27405D01*
X65075Y-27405D01*
X65123Y-27385D01*
X65160Y-27348D01*
X65179Y-27300D01*
X65180Y-27249D01*
X65180Y-27170D01*
X65496Y-27170D01*
X65496Y-27380D01*
X65516Y-27428D01*
X65552Y-27464D01*
X65600Y-27484D01*
X65652Y-27484D01*
X66281Y-27484D01*
X66329Y-27464D01*
X66365Y-27428D01*
X66385Y-27380D01*
X66385Y-27328D01*
X66385Y-38950D01*
X64589Y-38950D01*
X64589Y-36378D01*
X64527Y-36067D01*
X64430Y-35903D01*
X64430Y-27249D01*
X64430Y-26699D01*
X64410Y-26651D01*
X64373Y-26614D01*
X64325Y-26595D01*
X64274Y-26594D01*
X63924Y-26594D01*
X63876Y-26614D01*
X63839Y-26651D01*
X63820Y-26699D01*
X63819Y-26750D01*
X63819Y-26830D01*
X63536Y-26830D01*
X63529Y-26813D01*
X63437Y-26720D01*
X63315Y-26670D01*
X63184Y-26669D01*
X63063Y-26720D01*
X62970Y-26812D01*
X62920Y-26934D01*
X62919Y-27065D01*
X62970Y-27186D01*
X63062Y-27279D01*
X63184Y-27329D01*
X63315Y-27330D01*
X63436Y-27279D01*
X63529Y-27187D01*
X63536Y-27170D01*
X63819Y-27170D01*
X63819Y-27300D01*
X63839Y-27348D01*
X63876Y-27385D01*
X63924Y-27404D01*
X63975Y-27405D01*
X64325Y-27405D01*
X64373Y-27385D01*
X64410Y-27348D01*
X64429Y-27300D01*
X64430Y-27249D01*
X64430Y-35903D01*
X64418Y-35884D01*
X64400Y-35903D01*
X64400Y-33422D01*
X64187Y-32907D01*
X63885Y-32605D01*
X63885Y-28824D01*
X63812Y-28648D01*
X63677Y-28513D01*
X63500Y-28440D01*
X63309Y-28439D01*
X63133Y-28512D01*
X62998Y-28647D01*
X62927Y-28819D01*
X62826Y-28920D01*
X62927Y-29020D01*
X62997Y-29191D01*
X63132Y-29326D01*
X63309Y-29399D01*
X63500Y-29400D01*
X63676Y-29327D01*
X63811Y-29192D01*
X63884Y-29015D01*
X63885Y-28824D01*
X63885Y-32605D01*
X63794Y-32513D01*
X63279Y-32300D01*
X62753Y-32299D01*
X62753Y-29342D01*
X62753Y-28497D01*
X62706Y-28447D01*
X62515Y-28434D01*
X62451Y-28447D01*
X62404Y-28497D01*
X62579Y-28672D01*
X62753Y-28497D01*
X62753Y-29342D01*
X62579Y-29167D01*
X62404Y-29342D01*
X62451Y-29392D01*
X62642Y-29405D01*
X62706Y-29392D01*
X62753Y-29342D01*
X62753Y-32299D01*
X62722Y-32299D01*
X62331Y-32461D01*
X62331Y-28920D01*
X62156Y-28745D01*
X62106Y-28792D01*
X62093Y-28983D01*
X62106Y-29047D01*
X62156Y-29094D01*
X62331Y-28920D01*
X62331Y-32461D01*
X62207Y-32512D01*
X61813Y-32905D01*
X61600Y-33420D01*
X61599Y-33977D01*
X61812Y-34492D01*
X62205Y-34886D01*
X62720Y-35099D01*
X62934Y-35099D01*
X62734Y-35139D01*
X62551Y-35248D01*
X63167Y-35863D01*
X63782Y-35248D01*
X63599Y-35139D01*
X63246Y-35100D01*
X63277Y-35100D01*
X63792Y-34887D01*
X64186Y-34494D01*
X64399Y-33979D01*
X64400Y-33422D01*
X64400Y-35903D01*
X63803Y-36500D01*
X64418Y-37115D01*
X64527Y-36932D01*
X64589Y-36378D01*
X64589Y-38950D01*
X63782Y-38950D01*
X63782Y-37751D01*
X63167Y-37136D01*
X62551Y-37751D01*
X62734Y-37860D01*
X63288Y-37922D01*
X63599Y-37860D01*
X63782Y-37751D01*
X63782Y-38950D01*
X62530Y-38950D01*
X62530Y-36500D01*
X61915Y-35884D01*
X61806Y-36067D01*
X61744Y-36621D01*
X61806Y-36932D01*
X61915Y-37115D01*
X62530Y-36500D01*
X62530Y-38950D01*
X59589Y-38950D01*
X59589Y-36378D01*
X59527Y-36067D01*
X59418Y-35884D01*
X59400Y-35903D01*
X59400Y-33422D01*
X59187Y-32907D01*
X58865Y-32584D01*
X58865Y-28824D01*
X58792Y-28648D01*
X58657Y-28513D01*
X58480Y-28440D01*
X58289Y-28439D01*
X58113Y-28512D01*
X57978Y-28647D01*
X57907Y-28819D01*
X57806Y-28920D01*
X57907Y-29020D01*
X57977Y-29191D01*
X58112Y-29326D01*
X58289Y-29399D01*
X58480Y-29400D01*
X58656Y-29327D01*
X58791Y-29192D01*
X58864Y-29015D01*
X58865Y-28824D01*
X58865Y-32584D01*
X58794Y-32513D01*
X58279Y-32300D01*
X57733Y-32299D01*
X57733Y-29342D01*
X57733Y-28497D01*
X57686Y-28447D01*
X57495Y-28434D01*
X57431Y-28447D01*
X57384Y-28497D01*
X57559Y-28672D01*
X57733Y-28497D01*
X57733Y-29342D01*
X57559Y-29167D01*
X57384Y-29342D01*
X57431Y-29392D01*
X57622Y-29405D01*
X57686Y-29392D01*
X57733Y-29342D01*
X57733Y-32299D01*
X57722Y-32299D01*
X57311Y-32469D01*
X57311Y-28920D01*
X57136Y-28745D01*
X57086Y-28792D01*
X57073Y-28983D01*
X57086Y-29047D01*
X57136Y-29094D01*
X57311Y-28920D01*
X57311Y-32469D01*
X57207Y-32512D01*
X56813Y-32905D01*
X56600Y-33420D01*
X56599Y-33977D01*
X56812Y-34492D01*
X57205Y-34886D01*
X57720Y-35099D01*
X57934Y-35099D01*
X57734Y-35139D01*
X57551Y-35248D01*
X58167Y-35863D01*
X58782Y-35248D01*
X58599Y-35139D01*
X58246Y-35100D01*
X58277Y-35100D01*
X58792Y-34887D01*
X59186Y-34494D01*
X59399Y-33979D01*
X59400Y-33422D01*
X59400Y-35903D01*
X58803Y-36500D01*
X59418Y-37115D01*
X59527Y-36932D01*
X59589Y-36378D01*
X59589Y-38950D01*
X58782Y-38950D01*
X58782Y-37751D01*
X58167Y-37136D01*
X57551Y-37751D01*
X57734Y-37860D01*
X58288Y-37922D01*
X58599Y-37860D01*
X58782Y-37751D01*
X58782Y-38950D01*
X57530Y-38950D01*
X57530Y-36500D01*
X56915Y-35884D01*
X56806Y-36067D01*
X56744Y-36621D01*
X56806Y-36932D01*
X56915Y-37115D01*
X57530Y-36500D01*
X57530Y-38950D01*
X54589Y-38950D01*
X54589Y-36378D01*
X54527Y-36067D01*
X54418Y-35884D01*
X54400Y-35903D01*
X54400Y-33422D01*
X54187Y-32907D01*
X53944Y-32664D01*
X53944Y-28824D01*
X53871Y-28648D01*
X53736Y-28513D01*
X53559Y-28440D01*
X53368Y-28439D01*
X53192Y-28512D01*
X53057Y-28647D01*
X52986Y-28819D01*
X52885Y-28920D01*
X52986Y-29020D01*
X53056Y-29191D01*
X53191Y-29326D01*
X53368Y-29399D01*
X53559Y-29400D01*
X53735Y-29327D01*
X53870Y-29192D01*
X53943Y-29015D01*
X53944Y-28824D01*
X53944Y-32664D01*
X53794Y-32513D01*
X53279Y-32300D01*
X52812Y-32299D01*
X52812Y-29342D01*
X52812Y-28497D01*
X52765Y-28447D01*
X52574Y-28434D01*
X52510Y-28447D01*
X52463Y-28497D01*
X52638Y-28672D01*
X52812Y-28497D01*
X52812Y-29342D01*
X52638Y-29167D01*
X52463Y-29342D01*
X52510Y-29392D01*
X52701Y-29405D01*
X52765Y-29392D01*
X52812Y-29342D01*
X52812Y-32299D01*
X52722Y-32299D01*
X52390Y-32437D01*
X52390Y-28920D01*
X52215Y-28745D01*
X52165Y-28792D01*
X52152Y-28983D01*
X52165Y-29047D01*
X52215Y-29094D01*
X52390Y-28920D01*
X52390Y-32437D01*
X52207Y-32512D01*
X51813Y-32905D01*
X51600Y-33420D01*
X51599Y-33977D01*
X51812Y-34492D01*
X52205Y-34886D01*
X52720Y-35099D01*
X52934Y-35099D01*
X52734Y-35139D01*
X52551Y-35248D01*
X53167Y-35863D01*
X53782Y-35248D01*
X53599Y-35139D01*
X53246Y-35100D01*
X53277Y-35100D01*
X53792Y-34887D01*
X54186Y-34494D01*
X54399Y-33979D01*
X54400Y-33422D01*
X54400Y-35903D01*
X53803Y-36500D01*
X54418Y-37115D01*
X54527Y-36932D01*
X54589Y-36378D01*
X54589Y-38950D01*
X53782Y-38950D01*
X53782Y-37751D01*
X53167Y-37136D01*
X52551Y-37751D01*
X52734Y-37860D01*
X53288Y-37922D01*
X53599Y-37860D01*
X53782Y-37751D01*
X53782Y-38950D01*
X52530Y-38950D01*
X52530Y-36500D01*
X51915Y-35884D01*
X51806Y-36067D01*
X51744Y-36621D01*
X51806Y-36932D01*
X51915Y-37115D01*
X52530Y-36500D01*
X52530Y-38950D01*
X49589Y-38950D01*
X49589Y-36378D01*
X49527Y-36067D01*
X49418Y-35884D01*
X49400Y-35903D01*
X49400Y-33422D01*
X49187Y-32907D01*
X48924Y-32644D01*
X48924Y-28824D01*
X48851Y-28648D01*
X48716Y-28513D01*
X48539Y-28440D01*
X48348Y-28439D01*
X48172Y-28512D01*
X48037Y-28647D01*
X47966Y-28819D01*
X47865Y-28920D01*
X47966Y-29020D01*
X48036Y-29191D01*
X48171Y-29326D01*
X48348Y-29399D01*
X48539Y-29400D01*
X48715Y-29327D01*
X48850Y-29192D01*
X48923Y-29015D01*
X48924Y-28824D01*
X48924Y-32644D01*
X48794Y-32513D01*
X48279Y-32300D01*
X47792Y-32299D01*
X47792Y-29342D01*
X47792Y-28497D01*
X47745Y-28447D01*
X47554Y-28434D01*
X47490Y-28447D01*
X47443Y-28497D01*
X47618Y-28672D01*
X47792Y-28497D01*
X47792Y-29342D01*
X47618Y-29167D01*
X47443Y-29342D01*
X47490Y-29392D01*
X47681Y-29405D01*
X47745Y-29392D01*
X47792Y-29342D01*
X47792Y-32299D01*
X47722Y-32299D01*
X47370Y-32445D01*
X47370Y-28920D01*
X47195Y-28745D01*
X47145Y-28792D01*
X47132Y-28983D01*
X47145Y-29047D01*
X47195Y-29094D01*
X47370Y-28920D01*
X47370Y-32445D01*
X47207Y-32512D01*
X46813Y-32905D01*
X46600Y-33420D01*
X46599Y-33977D01*
X46812Y-34492D01*
X47205Y-34886D01*
X47720Y-35099D01*
X47934Y-35099D01*
X47734Y-35139D01*
X47551Y-35248D01*
X48167Y-35863D01*
X48782Y-35248D01*
X48599Y-35139D01*
X48246Y-35100D01*
X48277Y-35100D01*
X48792Y-34887D01*
X49186Y-34494D01*
X49399Y-33979D01*
X49400Y-33422D01*
X49400Y-35903D01*
X48803Y-36500D01*
X49418Y-37115D01*
X49527Y-36932D01*
X49589Y-36378D01*
X49589Y-38950D01*
X48782Y-38950D01*
X48782Y-37751D01*
X48167Y-37136D01*
X47551Y-37751D01*
X47734Y-37860D01*
X48288Y-37922D01*
X48599Y-37860D01*
X48782Y-37751D01*
X48782Y-38950D01*
X47530Y-38950D01*
X47530Y-36500D01*
X46915Y-35884D01*
X46806Y-36067D01*
X46744Y-36621D01*
X46806Y-36932D01*
X46915Y-37115D01*
X47530Y-36500D01*
X47530Y-38950D01*
X44589Y-38950D01*
X44589Y-36378D01*
X44527Y-36067D01*
X44418Y-35884D01*
X44400Y-35903D01*
X44400Y-33422D01*
X44187Y-32907D01*
X43905Y-32625D01*
X43905Y-28824D01*
X43832Y-28648D01*
X43697Y-28513D01*
X43520Y-28440D01*
X43329Y-28439D01*
X43153Y-28512D01*
X43018Y-28647D01*
X42947Y-28819D01*
X42846Y-28920D01*
X42947Y-29020D01*
X43017Y-29191D01*
X43152Y-29326D01*
X43329Y-29399D01*
X43520Y-29400D01*
X43696Y-29327D01*
X43831Y-29192D01*
X43904Y-29015D01*
X43905Y-28824D01*
X43905Y-32625D01*
X43794Y-32513D01*
X43279Y-32300D01*
X42773Y-32299D01*
X42773Y-29342D01*
X42773Y-28497D01*
X42726Y-28447D01*
X42535Y-28434D01*
X42471Y-28447D01*
X42424Y-28497D01*
X42599Y-28672D01*
X42773Y-28497D01*
X42773Y-29342D01*
X42599Y-29167D01*
X42424Y-29342D01*
X42471Y-29392D01*
X42662Y-29405D01*
X42726Y-29392D01*
X42773Y-29342D01*
X42773Y-32299D01*
X42722Y-32299D01*
X42351Y-32453D01*
X42351Y-28920D01*
X42176Y-28745D01*
X42126Y-28792D01*
X42113Y-28983D01*
X42126Y-29047D01*
X42176Y-29094D01*
X42351Y-28920D01*
X42351Y-32453D01*
X42207Y-32512D01*
X41813Y-32905D01*
X41600Y-33420D01*
X41599Y-33977D01*
X41812Y-34492D01*
X42205Y-34886D01*
X42720Y-35099D01*
X42934Y-35099D01*
X42734Y-35139D01*
X42551Y-35248D01*
X43167Y-35863D01*
X43782Y-35248D01*
X43599Y-35139D01*
X43246Y-35100D01*
X43277Y-35100D01*
X43792Y-34887D01*
X44186Y-34494D01*
X44399Y-33979D01*
X44400Y-33422D01*
X44400Y-35903D01*
X43803Y-36500D01*
X44418Y-37115D01*
X44527Y-36932D01*
X44589Y-36378D01*
X44589Y-38950D01*
X43782Y-38950D01*
X43782Y-37751D01*
X43167Y-37136D01*
X42551Y-37751D01*
X42734Y-37860D01*
X43288Y-37922D01*
X43599Y-37860D01*
X43782Y-37751D01*
X43782Y-38950D01*
X42530Y-38950D01*
X42530Y-36500D01*
X41915Y-35884D01*
X41806Y-36067D01*
X41744Y-36621D01*
X41806Y-36932D01*
X41915Y-37115D01*
X42530Y-36500D01*
X42530Y-38950D01*
X40308Y-38950D01*
X40308Y-38082D01*
X40308Y-37492D01*
X40308Y-37446D01*
X40308Y-37440D01*
X40308Y-34539D01*
X40308Y-34533D01*
X40308Y-34487D01*
X40308Y-33897D01*
X40308Y-31142D01*
X40308Y-30552D01*
X40308Y-30506D01*
X40308Y-30500D01*
X40308Y-27599D01*
X40308Y-27593D01*
X40308Y-27547D01*
X40308Y-26957D01*
X40289Y-26909D01*
X40252Y-26872D01*
X40204Y-26853D01*
X40153Y-26853D01*
X39989Y-26853D01*
X39957Y-26885D01*
X39957Y-27130D01*
X40276Y-27130D01*
X40308Y-27098D01*
X40308Y-26957D01*
X40308Y-27547D01*
X40308Y-27547D01*
X40308Y-27458D01*
X40276Y-27425D01*
X39957Y-27425D01*
X39957Y-27443D01*
X39514Y-27443D01*
X39514Y-27425D01*
X39514Y-27130D01*
X39514Y-26885D01*
X39481Y-26853D01*
X39318Y-26853D01*
X39267Y-26853D01*
X39219Y-26872D01*
X39182Y-26909D01*
X39162Y-26957D01*
X39162Y-27098D01*
X39195Y-27130D01*
X39514Y-27130D01*
X39514Y-27425D01*
X39195Y-27425D01*
X39177Y-27443D01*
X39027Y-27443D01*
X38994Y-27476D01*
X38994Y-28600D01*
X40276Y-28600D01*
X40308Y-28567D01*
X40308Y-27599D01*
X40308Y-27599D01*
X40308Y-30500D01*
X40308Y-30500D01*
X40308Y-29532D01*
X40276Y-29500D01*
X38994Y-29500D01*
X38994Y-30623D01*
X39027Y-30656D01*
X39177Y-30656D01*
X39195Y-30674D01*
X39514Y-30674D01*
X39514Y-30656D01*
X39957Y-30656D01*
X39957Y-30674D01*
X40276Y-30674D01*
X40308Y-30641D01*
X40308Y-30552D01*
X40308Y-30552D01*
X40308Y-31142D01*
X40308Y-31001D01*
X40276Y-30969D01*
X39957Y-30969D01*
X39957Y-31214D01*
X39989Y-31246D01*
X40153Y-31246D01*
X40204Y-31246D01*
X40252Y-31227D01*
X40289Y-31190D01*
X40308Y-31142D01*
X40308Y-33897D01*
X40289Y-33849D01*
X40252Y-33812D01*
X40204Y-33793D01*
X40153Y-33793D01*
X39989Y-33793D01*
X39957Y-33825D01*
X39957Y-34070D01*
X40276Y-34070D01*
X40308Y-34038D01*
X40308Y-33897D01*
X40308Y-34487D01*
X40308Y-34487D01*
X40308Y-34398D01*
X40276Y-34365D01*
X39957Y-34365D01*
X39957Y-34383D01*
X39514Y-34383D01*
X39514Y-34365D01*
X39514Y-34070D01*
X39514Y-33825D01*
X39514Y-31214D01*
X39514Y-30969D01*
X39195Y-30969D01*
X39162Y-31001D01*
X39162Y-31142D01*
X39182Y-31190D01*
X39219Y-31227D01*
X39267Y-31246D01*
X39318Y-31246D01*
X39481Y-31246D01*
X39514Y-31214D01*
X39514Y-33825D01*
X39481Y-33793D01*
X39318Y-33793D01*
X39267Y-33793D01*
X39219Y-33812D01*
X39182Y-33849D01*
X39162Y-33897D01*
X39162Y-34038D01*
X39195Y-34070D01*
X39514Y-34070D01*
X39514Y-34365D01*
X39195Y-34365D01*
X39177Y-34383D01*
X39027Y-34383D01*
X38994Y-34416D01*
X38994Y-35540D01*
X40276Y-35540D01*
X40308Y-35507D01*
X40308Y-34539D01*
X40308Y-34539D01*
X40308Y-37440D01*
X40308Y-37440D01*
X40308Y-36472D01*
X40276Y-36440D01*
X38994Y-36440D01*
X38994Y-37563D01*
X39027Y-37596D01*
X39177Y-37596D01*
X39195Y-37614D01*
X39514Y-37614D01*
X39514Y-37596D01*
X39957Y-37596D01*
X39957Y-37614D01*
X40276Y-37614D01*
X40308Y-37581D01*
X40308Y-37492D01*
X40308Y-37492D01*
X40308Y-38082D01*
X40308Y-37941D01*
X40276Y-37909D01*
X39957Y-37909D01*
X39957Y-38154D01*
X39989Y-38186D01*
X40153Y-38186D01*
X40204Y-38186D01*
X40252Y-38167D01*
X40289Y-38130D01*
X40308Y-38082D01*
X40308Y-38950D01*
X39514Y-38950D01*
X39514Y-38154D01*
X39514Y-37909D01*
X39195Y-37909D01*
X39162Y-37941D01*
X39162Y-38082D01*
X39182Y-38130D01*
X39219Y-38167D01*
X39267Y-38186D01*
X39318Y-38186D01*
X39481Y-38186D01*
X39514Y-38154D01*
X39514Y-38950D01*
X38094Y-38950D01*
X38094Y-37563D01*
X38094Y-36440D01*
X38094Y-35540D01*
X38094Y-34416D01*
X38094Y-30623D01*
X38094Y-29500D01*
X38094Y-28600D01*
X38094Y-27476D01*
X38062Y-27443D01*
X36936Y-27443D01*
X36885Y-27443D01*
X36837Y-27463D01*
X36800Y-27500D01*
X36781Y-27547D01*
X36781Y-28567D01*
X36813Y-28600D01*
X38094Y-28600D01*
X38094Y-29500D01*
X36813Y-29500D01*
X36781Y-29532D01*
X36781Y-30552D01*
X36800Y-30599D01*
X36837Y-30636D01*
X36885Y-30656D01*
X36936Y-30656D01*
X38062Y-30656D01*
X38094Y-30623D01*
X38094Y-34416D01*
X38062Y-34383D01*
X37870Y-34383D01*
X37870Y-32404D01*
X37797Y-32228D01*
X37662Y-32093D01*
X37485Y-32020D01*
X37294Y-32019D01*
X37118Y-32092D01*
X36983Y-32227D01*
X36910Y-32404D01*
X36909Y-32595D01*
X36982Y-32771D01*
X37117Y-32906D01*
X37294Y-32979D01*
X37485Y-32980D01*
X37661Y-32907D01*
X37796Y-32772D01*
X37869Y-32595D01*
X37870Y-32404D01*
X37870Y-34383D01*
X36936Y-34383D01*
X36885Y-34383D01*
X36837Y-34403D01*
X36800Y-34440D01*
X36781Y-34487D01*
X36781Y-35507D01*
X36813Y-35540D01*
X38094Y-35540D01*
X38094Y-36440D01*
X36813Y-36440D01*
X36781Y-36472D01*
X36781Y-37492D01*
X36800Y-37539D01*
X36837Y-37576D01*
X36885Y-37596D01*
X36936Y-37596D01*
X38062Y-37596D01*
X38094Y-37563D01*
X38094Y-38950D01*
X36653Y-38950D01*
X36653Y-32821D01*
X36597Y-32686D01*
X36494Y-32583D01*
X36360Y-32528D01*
X36214Y-32527D01*
X36079Y-32583D01*
X35976Y-32686D01*
X35921Y-32820D01*
X35920Y-32966D01*
X35976Y-33101D01*
X36079Y-33204D01*
X36213Y-33259D01*
X36359Y-33260D01*
X36494Y-33204D01*
X36597Y-33101D01*
X36652Y-32967D01*
X36653Y-32821D01*
X36653Y-38950D01*
X35300Y-38950D01*
X35300Y-33207D01*
X35426Y-33259D01*
X35572Y-33260D01*
X35707Y-33204D01*
X35810Y-33101D01*
X35865Y-32967D01*
X35866Y-32821D01*
X35810Y-32686D01*
X35707Y-32583D01*
X35573Y-32528D01*
X35427Y-32527D01*
X35300Y-32580D01*
X35300Y-32419D01*
X35426Y-32471D01*
X35572Y-32472D01*
X35707Y-32416D01*
X35810Y-32313D01*
X35865Y-32179D01*
X35866Y-32033D01*
X35810Y-31898D01*
X35707Y-31795D01*
X35573Y-31740D01*
X35427Y-31739D01*
X35384Y-31757D01*
X35300Y-31673D01*
X35300Y-31290D01*
X35956Y-31947D01*
X35921Y-32032D01*
X35920Y-32178D01*
X35976Y-32313D01*
X36079Y-32416D01*
X36213Y-32471D01*
X36359Y-32472D01*
X36494Y-32416D01*
X36597Y-32313D01*
X36652Y-32179D01*
X36653Y-32033D01*
X36597Y-31898D01*
X36494Y-31795D01*
X36360Y-31740D01*
X36230Y-31739D01*
X35370Y-30879D01*
X35315Y-30842D01*
X35300Y-30839D01*
X35300Y-30839D01*
X35300Y-25800D01*
X72700Y-25800D01*
X72700Y-38950D01*
X72700Y-38950D01*
G37*
G54D29*
X72700Y-38950D02*
X72430Y-38950D01*
X72430Y-37565D01*
X72430Y-26815D01*
X72288Y-26473D01*
X72027Y-26212D01*
X71685Y-26070D01*
X71315Y-26069D01*
X70973Y-26211D01*
X70712Y-26472D01*
X70570Y-26814D01*
X70569Y-27184D01*
X70711Y-27526D01*
X70972Y-27787D01*
X71314Y-27929D01*
X71684Y-27930D01*
X72026Y-27788D01*
X72287Y-27527D01*
X72429Y-27185D01*
X72430Y-26815D01*
X72430Y-37565D01*
X72288Y-37223D01*
X72027Y-36962D01*
X71685Y-36820D01*
X71315Y-36819D01*
X70973Y-36961D01*
X70712Y-37222D01*
X70570Y-37564D01*
X70569Y-37934D01*
X70711Y-38276D01*
X70972Y-38537D01*
X71314Y-38679D01*
X71684Y-38680D01*
X72026Y-38538D01*
X72287Y-38277D01*
X72429Y-37935D01*
X72430Y-37565D01*
X72430Y-38950D01*
X69589Y-38950D01*
X69589Y-36378D01*
X69527Y-36067D01*
X69418Y-35884D01*
X69400Y-35903D01*
X69400Y-33422D01*
X69187Y-32907D01*
X69003Y-32723D01*
X69003Y-28824D01*
X68930Y-28648D01*
X68795Y-28513D01*
X68618Y-28440D01*
X68427Y-28439D01*
X68251Y-28512D01*
X68116Y-28647D01*
X68045Y-28819D01*
X67944Y-28920D01*
X68045Y-29020D01*
X68115Y-29191D01*
X68250Y-29326D01*
X68427Y-29399D01*
X68618Y-29400D01*
X68794Y-29327D01*
X68929Y-29192D01*
X69002Y-29015D01*
X69003Y-28824D01*
X69003Y-32723D01*
X68794Y-32513D01*
X68279Y-32300D01*
X67871Y-32299D01*
X67871Y-29342D01*
X67871Y-28497D01*
X67824Y-28447D01*
X67633Y-28434D01*
X67569Y-28447D01*
X67522Y-28497D01*
X67697Y-28672D01*
X67871Y-28497D01*
X67871Y-29342D01*
X67697Y-29167D01*
X67522Y-29342D01*
X67569Y-29392D01*
X67760Y-29405D01*
X67824Y-29392D01*
X67871Y-29342D01*
X67871Y-32299D01*
X67722Y-32299D01*
X67503Y-32390D01*
X67503Y-27328D01*
X67503Y-26671D01*
X67503Y-26619D01*
X67483Y-26571D01*
X67447Y-26535D01*
X67399Y-26515D01*
X67248Y-26515D01*
X67216Y-26548D01*
X67216Y-26822D01*
X67471Y-26822D01*
X67503Y-26790D01*
X67503Y-26671D01*
X67503Y-27328D01*
X67503Y-27209D01*
X67471Y-27177D01*
X67216Y-27177D01*
X67216Y-27452D01*
X67248Y-27484D01*
X67399Y-27484D01*
X67447Y-27464D01*
X67483Y-27428D01*
X67503Y-27380D01*
X67503Y-27328D01*
X67503Y-32390D01*
X67449Y-32412D01*
X67449Y-28920D01*
X67274Y-28745D01*
X67224Y-28792D01*
X67211Y-28983D01*
X67224Y-29047D01*
X67274Y-29094D01*
X67449Y-28920D01*
X67449Y-32412D01*
X67207Y-32512D01*
X66901Y-32818D01*
X66901Y-27452D01*
X66901Y-27177D01*
X66901Y-26822D01*
X66901Y-26548D01*
X66869Y-26515D01*
X66718Y-26515D01*
X66670Y-26535D01*
X66634Y-26571D01*
X66614Y-26619D01*
X66614Y-26671D01*
X66614Y-26790D01*
X66647Y-26822D01*
X66901Y-26822D01*
X66901Y-27177D01*
X66647Y-27177D01*
X66614Y-27209D01*
X66614Y-27328D01*
X66614Y-27380D01*
X66634Y-27428D01*
X66670Y-27464D01*
X66718Y-27484D01*
X66869Y-27484D01*
X66901Y-27452D01*
X66901Y-32818D01*
X66813Y-32905D01*
X66600Y-33420D01*
X66599Y-33977D01*
X66812Y-34492D01*
X67205Y-34886D01*
X67720Y-35099D01*
X67934Y-35099D01*
X67734Y-35139D01*
X67551Y-35248D01*
X68167Y-35863D01*
X68782Y-35248D01*
X68599Y-35139D01*
X68246Y-35100D01*
X68277Y-35100D01*
X68792Y-34887D01*
X69186Y-34494D01*
X69399Y-33979D01*
X69400Y-33422D01*
X69400Y-35903D01*
X68803Y-36500D01*
X69418Y-37115D01*
X69527Y-36932D01*
X69589Y-36378D01*
X69589Y-38950D01*
X68782Y-38950D01*
X68782Y-37751D01*
X68167Y-37136D01*
X67551Y-37751D01*
X67734Y-37860D01*
X68288Y-37922D01*
X68599Y-37860D01*
X68782Y-37751D01*
X68782Y-38950D01*
X67530Y-38950D01*
X67530Y-36500D01*
X66915Y-35884D01*
X66806Y-36067D01*
X66744Y-36621D01*
X66806Y-36932D01*
X66915Y-37115D01*
X67530Y-36500D01*
X67530Y-38950D01*
X66385Y-38950D01*
X66385Y-27328D01*
X66385Y-26619D01*
X66365Y-26571D01*
X66329Y-26535D01*
X66281Y-26515D01*
X66229Y-26515D01*
X65600Y-26515D01*
X65552Y-26535D01*
X65516Y-26571D01*
X65496Y-26619D01*
X65496Y-26671D01*
X65496Y-26830D01*
X65180Y-26830D01*
X65180Y-26699D01*
X65160Y-26651D01*
X65123Y-26614D01*
X65075Y-26595D01*
X65024Y-26594D01*
X64674Y-26594D01*
X64626Y-26614D01*
X64589Y-26651D01*
X64570Y-26699D01*
X64569Y-26750D01*
X64569Y-27300D01*
X64589Y-27348D01*
X64626Y-27385D01*
X64674Y-27404D01*
X64725Y-27405D01*
X65075Y-27405D01*
X65123Y-27385D01*
X65160Y-27348D01*
X65179Y-27300D01*
X65180Y-27249D01*
X65180Y-27170D01*
X65496Y-27170D01*
X65496Y-27380D01*
X65516Y-27428D01*
X65552Y-27464D01*
X65600Y-27484D01*
X65652Y-27484D01*
X66281Y-27484D01*
X66329Y-27464D01*
X66365Y-27428D01*
X66385Y-27380D01*
X66385Y-27328D01*
X66385Y-38950D01*
X64589Y-38950D01*
X64589Y-36378D01*
X64527Y-36067D01*
X64430Y-35903D01*
X64430Y-27249D01*
X64430Y-26699D01*
X64410Y-26651D01*
X64373Y-26614D01*
X64325Y-26595D01*
X64274Y-26594D01*
X63924Y-26594D01*
X63876Y-26614D01*
X63839Y-26651D01*
X63820Y-26699D01*
X63819Y-26750D01*
X63819Y-26830D01*
X63536Y-26830D01*
X63529Y-26813D01*
X63437Y-26720D01*
X63315Y-26670D01*
X63184Y-26669D01*
X63063Y-26720D01*
X62970Y-26812D01*
X62920Y-26934D01*
X62919Y-27065D01*
X62970Y-27186D01*
X63062Y-27279D01*
X63184Y-27329D01*
X63315Y-27330D01*
X63436Y-27279D01*
X63529Y-27187D01*
X63536Y-27170D01*
X63819Y-27170D01*
X63819Y-27300D01*
X63839Y-27348D01*
X63876Y-27385D01*
X63924Y-27404D01*
X63975Y-27405D01*
X64325Y-27405D01*
X64373Y-27385D01*
X64410Y-27348D01*
X64429Y-27300D01*
X64430Y-27249D01*
X64430Y-35903D01*
X64418Y-35884D01*
X64400Y-35903D01*
X64400Y-33422D01*
X64187Y-32907D01*
X63885Y-32605D01*
X63885Y-28824D01*
X63812Y-28648D01*
X63677Y-28513D01*
X63500Y-28440D01*
X63309Y-28439D01*
X63133Y-28512D01*
X62998Y-28647D01*
X62927Y-28819D01*
X62826Y-28920D01*
X62927Y-29020D01*
X62997Y-29191D01*
X63132Y-29326D01*
X63309Y-29399D01*
X63500Y-29400D01*
X63676Y-29327D01*
X63811Y-29192D01*
X63884Y-29015D01*
X63885Y-28824D01*
X63885Y-32605D01*
X63794Y-32513D01*
X63279Y-32300D01*
X62753Y-32299D01*
X62753Y-29342D01*
X62753Y-28497D01*
X62706Y-28447D01*
X62515Y-28434D01*
X62451Y-28447D01*
X62404Y-28497D01*
X62579Y-28672D01*
X62753Y-28497D01*
X62753Y-29342D01*
X62579Y-29167D01*
X62404Y-29342D01*
X62451Y-29392D01*
X62642Y-29405D01*
X62706Y-29392D01*
X62753Y-29342D01*
X62753Y-32299D01*
X62722Y-32299D01*
X62331Y-32461D01*
X62331Y-28920D01*
X62156Y-28745D01*
X62106Y-28792D01*
X62093Y-28983D01*
X62106Y-29047D01*
X62156Y-29094D01*
X62331Y-28920D01*
X62331Y-32461D01*
X62207Y-32512D01*
X61813Y-32905D01*
X61600Y-33420D01*
X61599Y-33977D01*
X61812Y-34492D01*
X62205Y-34886D01*
X62720Y-35099D01*
X62934Y-35099D01*
X62734Y-35139D01*
X62551Y-35248D01*
X63167Y-35863D01*
X63782Y-35248D01*
X63599Y-35139D01*
X63246Y-35100D01*
X63277Y-35100D01*
X63792Y-34887D01*
X64186Y-34494D01*
X64399Y-33979D01*
X64400Y-33422D01*
X64400Y-35903D01*
X63803Y-36500D01*
X64418Y-37115D01*
X64527Y-36932D01*
X64589Y-36378D01*
X64589Y-38950D01*
X63782Y-38950D01*
X63782Y-37751D01*
X63167Y-37136D01*
X62551Y-37751D01*
X62734Y-37860D01*
X63288Y-37922D01*
X63599Y-37860D01*
X63782Y-37751D01*
X63782Y-38950D01*
X62530Y-38950D01*
X62530Y-36500D01*
X61915Y-35884D01*
X61806Y-36067D01*
X61744Y-36621D01*
X61806Y-36932D01*
X61915Y-37115D01*
X62530Y-36500D01*
X62530Y-38950D01*
X59589Y-38950D01*
X59589Y-36378D01*
X59527Y-36067D01*
X59418Y-35884D01*
X59400Y-35903D01*
X59400Y-33422D01*
X59187Y-32907D01*
X58865Y-32584D01*
X58865Y-28824D01*
X58792Y-28648D01*
X58657Y-28513D01*
X58480Y-28440D01*
X58289Y-28439D01*
X58113Y-28512D01*
X57978Y-28647D01*
X57907Y-28819D01*
X57806Y-28920D01*
X57907Y-29020D01*
X57977Y-29191D01*
X58112Y-29326D01*
X58289Y-29399D01*
X58480Y-29400D01*
X58656Y-29327D01*
X58791Y-29192D01*
X58864Y-29015D01*
X58865Y-28824D01*
X58865Y-32584D01*
X58794Y-32513D01*
X58279Y-32300D01*
X57733Y-32299D01*
X57733Y-29342D01*
X57733Y-28497D01*
X57686Y-28447D01*
X57495Y-28434D01*
X57431Y-28447D01*
X57384Y-28497D01*
X57559Y-28672D01*
X57733Y-28497D01*
X57733Y-29342D01*
X57559Y-29167D01*
X57384Y-29342D01*
X57431Y-29392D01*
X57622Y-29405D01*
X57686Y-29392D01*
X57733Y-29342D01*
X57733Y-32299D01*
X57722Y-32299D01*
X57311Y-32469D01*
X57311Y-28920D01*
X57136Y-28745D01*
X57086Y-28792D01*
X57073Y-28983D01*
X57086Y-29047D01*
X57136Y-29094D01*
X57311Y-28920D01*
X57311Y-32469D01*
X57207Y-32512D01*
X56813Y-32905D01*
X56600Y-33420D01*
X56599Y-33977D01*
X56812Y-34492D01*
X57205Y-34886D01*
X57720Y-35099D01*
X57934Y-35099D01*
X57734Y-35139D01*
X57551Y-35248D01*
X58167Y-35863D01*
X58782Y-35248D01*
X58599Y-35139D01*
X58246Y-35100D01*
X58277Y-35100D01*
X58792Y-34887D01*
X59186Y-34494D01*
X59399Y-33979D01*
X59400Y-33422D01*
X59400Y-35903D01*
X58803Y-36500D01*
X59418Y-37115D01*
X59527Y-36932D01*
X59589Y-36378D01*
X59589Y-38950D01*
X58782Y-38950D01*
X58782Y-37751D01*
X58167Y-37136D01*
X57551Y-37751D01*
X57734Y-37860D01*
X58288Y-37922D01*
X58599Y-37860D01*
X58782Y-37751D01*
X58782Y-38950D01*
X57530Y-38950D01*
X57530Y-36500D01*
X56915Y-35884D01*
X56806Y-36067D01*
X56744Y-36621D01*
X56806Y-36932D01*
X56915Y-37115D01*
X57530Y-36500D01*
X57530Y-38950D01*
X54589Y-38950D01*
X54589Y-36378D01*
X54527Y-36067D01*
X54418Y-35884D01*
X54400Y-35903D01*
X54400Y-33422D01*
X54187Y-32907D01*
X53944Y-32664D01*
X53944Y-28824D01*
X53871Y-28648D01*
X53736Y-28513D01*
X53559Y-28440D01*
X53368Y-28439D01*
X53192Y-28512D01*
X53057Y-28647D01*
X52986Y-28819D01*
X52885Y-28920D01*
X52986Y-29020D01*
X53056Y-29191D01*
X53191Y-29326D01*
X53368Y-29399D01*
X53559Y-29400D01*
X53735Y-29327D01*
X53870Y-29192D01*
X53943Y-29015D01*
X53944Y-28824D01*
X53944Y-32664D01*
X53794Y-32513D01*
X53279Y-32300D01*
X52812Y-32299D01*
X52812Y-29342D01*
X52812Y-28497D01*
X52765Y-28447D01*
X52574Y-28434D01*
X52510Y-28447D01*
X52463Y-28497D01*
X52638Y-28672D01*
X52812Y-28497D01*
X52812Y-29342D01*
X52638Y-29167D01*
X52463Y-29342D01*
X52510Y-29392D01*
X52701Y-29405D01*
X52765Y-29392D01*
X52812Y-29342D01*
X52812Y-32299D01*
X52722Y-32299D01*
X52390Y-32437D01*
X52390Y-28920D01*
X52215Y-28745D01*
X52165Y-28792D01*
X52152Y-28983D01*
X52165Y-29047D01*
X52215Y-29094D01*
X52390Y-28920D01*
X52390Y-32437D01*
X52207Y-32512D01*
X51813Y-32905D01*
X51600Y-33420D01*
X51599Y-33977D01*
X51812Y-34492D01*
X52205Y-34886D01*
X52720Y-35099D01*
X52934Y-35099D01*
X52734Y-35139D01*
X52551Y-35248D01*
X53167Y-35863D01*
X53782Y-35248D01*
X53599Y-35139D01*
X53246Y-35100D01*
X53277Y-35100D01*
X53792Y-34887D01*
X54186Y-34494D01*
X54399Y-33979D01*
X54400Y-33422D01*
X54400Y-35903D01*
X53803Y-36500D01*
X54418Y-37115D01*
X54527Y-36932D01*
X54589Y-36378D01*
X54589Y-38950D01*
X53782Y-38950D01*
X53782Y-37751D01*
X53167Y-37136D01*
X52551Y-37751D01*
X52734Y-37860D01*
X53288Y-37922D01*
X53599Y-37860D01*
X53782Y-37751D01*
X53782Y-38950D01*
X52530Y-38950D01*
X52530Y-36500D01*
X51915Y-35884D01*
X51806Y-36067D01*
X51744Y-36621D01*
X51806Y-36932D01*
X51915Y-37115D01*
X52530Y-36500D01*
X52530Y-38950D01*
X49589Y-38950D01*
X49589Y-36378D01*
X49527Y-36067D01*
X49418Y-35884D01*
X49400Y-35903D01*
X49400Y-33422D01*
X49187Y-32907D01*
X48924Y-32644D01*
X48924Y-28824D01*
X48851Y-28648D01*
X48716Y-28513D01*
X48539Y-28440D01*
X48348Y-28439D01*
X48172Y-28512D01*
X48037Y-28647D01*
X47966Y-28819D01*
X47865Y-28920D01*
X47966Y-29020D01*
X48036Y-29191D01*
X48171Y-29326D01*
X48348Y-29399D01*
X48539Y-29400D01*
X48715Y-29327D01*
X48850Y-29192D01*
X48923Y-29015D01*
X48924Y-28824D01*
X48924Y-32644D01*
X48794Y-32513D01*
X48279Y-32300D01*
X47792Y-32299D01*
X47792Y-29342D01*
X47792Y-28497D01*
X47745Y-28447D01*
X47554Y-28434D01*
X47490Y-28447D01*
X47443Y-28497D01*
X47618Y-28672D01*
X47792Y-28497D01*
X47792Y-29342D01*
X47618Y-29167D01*
X47443Y-29342D01*
X47490Y-29392D01*
X47681Y-29405D01*
X47745Y-29392D01*
X47792Y-29342D01*
X47792Y-32299D01*
X47722Y-32299D01*
X47370Y-32445D01*
X47370Y-28920D01*
X47195Y-28745D01*
X47145Y-28792D01*
X47132Y-28983D01*
X47145Y-29047D01*
X47195Y-29094D01*
X47370Y-28920D01*
X47370Y-32445D01*
X47207Y-32512D01*
X46813Y-32905D01*
X46600Y-33420D01*
X46599Y-33977D01*
X46812Y-34492D01*
X47205Y-34886D01*
X47720Y-35099D01*
X47934Y-35099D01*
X47734Y-35139D01*
X47551Y-35248D01*
X48167Y-35863D01*
X48782Y-35248D01*
X48599Y-35139D01*
X48246Y-35100D01*
X48277Y-35100D01*
X48792Y-34887D01*
X49186Y-34494D01*
X49399Y-33979D01*
X49400Y-33422D01*
X49400Y-35903D01*
X48803Y-36500D01*
X49418Y-37115D01*
X49527Y-36932D01*
X49589Y-36378D01*
X49589Y-38950D01*
X48782Y-38950D01*
X48782Y-37751D01*
X48167Y-37136D01*
X47551Y-37751D01*
X47734Y-37860D01*
X48288Y-37922D01*
X48599Y-37860D01*
X48782Y-37751D01*
X48782Y-38950D01*
X47530Y-38950D01*
X47530Y-36500D01*
X46915Y-35884D01*
X46806Y-36067D01*
X46744Y-36621D01*
X46806Y-36932D01*
X46915Y-37115D01*
X47530Y-36500D01*
X47530Y-38950D01*
X44589Y-38950D01*
X44589Y-36378D01*
X44527Y-36067D01*
X44418Y-35884D01*
X44400Y-35903D01*
X44400Y-33422D01*
X44187Y-32907D01*
X43905Y-32625D01*
X43905Y-28824D01*
X43832Y-28648D01*
X43697Y-28513D01*
X43520Y-28440D01*
X43329Y-28439D01*
X43153Y-28512D01*
X43018Y-28647D01*
X42947Y-28819D01*
X42846Y-28920D01*
X42947Y-29020D01*
X43017Y-29191D01*
X43152Y-29326D01*
X43329Y-29399D01*
X43520Y-29400D01*
X43696Y-29327D01*
X43831Y-29192D01*
X43904Y-29015D01*
X43905Y-28824D01*
X43905Y-32625D01*
X43794Y-32513D01*
X43279Y-32300D01*
X42773Y-32299D01*
X42773Y-29342D01*
X42773Y-28497D01*
X42726Y-28447D01*
X42535Y-28434D01*
X42471Y-28447D01*
X42424Y-28497D01*
X42599Y-28672D01*
X42773Y-28497D01*
X42773Y-29342D01*
X42599Y-29167D01*
X42424Y-29342D01*
X42471Y-29392D01*
X42662Y-29405D01*
X42726Y-29392D01*
X42773Y-29342D01*
X42773Y-32299D01*
X42722Y-32299D01*
X42351Y-32453D01*
X42351Y-28920D01*
X42176Y-28745D01*
X42126Y-28792D01*
X42113Y-28983D01*
X42126Y-29047D01*
X42176Y-29094D01*
X42351Y-28920D01*
X42351Y-32453D01*
X42207Y-32512D01*
X41813Y-32905D01*
X41600Y-33420D01*
X41599Y-33977D01*
X41812Y-34492D01*
X42205Y-34886D01*
X42720Y-35099D01*
X42934Y-35099D01*
X42734Y-35139D01*
X42551Y-35248D01*
X43167Y-35863D01*
X43782Y-35248D01*
X43599Y-35139D01*
X43246Y-35100D01*
X43277Y-35100D01*
X43792Y-34887D01*
X44186Y-34494D01*
X44399Y-33979D01*
X44400Y-33422D01*
X44400Y-35903D01*
X43803Y-36500D01*
X44418Y-37115D01*
X44527Y-36932D01*
X44589Y-36378D01*
X44589Y-38950D01*
X43782Y-38950D01*
X43782Y-37751D01*
X43167Y-37136D01*
X42551Y-37751D01*
X42734Y-37860D01*
X43288Y-37922D01*
X43599Y-37860D01*
X43782Y-37751D01*
X43782Y-38950D01*
X42530Y-38950D01*
X42530Y-36500D01*
X41915Y-35884D01*
X41806Y-36067D01*
X41744Y-36621D01*
X41806Y-36932D01*
X41915Y-37115D01*
X42530Y-36500D01*
X42530Y-38950D01*
X40308Y-38950D01*
X40308Y-38082D01*
X40308Y-37492D01*
X40308Y-37446D01*
X40308Y-37440D01*
X40308Y-34539D01*
X40308Y-34533D01*
X40308Y-34487D01*
X40308Y-33897D01*
X40308Y-31142D01*
X40308Y-30552D01*
X40308Y-30506D01*
X40308Y-30500D01*
X40308Y-27599D01*
X40308Y-27593D01*
X40308Y-27547D01*
X40308Y-26957D01*
X40289Y-26909D01*
X40252Y-26872D01*
X40204Y-26853D01*
X40153Y-26853D01*
X39989Y-26853D01*
X39957Y-26885D01*
X39957Y-27130D01*
X40276Y-27130D01*
X40308Y-27098D01*
X40308Y-26957D01*
X40308Y-27547D01*
X40308Y-27547D01*
X40308Y-27458D01*
X40276Y-27425D01*
X39957Y-27425D01*
X39957Y-27443D01*
X39514Y-27443D01*
X39514Y-27425D01*
X39514Y-27130D01*
X39514Y-26885D01*
X39481Y-26853D01*
X39318Y-26853D01*
X39267Y-26853D01*
X39219Y-26872D01*
X39182Y-26909D01*
X39162Y-26957D01*
X39162Y-27098D01*
X39195Y-27130D01*
X39514Y-27130D01*
X39514Y-27425D01*
X39195Y-27425D01*
X39177Y-27443D01*
X39027Y-27443D01*
X38994Y-27476D01*
X38994Y-28600D01*
X40276Y-28600D01*
X40308Y-28567D01*
X40308Y-27599D01*
X40308Y-27599D01*
X40308Y-30500D01*
X40308Y-30500D01*
X40308Y-29532D01*
X40276Y-29500D01*
X38994Y-29500D01*
X38994Y-30623D01*
X39027Y-30656D01*
X39177Y-30656D01*
X39195Y-30674D01*
X39514Y-30674D01*
X39514Y-30656D01*
X39957Y-30656D01*
X39957Y-30674D01*
X40276Y-30674D01*
X40308Y-30641D01*
X40308Y-30552D01*
X40308Y-30552D01*
X40308Y-31142D01*
X40308Y-31001D01*
X40276Y-30969D01*
X39957Y-30969D01*
X39957Y-31214D01*
X39989Y-31246D01*
X40153Y-31246D01*
X40204Y-31246D01*
X40252Y-31227D01*
X40289Y-31190D01*
X40308Y-31142D01*
X40308Y-33897D01*
X40289Y-33849D01*
X40252Y-33812D01*
X40204Y-33793D01*
X40153Y-33793D01*
X39989Y-33793D01*
X39957Y-33825D01*
X39957Y-34070D01*
X40276Y-34070D01*
X40308Y-34038D01*
X40308Y-33897D01*
X40308Y-34487D01*
X40308Y-34487D01*
X40308Y-34398D01*
X40276Y-34365D01*
X39957Y-34365D01*
X39957Y-34383D01*
X39514Y-34383D01*
X39514Y-34365D01*
X39514Y-34070D01*
X39514Y-33825D01*
X39514Y-31214D01*
X39514Y-30969D01*
X39195Y-30969D01*
X39162Y-31001D01*
X39162Y-31142D01*
X39182Y-31190D01*
X39219Y-31227D01*
X39267Y-31246D01*
X39318Y-31246D01*
X39481Y-31246D01*
X39514Y-31214D01*
X39514Y-33825D01*
X39481Y-33793D01*
X39318Y-33793D01*
X39267Y-33793D01*
X39219Y-33812D01*
X39182Y-33849D01*
X39162Y-33897D01*
X39162Y-34038D01*
X39195Y-34070D01*
X39514Y-34070D01*
X39514Y-34365D01*
X39195Y-34365D01*
X39177Y-34383D01*
X39027Y-34383D01*
X38994Y-34416D01*
X38994Y-35540D01*
X40276Y-35540D01*
X40308Y-35507D01*
X40308Y-34539D01*
X40308Y-34539D01*
X40308Y-37440D01*
X40308Y-37440D01*
X40308Y-36472D01*
X40276Y-36440D01*
X38994Y-36440D01*
X38994Y-37563D01*
X39027Y-37596D01*
X39177Y-37596D01*
X39195Y-37614D01*
X39514Y-37614D01*
X39514Y-37596D01*
X39957Y-37596D01*
X39957Y-37614D01*
X40276Y-37614D01*
X40308Y-37581D01*
X40308Y-37492D01*
X40308Y-37492D01*
X40308Y-38082D01*
X40308Y-37941D01*
X40276Y-37909D01*
X39957Y-37909D01*
X39957Y-38154D01*
X39989Y-38186D01*
X40153Y-38186D01*
X40204Y-38186D01*
X40252Y-38167D01*
X40289Y-38130D01*
X40308Y-38082D01*
X40308Y-38950D01*
X39514Y-38950D01*
X39514Y-38154D01*
X39514Y-37909D01*
X39195Y-37909D01*
X39162Y-37941D01*
X39162Y-38082D01*
X39182Y-38130D01*
X39219Y-38167D01*
X39267Y-38186D01*
X39318Y-38186D01*
X39481Y-38186D01*
X39514Y-38154D01*
X39514Y-38950D01*
X38094Y-38950D01*
X38094Y-37563D01*
X38094Y-36440D01*
X38094Y-35540D01*
X38094Y-34416D01*
X38094Y-30623D01*
X38094Y-29500D01*
X38094Y-28600D01*
X38094Y-27476D01*
X38062Y-27443D01*
X36936Y-27443D01*
X36885Y-27443D01*
X36837Y-27463D01*
X36800Y-27500D01*
X36781Y-27547D01*
X36781Y-28567D01*
X36813Y-28600D01*
X38094Y-28600D01*
X38094Y-29500D01*
X36813Y-29500D01*
X36781Y-29532D01*
X36781Y-30552D01*
X36800Y-30599D01*
X36837Y-30636D01*
X36885Y-30656D01*
X36936Y-30656D01*
X38062Y-30656D01*
X38094Y-30623D01*
X38094Y-34416D01*
X38062Y-34383D01*
X37870Y-34383D01*
X37870Y-32404D01*
X37797Y-32228D01*
X37662Y-32093D01*
X37485Y-32020D01*
X37294Y-32019D01*
X37118Y-32092D01*
X36983Y-32227D01*
X36910Y-32404D01*
X36909Y-32595D01*
X36982Y-32771D01*
X37117Y-32906D01*
X37294Y-32979D01*
X37485Y-32980D01*
X37661Y-32907D01*
X37796Y-32772D01*
X37869Y-32595D01*
X37870Y-32404D01*
X37870Y-34383D01*
X36936Y-34383D01*
X36885Y-34383D01*
X36837Y-34403D01*
X36800Y-34440D01*
X36781Y-34487D01*
X36781Y-35507D01*
X36813Y-35540D01*
X38094Y-35540D01*
X38094Y-36440D01*
X36813Y-36440D01*
X36781Y-36472D01*
X36781Y-37492D01*
X36800Y-37539D01*
X36837Y-37576D01*
X36885Y-37596D01*
X36936Y-37596D01*
X38062Y-37596D01*
X38094Y-37563D01*
X38094Y-38950D01*
X36653Y-38950D01*
X36653Y-32821D01*
X36597Y-32686D01*
X36494Y-32583D01*
X36360Y-32528D01*
X36214Y-32527D01*
X36079Y-32583D01*
X35976Y-32686D01*
X35921Y-32820D01*
X35920Y-32966D01*
X35976Y-33101D01*
X36079Y-33204D01*
X36213Y-33259D01*
X36359Y-33260D01*
X36494Y-33204D01*
X36597Y-33101D01*
X36652Y-32967D01*
X36653Y-32821D01*
X36653Y-38950D01*
X35300Y-38950D01*
X35300Y-33207D01*
X35426Y-33259D01*
X35572Y-33260D01*
X35707Y-33204D01*
X35810Y-33101D01*
X35865Y-32967D01*
X35866Y-32821D01*
X35810Y-32686D01*
X35707Y-32583D01*
X35573Y-32528D01*
X35427Y-32527D01*
X35300Y-32580D01*
X35300Y-32419D01*
X35426Y-32471D01*
X35572Y-32472D01*
X35707Y-32416D01*
X35810Y-32313D01*
X35865Y-32179D01*
X35866Y-32033D01*
X35810Y-31898D01*
X35707Y-31795D01*
X35573Y-31740D01*
X35427Y-31739D01*
X35384Y-31757D01*
X35300Y-31673D01*
X35300Y-31290D01*
X35956Y-31947D01*
X35921Y-32032D01*
X35920Y-32178D01*
X35976Y-32313D01*
X36079Y-32416D01*
X36213Y-32471D01*
X36359Y-32472D01*
X36494Y-32416D01*
X36597Y-32313D01*
X36652Y-32179D01*
X36653Y-32033D01*
X36597Y-31898D01*
X36494Y-31795D01*
X36360Y-31740D01*
X36230Y-31739D01*
X35370Y-30879D01*
X35315Y-30842D01*
X35300Y-30839D01*
X35300Y-30839D01*
X35300Y-25800D01*
X72700Y-25800D01*
X72700Y-38950D01*
G54D10*
G36*
X34700Y-38950D02*
X34111Y-38950D01*
X34111Y-37412D01*
X34111Y-37152D01*
X34111Y-36827D01*
X34111Y-36567D01*
X34078Y-36535D01*
X33836Y-36534D01*
X33785Y-36535D01*
X33737Y-36554D01*
X33700Y-36591D01*
X33681Y-36639D01*
X33681Y-36795D01*
X33713Y-36827D01*
X34111Y-36827D01*
X34111Y-37152D01*
X33713Y-37152D01*
X33681Y-37185D01*
X33681Y-37340D01*
X33700Y-37388D01*
X33737Y-37425D01*
X33785Y-37444D01*
X33836Y-37445D01*
X34078Y-37445D01*
X34111Y-37412D01*
X34111Y-38950D01*
X32374Y-38950D01*
X32374Y-33288D01*
X32374Y-32659D01*
X32374Y-32222D01*
X32374Y-31541D01*
X32354Y-31493D01*
X32318Y-31457D01*
X32270Y-31437D01*
X32218Y-31437D01*
X32099Y-31437D01*
X32067Y-31470D01*
X32067Y-31724D01*
X32342Y-31724D01*
X32374Y-31692D01*
X32374Y-31541D01*
X32374Y-32222D01*
X32374Y-32071D01*
X32342Y-32039D01*
X32067Y-32039D01*
X32067Y-32294D01*
X32099Y-32326D01*
X32218Y-32326D01*
X32270Y-32326D01*
X32318Y-32306D01*
X32354Y-32270D01*
X32374Y-32222D01*
X32374Y-32659D01*
X32354Y-32611D01*
X32318Y-32575D01*
X32270Y-32555D01*
X32218Y-32555D01*
X31712Y-32555D01*
X31712Y-32294D01*
X31712Y-32039D01*
X31712Y-31724D01*
X31712Y-31470D01*
X31680Y-31437D01*
X31561Y-31437D01*
X31509Y-31437D01*
X31461Y-31457D01*
X31425Y-31493D01*
X31405Y-31541D01*
X31405Y-31692D01*
X31438Y-31724D01*
X31712Y-31724D01*
X31712Y-32039D01*
X31438Y-32039D01*
X31405Y-32071D01*
X31405Y-32222D01*
X31425Y-32270D01*
X31461Y-32306D01*
X31509Y-32326D01*
X31561Y-32326D01*
X31680Y-32326D01*
X31712Y-32294D01*
X31712Y-32555D01*
X31509Y-32555D01*
X31461Y-32575D01*
X31425Y-32611D01*
X31405Y-32659D01*
X31405Y-32711D01*
X31405Y-33340D01*
X31425Y-33388D01*
X31461Y-33424D01*
X31509Y-33444D01*
X31561Y-33444D01*
X31720Y-33444D01*
X31720Y-34043D01*
X31589Y-34043D01*
X31541Y-34063D01*
X31504Y-34100D01*
X31485Y-34148D01*
X31484Y-34179D01*
X31429Y-34179D01*
X31429Y-34148D01*
X31409Y-34100D01*
X31372Y-34063D01*
X31324Y-34044D01*
X31273Y-34043D01*
X30723Y-34043D01*
X30675Y-34063D01*
X30638Y-34100D01*
X30619Y-34148D01*
X30618Y-34199D01*
X30618Y-34549D01*
X30638Y-34597D01*
X30675Y-34634D01*
X30723Y-34653D01*
X30774Y-34654D01*
X31324Y-34654D01*
X31372Y-34634D01*
X31409Y-34597D01*
X31428Y-34549D01*
X31429Y-34519D01*
X31484Y-34519D01*
X31484Y-34549D01*
X31504Y-34597D01*
X31541Y-34634D01*
X31589Y-34653D01*
X31640Y-34654D01*
X32190Y-34654D01*
X32238Y-34634D01*
X32275Y-34597D01*
X32294Y-34549D01*
X32295Y-34498D01*
X32295Y-34148D01*
X32275Y-34100D01*
X32238Y-34063D01*
X32190Y-34044D01*
X32139Y-34043D01*
X32060Y-34043D01*
X32060Y-33444D01*
X32270Y-33444D01*
X32318Y-33424D01*
X32354Y-33388D01*
X32374Y-33340D01*
X32374Y-33288D01*
X32374Y-38950D01*
X32295Y-38950D01*
X32295Y-35248D01*
X32295Y-34898D01*
X32275Y-34850D01*
X32238Y-34813D01*
X32190Y-34794D01*
X32139Y-34793D01*
X31589Y-34793D01*
X31541Y-34813D01*
X31504Y-34850D01*
X31485Y-34898D01*
X31484Y-34929D01*
X31429Y-34929D01*
X31429Y-34898D01*
X31409Y-34850D01*
X31372Y-34813D01*
X31324Y-34794D01*
X31273Y-34793D01*
X30723Y-34793D01*
X30675Y-34813D01*
X30638Y-34850D01*
X30619Y-34898D01*
X30618Y-34929D01*
X30562Y-34929D01*
X30562Y-34898D01*
X30562Y-34498D01*
X30562Y-34148D01*
X30542Y-34100D01*
X30505Y-34063D01*
X30457Y-34044D01*
X30406Y-34043D01*
X30327Y-34043D01*
X30327Y-33149D01*
X30314Y-33083D01*
X30277Y-33028D01*
X30277Y-33028D01*
X30069Y-32820D01*
X30014Y-32783D01*
X29949Y-32771D01*
X29934Y-32771D01*
X29934Y-32718D01*
X29914Y-32670D01*
X29877Y-32633D01*
X29829Y-32614D01*
X29778Y-32613D01*
X29576Y-32613D01*
X29620Y-32506D01*
X29621Y-32375D01*
X29613Y-32358D01*
X29704Y-32268D01*
X29829Y-32268D01*
X29877Y-32248D01*
X29914Y-32211D01*
X29933Y-32163D01*
X29934Y-32112D01*
X29934Y-31718D01*
X29914Y-31670D01*
X29877Y-31633D01*
X29829Y-31614D01*
X29778Y-31613D01*
X29559Y-31613D01*
X29559Y-31490D01*
X29429Y-31490D01*
X29429Y-31613D01*
X29392Y-31614D01*
X29360Y-31646D01*
X29360Y-31842D01*
X29397Y-31842D01*
X29397Y-32039D01*
X29360Y-32039D01*
X29360Y-32112D01*
X29356Y-32111D01*
X29225Y-32110D01*
X29222Y-32112D01*
X29222Y-32039D01*
X29184Y-32039D01*
X29184Y-31842D01*
X29222Y-31842D01*
X29222Y-31646D01*
X29189Y-31614D01*
X29153Y-31613D01*
X29153Y-31490D01*
X29023Y-31490D01*
X29023Y-31613D01*
X28752Y-31613D01*
X28704Y-31633D01*
X28667Y-31670D01*
X28648Y-31718D01*
X28647Y-31769D01*
X28647Y-32163D01*
X28667Y-32211D01*
X28704Y-32248D01*
X28752Y-32267D01*
X28803Y-32268D01*
X28877Y-32268D01*
X28967Y-32358D01*
X28961Y-32375D01*
X28960Y-32506D01*
X29005Y-32613D01*
X28752Y-32613D01*
X28704Y-32633D01*
X28667Y-32670D01*
X28648Y-32718D01*
X28647Y-32769D01*
X28647Y-32775D01*
X28607Y-32783D01*
X28552Y-32820D01*
X28552Y-32820D01*
X28304Y-33068D01*
X28267Y-33123D01*
X28255Y-33189D01*
X28255Y-34043D01*
X28124Y-34043D01*
X28122Y-34044D01*
X28122Y-31075D01*
X28122Y-30725D01*
X28122Y-30376D01*
X28122Y-29975D01*
X28102Y-29927D01*
X28065Y-29890D01*
X28017Y-29871D01*
X27966Y-29870D01*
X27887Y-29871D01*
X27854Y-29903D01*
X27854Y-30088D01*
X28089Y-30088D01*
X28122Y-30056D01*
X28122Y-29975D01*
X28122Y-30376D01*
X28122Y-30296D01*
X28089Y-30263D01*
X27854Y-30263D01*
X27854Y-30448D01*
X27887Y-30481D01*
X27966Y-30481D01*
X28017Y-30480D01*
X28065Y-30461D01*
X28102Y-30424D01*
X28122Y-30376D01*
X28122Y-30725D01*
X28102Y-30677D01*
X28065Y-30640D01*
X28017Y-30621D01*
X27966Y-30620D01*
X27579Y-30620D01*
X27579Y-30448D01*
X27579Y-30263D01*
X27579Y-30088D01*
X27579Y-29903D01*
X27547Y-29871D01*
X27467Y-29870D01*
X27416Y-29871D01*
X27368Y-29890D01*
X27331Y-29927D01*
X27311Y-29975D01*
X27312Y-30056D01*
X27344Y-30088D01*
X27579Y-30088D01*
X27579Y-30263D01*
X27344Y-30263D01*
X27312Y-30296D01*
X27311Y-30376D01*
X27331Y-30424D01*
X27368Y-30461D01*
X27416Y-30480D01*
X27467Y-30481D01*
X27547Y-30481D01*
X27579Y-30448D01*
X27579Y-30620D01*
X27416Y-30620D01*
X27368Y-30640D01*
X27331Y-30677D01*
X27312Y-30725D01*
X27311Y-30776D01*
X27311Y-31126D01*
X27331Y-31174D01*
X27368Y-31211D01*
X27416Y-31230D01*
X27467Y-31231D01*
X27547Y-31231D01*
X27547Y-31405D01*
X27497Y-31405D01*
X27449Y-31425D01*
X27412Y-31462D01*
X27393Y-31510D01*
X27392Y-31561D01*
X27392Y-32111D01*
X27412Y-32159D01*
X27449Y-32196D01*
X27461Y-32201D01*
X27461Y-32322D01*
X27424Y-32323D01*
X27392Y-32355D01*
X27392Y-32551D01*
X27429Y-32551D01*
X27429Y-32748D01*
X27392Y-32748D01*
X27392Y-32944D01*
X27424Y-32977D01*
X27461Y-32977D01*
X27461Y-33100D01*
X27591Y-33100D01*
X27591Y-32977D01*
X27861Y-32977D01*
X27909Y-32957D01*
X27946Y-32920D01*
X27965Y-32872D01*
X27966Y-32821D01*
X27966Y-32427D01*
X27946Y-32379D01*
X27909Y-32342D01*
X27868Y-32325D01*
X27868Y-32216D01*
X27898Y-32216D01*
X27946Y-32196D01*
X27983Y-32159D01*
X28002Y-32111D01*
X28003Y-32060D01*
X28003Y-31510D01*
X27983Y-31462D01*
X27946Y-31425D01*
X27898Y-31406D01*
X27887Y-31406D01*
X27887Y-31231D01*
X28017Y-31231D01*
X28065Y-31211D01*
X28102Y-31174D01*
X28121Y-31126D01*
X28122Y-31075D01*
X28122Y-34044D01*
X28076Y-34063D01*
X28039Y-34100D01*
X28020Y-34148D01*
X28019Y-34199D01*
X28019Y-34549D01*
X28039Y-34597D01*
X28076Y-34634D01*
X28124Y-34653D01*
X28175Y-34654D01*
X28725Y-34654D01*
X28773Y-34634D01*
X28810Y-34597D01*
X28829Y-34549D01*
X28830Y-34498D01*
X28830Y-34149D01*
X28885Y-34205D01*
X28885Y-34551D01*
X28905Y-34599D01*
X28942Y-34636D01*
X28990Y-34655D01*
X29041Y-34656D01*
X29591Y-34656D01*
X29639Y-34636D01*
X29676Y-34599D01*
X29695Y-34551D01*
X29696Y-34500D01*
X29696Y-34150D01*
X29676Y-34102D01*
X29639Y-34065D01*
X29591Y-34046D01*
X29540Y-34045D01*
X29207Y-34045D01*
X29067Y-33906D01*
X29591Y-33906D01*
X29639Y-33886D01*
X29676Y-33849D01*
X29695Y-33801D01*
X29696Y-33750D01*
X29696Y-33400D01*
X29676Y-33352D01*
X29639Y-33315D01*
X29591Y-33296D01*
X29540Y-33295D01*
X29461Y-33295D01*
X29461Y-33265D01*
X29478Y-33258D01*
X29502Y-33267D01*
X29553Y-33268D01*
X29829Y-33268D01*
X29877Y-33248D01*
X29914Y-33211D01*
X29933Y-33165D01*
X29987Y-33219D01*
X29987Y-34043D01*
X29856Y-34043D01*
X29808Y-34063D01*
X29771Y-34100D01*
X29752Y-34148D01*
X29751Y-34199D01*
X29751Y-34549D01*
X29771Y-34597D01*
X29808Y-34634D01*
X29856Y-34653D01*
X29907Y-34654D01*
X30457Y-34654D01*
X30505Y-34634D01*
X30542Y-34597D01*
X30561Y-34549D01*
X30562Y-34498D01*
X30562Y-34898D01*
X30542Y-34850D01*
X30505Y-34813D01*
X30457Y-34794D01*
X30406Y-34793D01*
X29856Y-34793D01*
X29808Y-34813D01*
X29771Y-34850D01*
X29752Y-34898D01*
X29751Y-34929D01*
X28830Y-34929D01*
X28830Y-34898D01*
X28810Y-34850D01*
X28773Y-34813D01*
X28725Y-34794D01*
X28674Y-34793D01*
X28124Y-34793D01*
X28076Y-34813D01*
X28039Y-34850D01*
X28020Y-34898D01*
X28019Y-34929D01*
X27966Y-34929D01*
X27966Y-33821D01*
X27966Y-33478D01*
X27965Y-33427D01*
X27946Y-33379D01*
X27909Y-33342D01*
X27861Y-33322D01*
X27799Y-33323D01*
X27767Y-33355D01*
X27767Y-33551D01*
X27933Y-33551D01*
X27966Y-33519D01*
X27966Y-33478D01*
X27966Y-33821D01*
X27966Y-33781D01*
X27933Y-33748D01*
X27767Y-33748D01*
X27767Y-33944D01*
X27799Y-33977D01*
X27861Y-33977D01*
X27909Y-33957D01*
X27946Y-33920D01*
X27965Y-33872D01*
X27966Y-33821D01*
X27966Y-34929D01*
X27846Y-34929D01*
X27118Y-34200D01*
X27118Y-33974D01*
X27135Y-33967D01*
X27159Y-33976D01*
X27210Y-33977D01*
X27430Y-33977D01*
X27430Y-34100D01*
X27560Y-34100D01*
X27560Y-33977D01*
X27596Y-33977D01*
X27629Y-33944D01*
X27629Y-33748D01*
X27591Y-33748D01*
X27591Y-33551D01*
X27629Y-33551D01*
X27629Y-33355D01*
X27596Y-33323D01*
X27560Y-33322D01*
X27560Y-33199D01*
X27430Y-33199D01*
X27430Y-33322D01*
X27410Y-33322D01*
X27388Y-33307D01*
X27385Y-33307D01*
X27178Y-33100D01*
X27185Y-33100D01*
X27185Y-32977D01*
X27221Y-32977D01*
X27254Y-32944D01*
X27254Y-32748D01*
X27216Y-32748D01*
X27216Y-32551D01*
X27254Y-32551D01*
X27254Y-32355D01*
X27221Y-32323D01*
X27185Y-32322D01*
X27185Y-32201D01*
X27196Y-32196D01*
X27233Y-32159D01*
X27252Y-32111D01*
X27253Y-32060D01*
X27253Y-31510D01*
X27233Y-31462D01*
X27196Y-31425D01*
X27148Y-31406D01*
X27118Y-31405D01*
X27118Y-29209D01*
X27194Y-29177D01*
X27287Y-29085D01*
X27337Y-28963D01*
X27338Y-28832D01*
X27287Y-28711D01*
X27195Y-28618D01*
X27073Y-28568D01*
X26942Y-28567D01*
X26821Y-28618D01*
X26728Y-28710D01*
X26678Y-28832D01*
X26678Y-28875D01*
X26657Y-28867D01*
X26627Y-28866D01*
X26627Y-28543D01*
X26703Y-28512D01*
X26817Y-28398D01*
X26868Y-28276D01*
X26918Y-28398D01*
X27032Y-28512D01*
X27181Y-28573D01*
X27342Y-28574D01*
X27491Y-28512D01*
X27605Y-28398D01*
X27655Y-28277D01*
X27705Y-28398D01*
X27819Y-28512D01*
X27968Y-28573D01*
X28129Y-28574D01*
X28278Y-28512D01*
X28392Y-28398D01*
X28443Y-28276D01*
X28493Y-28398D01*
X28607Y-28512D01*
X28756Y-28573D01*
X28917Y-28574D01*
X29066Y-28512D01*
X29180Y-28398D01*
X29241Y-28249D01*
X29242Y-28088D01*
X29180Y-27939D01*
X29066Y-27825D01*
X28917Y-27764D01*
X28756Y-27763D01*
X28607Y-27825D01*
X28493Y-27939D01*
X28442Y-28061D01*
X28392Y-27939D01*
X28278Y-27825D01*
X28129Y-27764D01*
X27968Y-27763D01*
X27819Y-27825D01*
X27705Y-27939D01*
X27655Y-28060D01*
X27605Y-27939D01*
X27491Y-27825D01*
X27342Y-27764D01*
X27181Y-27763D01*
X27032Y-27825D01*
X26918Y-27939D01*
X26867Y-28061D01*
X26817Y-27939D01*
X26703Y-27825D01*
X26554Y-27764D01*
X26393Y-27763D01*
X26244Y-27825D01*
X26130Y-27939D01*
X26080Y-28060D01*
X26030Y-27939D01*
X25916Y-27825D01*
X25767Y-27764D01*
X25606Y-27763D01*
X25457Y-27825D01*
X25343Y-27939D01*
X25293Y-28060D01*
X25243Y-27939D01*
X25129Y-27825D01*
X24980Y-27764D01*
X24819Y-27763D01*
X24670Y-27825D01*
X24556Y-27939D01*
X24505Y-28061D01*
X24455Y-27939D01*
X24341Y-27825D01*
X24192Y-27764D01*
X24031Y-27763D01*
X23882Y-27825D01*
X23768Y-27939D01*
X23718Y-28060D01*
X23668Y-27939D01*
X23554Y-27825D01*
X23405Y-27764D01*
X23244Y-27763D01*
X23095Y-27825D01*
X22981Y-27939D01*
X22930Y-28061D01*
X22880Y-27939D01*
X22766Y-27825D01*
X22617Y-27764D01*
X22456Y-27763D01*
X22307Y-27825D01*
X22193Y-27939D01*
X22143Y-28060D01*
X22093Y-27939D01*
X21979Y-27825D01*
X21830Y-27764D01*
X21669Y-27763D01*
X21520Y-27825D01*
X21406Y-27939D01*
X21345Y-28088D01*
X21344Y-28249D01*
X21406Y-28398D01*
X21520Y-28512D01*
X21669Y-28573D01*
X21830Y-28574D01*
X21979Y-28512D01*
X22093Y-28398D01*
X22143Y-28277D01*
X22193Y-28398D01*
X22307Y-28512D01*
X22367Y-28536D01*
X22367Y-29397D01*
X22334Y-29397D01*
X22334Y-29266D01*
X22314Y-29218D01*
X22277Y-29181D01*
X22229Y-29162D01*
X22178Y-29161D01*
X21828Y-29161D01*
X21780Y-29181D01*
X21743Y-29218D01*
X21724Y-29266D01*
X21723Y-29317D01*
X21723Y-29867D01*
X21743Y-29915D01*
X21780Y-29952D01*
X21828Y-29971D01*
X21879Y-29972D01*
X22229Y-29972D01*
X22277Y-29952D01*
X22314Y-29915D01*
X22333Y-29867D01*
X22334Y-29816D01*
X22334Y-29737D01*
X22665Y-29737D01*
X22665Y-29867D01*
X22685Y-29915D01*
X22722Y-29952D01*
X22770Y-29971D01*
X22821Y-29972D01*
X23171Y-29972D01*
X23219Y-29952D01*
X23256Y-29915D01*
X23275Y-29867D01*
X23276Y-29816D01*
X23276Y-29266D01*
X23256Y-29218D01*
X23219Y-29181D01*
X23171Y-29162D01*
X23120Y-29161D01*
X22770Y-29161D01*
X22722Y-29181D01*
X22707Y-29197D01*
X22707Y-28536D01*
X22766Y-28512D01*
X22880Y-28398D01*
X22931Y-28276D01*
X22981Y-28398D01*
X23095Y-28512D01*
X23244Y-28573D01*
X23405Y-28574D01*
X23554Y-28512D01*
X23668Y-28398D01*
X23718Y-28277D01*
X23768Y-28398D01*
X23882Y-28512D01*
X24031Y-28573D01*
X24192Y-28574D01*
X24341Y-28512D01*
X24455Y-28398D01*
X24506Y-28276D01*
X24556Y-28398D01*
X24670Y-28512D01*
X24819Y-28573D01*
X24980Y-28574D01*
X25129Y-28512D01*
X25243Y-28398D01*
X25293Y-28277D01*
X25343Y-28398D01*
X25457Y-28512D01*
X25606Y-28573D01*
X25767Y-28574D01*
X25916Y-28512D01*
X26030Y-28398D01*
X26080Y-28277D01*
X26130Y-28398D01*
X26244Y-28512D01*
X26287Y-28529D01*
X26287Y-28866D01*
X26256Y-28866D01*
X26208Y-28886D01*
X26171Y-28923D01*
X26152Y-28971D01*
X26151Y-29022D01*
X26151Y-29258D01*
X26157Y-29271D01*
X26152Y-29285D01*
X26151Y-29336D01*
X26151Y-29572D01*
X26171Y-29620D01*
X26208Y-29657D01*
X26256Y-29676D01*
X26287Y-29677D01*
X26287Y-30650D01*
X26287Y-32795D01*
X26287Y-33482D01*
X26279Y-33490D01*
X25993Y-33490D01*
X25993Y-29521D01*
X25993Y-29022D01*
X25992Y-28971D01*
X25973Y-28923D01*
X25936Y-28886D01*
X25888Y-28866D01*
X25808Y-28867D01*
X25775Y-28899D01*
X25775Y-29134D01*
X25960Y-29134D01*
X25993Y-29102D01*
X25993Y-29022D01*
X25993Y-29521D01*
X25993Y-29442D01*
X25960Y-29409D01*
X25775Y-29409D01*
X25775Y-29644D01*
X25808Y-29677D01*
X25888Y-29677D01*
X25936Y-29657D01*
X25973Y-29620D01*
X25992Y-29572D01*
X25993Y-29521D01*
X25993Y-33490D01*
X25969Y-33490D01*
X25970Y-33454D01*
X25970Y-32014D01*
X25950Y-31966D01*
X25913Y-31929D01*
X25865Y-31910D01*
X25814Y-31909D01*
X25600Y-31909D01*
X25600Y-29644D01*
X25600Y-29409D01*
X25600Y-29134D01*
X25600Y-28899D01*
X25568Y-28867D01*
X25487Y-28866D01*
X25439Y-28886D01*
X25402Y-28923D01*
X25383Y-28971D01*
X25382Y-29022D01*
X25383Y-29102D01*
X25415Y-29134D01*
X25600Y-29134D01*
X25600Y-29409D01*
X25415Y-29409D01*
X25383Y-29442D01*
X25382Y-29521D01*
X25383Y-29572D01*
X25402Y-29620D01*
X25439Y-29657D01*
X25487Y-29677D01*
X25568Y-29677D01*
X25600Y-29644D01*
X25600Y-31909D01*
X25014Y-31909D01*
X24966Y-31929D01*
X24929Y-31966D01*
X24910Y-32014D01*
X24909Y-32065D01*
X24909Y-33490D01*
X24026Y-33490D01*
X24026Y-29816D01*
X24026Y-29266D01*
X24006Y-29218D01*
X23969Y-29181D01*
X23921Y-29162D01*
X23870Y-29161D01*
X23520Y-29161D01*
X23472Y-29181D01*
X23435Y-29218D01*
X23416Y-29266D01*
X23415Y-29317D01*
X23415Y-29867D01*
X23435Y-29915D01*
X23472Y-29952D01*
X23520Y-29971D01*
X23551Y-29972D01*
X23551Y-31568D01*
X23429Y-31690D01*
X23370Y-31690D01*
X23370Y-31634D01*
X23350Y-31586D01*
X23313Y-31549D01*
X23265Y-31530D01*
X23214Y-31529D01*
X22414Y-31529D01*
X22366Y-31549D01*
X22329Y-31586D01*
X22310Y-31634D01*
X22309Y-31685D01*
X22309Y-31690D01*
X22215Y-31690D01*
X22215Y-31444D01*
X22195Y-31396D01*
X22158Y-31359D01*
X22110Y-31340D01*
X22059Y-31339D01*
X21584Y-31339D01*
X21584Y-29816D01*
X21584Y-29317D01*
X21583Y-29266D01*
X21564Y-29218D01*
X21527Y-29181D01*
X21479Y-29161D01*
X21399Y-29162D01*
X21366Y-29194D01*
X21366Y-29429D01*
X21551Y-29429D01*
X21584Y-29397D01*
X21584Y-29317D01*
X21584Y-29816D01*
X21584Y-29737D01*
X21551Y-29704D01*
X21366Y-29704D01*
X21366Y-29939D01*
X21399Y-29972D01*
X21479Y-29972D01*
X21527Y-29952D01*
X21564Y-29915D01*
X21583Y-29867D01*
X21584Y-29816D01*
X21584Y-31339D01*
X21509Y-31339D01*
X21461Y-31359D01*
X21424Y-31396D01*
X21405Y-31444D01*
X21404Y-31475D01*
X21225Y-31475D01*
X21191Y-31481D01*
X21191Y-29939D01*
X21191Y-29704D01*
X21191Y-29429D01*
X21191Y-29194D01*
X21159Y-29162D01*
X21078Y-29161D01*
X21030Y-29181D01*
X20993Y-29218D01*
X20974Y-29266D01*
X20973Y-29317D01*
X20974Y-29397D01*
X21006Y-29429D01*
X21191Y-29429D01*
X21191Y-29704D01*
X21006Y-29704D01*
X20974Y-29737D01*
X20973Y-29816D01*
X20974Y-29867D01*
X20993Y-29915D01*
X21030Y-29952D01*
X21078Y-29972D01*
X21159Y-29972D01*
X21191Y-29939D01*
X21191Y-31481D01*
X21159Y-31487D01*
X21104Y-31524D01*
X21104Y-31524D01*
X20749Y-31879D01*
X20712Y-31934D01*
X20700Y-32000D01*
X20700Y-32120D01*
X20700Y-32269D01*
X20673Y-32280D01*
X20580Y-32372D01*
X20530Y-32494D01*
X20529Y-32625D01*
X20580Y-32746D01*
X20672Y-32839D01*
X20794Y-32889D01*
X20925Y-32890D01*
X21046Y-32839D01*
X21139Y-32747D01*
X21189Y-32625D01*
X21190Y-32494D01*
X21139Y-32373D01*
X21047Y-32280D01*
X21040Y-32277D01*
X21040Y-32120D01*
X21040Y-32070D01*
X21295Y-31815D01*
X21404Y-31815D01*
X21404Y-31845D01*
X21424Y-31893D01*
X21461Y-31930D01*
X21509Y-31949D01*
X21560Y-31950D01*
X21874Y-31950D01*
X21904Y-31980D01*
X21959Y-32017D01*
X21959Y-32017D01*
X22025Y-32030D01*
X22309Y-32030D01*
X22309Y-32085D01*
X22329Y-32133D01*
X22366Y-32170D01*
X22414Y-32189D01*
X22465Y-32190D01*
X23265Y-32190D01*
X23313Y-32170D01*
X23350Y-32133D01*
X23369Y-32085D01*
X23370Y-32034D01*
X23370Y-32030D01*
X23500Y-32030D01*
X23565Y-32017D01*
X23565Y-32017D01*
X23620Y-31980D01*
X23841Y-31759D01*
X23841Y-31759D01*
X23841Y-31759D01*
X23878Y-31704D01*
X23891Y-31639D01*
X23891Y-29972D01*
X23921Y-29972D01*
X23969Y-29952D01*
X24006Y-29915D01*
X24025Y-29867D01*
X24026Y-29816D01*
X24026Y-33490D01*
X23370Y-33490D01*
X23370Y-33434D01*
X23370Y-32985D01*
X23370Y-32534D01*
X23350Y-32486D01*
X23313Y-32449D01*
X23265Y-32430D01*
X23214Y-32429D01*
X23072Y-32430D01*
X23040Y-32462D01*
X23040Y-32660D01*
X23337Y-32660D01*
X23370Y-32627D01*
X23370Y-32534D01*
X23370Y-32985D01*
X23370Y-32892D01*
X23337Y-32860D01*
X23040Y-32860D01*
X23040Y-33057D01*
X23072Y-33090D01*
X23214Y-33090D01*
X23265Y-33089D01*
X23313Y-33070D01*
X23350Y-33033D01*
X23370Y-32985D01*
X23370Y-33434D01*
X23350Y-33386D01*
X23313Y-33349D01*
X23265Y-33330D01*
X23214Y-33329D01*
X22640Y-33329D01*
X22640Y-33057D01*
X22640Y-32860D01*
X22640Y-32660D01*
X22640Y-32462D01*
X22607Y-32430D01*
X22465Y-32429D01*
X22414Y-32430D01*
X22366Y-32449D01*
X22329Y-32486D01*
X22309Y-32534D01*
X22310Y-32627D01*
X22342Y-32660D01*
X22640Y-32660D01*
X22640Y-32860D01*
X22342Y-32860D01*
X22310Y-32892D01*
X22309Y-32985D01*
X22329Y-33033D01*
X22366Y-33070D01*
X22414Y-33089D01*
X22465Y-33090D01*
X22607Y-33090D01*
X22640Y-33057D01*
X22640Y-33329D01*
X22414Y-33329D01*
X22366Y-33349D01*
X22329Y-33386D01*
X22310Y-33434D01*
X22309Y-33485D01*
X22309Y-33490D01*
X22250Y-33490D01*
X22250Y-33480D01*
X22215Y-33480D01*
X22215Y-32595D01*
X22215Y-32194D01*
X22195Y-32146D01*
X22158Y-32109D01*
X22110Y-32090D01*
X22059Y-32089D01*
X21980Y-32090D01*
X21947Y-32122D01*
X21947Y-32307D01*
X22182Y-32307D01*
X22215Y-32275D01*
X22215Y-32194D01*
X22215Y-32595D01*
X22215Y-32515D01*
X22182Y-32482D01*
X21947Y-32482D01*
X21947Y-32667D01*
X21980Y-32700D01*
X22059Y-32700D01*
X22110Y-32699D01*
X22158Y-32680D01*
X22195Y-32643D01*
X22215Y-32595D01*
X22215Y-33480D01*
X22205Y-33480D01*
X22205Y-33104D01*
X22185Y-33056D01*
X22148Y-33019D01*
X22100Y-33000D01*
X22049Y-32999D01*
X21970Y-33000D01*
X21937Y-33032D01*
X21937Y-33217D01*
X22172Y-33217D01*
X22205Y-33185D01*
X22205Y-33104D01*
X22205Y-33480D01*
X22205Y-33480D01*
X22205Y-33425D01*
X22172Y-33392D01*
X21937Y-33392D01*
X21937Y-33480D01*
X21672Y-33480D01*
X21672Y-32667D01*
X21672Y-32482D01*
X21672Y-32307D01*
X21672Y-32122D01*
X21640Y-32090D01*
X21560Y-32089D01*
X21509Y-32090D01*
X21461Y-32109D01*
X21424Y-32146D01*
X21404Y-32194D01*
X21405Y-32275D01*
X21437Y-32307D01*
X21672Y-32307D01*
X21672Y-32482D01*
X21437Y-32482D01*
X21405Y-32515D01*
X21404Y-32595D01*
X21424Y-32643D01*
X21461Y-32680D01*
X21509Y-32699D01*
X21560Y-32700D01*
X21640Y-32700D01*
X21672Y-32667D01*
X21672Y-33480D01*
X21662Y-33480D01*
X21662Y-33392D01*
X21662Y-33217D01*
X21662Y-33032D01*
X21630Y-33000D01*
X21550Y-32999D01*
X21499Y-33000D01*
X21451Y-33019D01*
X21414Y-33056D01*
X21394Y-33104D01*
X21395Y-33185D01*
X21427Y-33217D01*
X21662Y-33217D01*
X21662Y-33392D01*
X21427Y-33392D01*
X21395Y-33425D01*
X21394Y-33480D01*
X21349Y-33480D01*
X21349Y-33610D01*
X21524Y-33610D01*
X21550Y-33610D01*
X21630Y-33610D01*
X21662Y-33610D01*
X21672Y-33610D01*
X21779Y-33610D01*
X21679Y-33709D01*
X21672Y-33720D01*
X21662Y-33735D01*
X21652Y-33749D01*
X21499Y-33749D01*
X21451Y-33769D01*
X21414Y-33806D01*
X21395Y-33854D01*
X21394Y-33905D01*
X21394Y-34255D01*
X21414Y-34303D01*
X21451Y-34340D01*
X21499Y-34359D01*
X21550Y-34360D01*
X21705Y-34360D01*
X21705Y-35094D01*
X21674Y-35094D01*
X21626Y-35114D01*
X21589Y-35151D01*
X21570Y-35199D01*
X21569Y-35250D01*
X21569Y-35800D01*
X21589Y-35848D01*
X21626Y-35885D01*
X21674Y-35904D01*
X21705Y-35905D01*
X21705Y-36425D01*
X21669Y-36425D01*
X21520Y-36487D01*
X21430Y-36578D01*
X21430Y-35749D01*
X21430Y-35250D01*
X21429Y-35199D01*
X21410Y-35151D01*
X21373Y-35114D01*
X21325Y-35094D01*
X21245Y-35095D01*
X21212Y-35127D01*
X21212Y-35362D01*
X21397Y-35362D01*
X21430Y-35330D01*
X21430Y-35250D01*
X21430Y-35749D01*
X21430Y-35670D01*
X21397Y-35637D01*
X21212Y-35637D01*
X21212Y-35872D01*
X21245Y-35905D01*
X21325Y-35905D01*
X21373Y-35885D01*
X21410Y-35848D01*
X21429Y-35800D01*
X21430Y-35749D01*
X21430Y-36578D01*
X21406Y-36601D01*
X21345Y-36750D01*
X21344Y-36911D01*
X21406Y-37060D01*
X21520Y-37174D01*
X21669Y-37235D01*
X21830Y-37236D01*
X21979Y-37174D01*
X22093Y-37060D01*
X22143Y-36939D01*
X22193Y-37060D01*
X22307Y-37174D01*
X22456Y-37235D01*
X22617Y-37236D01*
X22766Y-37174D01*
X22880Y-37060D01*
X22931Y-36938D01*
X22981Y-37060D01*
X23095Y-37174D01*
X23244Y-37235D01*
X23405Y-37236D01*
X23554Y-37174D01*
X23668Y-37060D01*
X23718Y-36939D01*
X23768Y-37060D01*
X23882Y-37174D01*
X24031Y-37235D01*
X24192Y-37236D01*
X24341Y-37174D01*
X24455Y-37060D01*
X24506Y-36938D01*
X24556Y-37060D01*
X24670Y-37174D01*
X24819Y-37235D01*
X24980Y-37236D01*
X25129Y-37174D01*
X25243Y-37060D01*
X25293Y-36939D01*
X25343Y-37060D01*
X25457Y-37174D01*
X25606Y-37235D01*
X25767Y-37236D01*
X25916Y-37174D01*
X26030Y-37060D01*
X26080Y-36939D01*
X26130Y-37060D01*
X26244Y-37174D01*
X26393Y-37235D01*
X26554Y-37236D01*
X26703Y-37174D01*
X26817Y-37060D01*
X26868Y-36938D01*
X26918Y-37060D01*
X27032Y-37174D01*
X27181Y-37235D01*
X27342Y-37236D01*
X27491Y-37174D01*
X27605Y-37060D01*
X27655Y-36939D01*
X27705Y-37060D01*
X27819Y-37174D01*
X27968Y-37235D01*
X28129Y-37236D01*
X28278Y-37174D01*
X28392Y-37060D01*
X28440Y-36944D01*
X28441Y-36948D01*
X28488Y-36984D01*
X28642Y-36831D01*
X28488Y-36677D01*
X28441Y-36713D01*
X28440Y-36718D01*
X28392Y-36601D01*
X28278Y-36487D01*
X28129Y-36426D01*
X27968Y-36425D01*
X27819Y-36487D01*
X27705Y-36601D01*
X27655Y-36722D01*
X27605Y-36601D01*
X27491Y-36487D01*
X27342Y-36426D01*
X27181Y-36425D01*
X27032Y-36487D01*
X26918Y-36601D01*
X26867Y-36723D01*
X26817Y-36601D01*
X26703Y-36487D01*
X26554Y-36426D01*
X26393Y-36425D01*
X26244Y-36487D01*
X26130Y-36601D01*
X26080Y-36722D01*
X26030Y-36601D01*
X25916Y-36487D01*
X25767Y-36426D01*
X25606Y-36425D01*
X25457Y-36487D01*
X25343Y-36601D01*
X25293Y-36722D01*
X25243Y-36601D01*
X25129Y-36487D01*
X24980Y-36426D01*
X24819Y-36425D01*
X24670Y-36487D01*
X24556Y-36601D01*
X24505Y-36723D01*
X24455Y-36601D01*
X24341Y-36487D01*
X24192Y-36426D01*
X24031Y-36425D01*
X23882Y-36487D01*
X23768Y-36601D01*
X23718Y-36722D01*
X23668Y-36601D01*
X23554Y-36487D01*
X23405Y-36426D01*
X23244Y-36425D01*
X23095Y-36487D01*
X22981Y-36601D01*
X22930Y-36723D01*
X22880Y-36601D01*
X22766Y-36487D01*
X22617Y-36426D01*
X22456Y-36425D01*
X22307Y-36487D01*
X22193Y-36601D01*
X22143Y-36722D01*
X22093Y-36601D01*
X22045Y-36553D01*
X22045Y-35905D01*
X22075Y-35905D01*
X22123Y-35885D01*
X22160Y-35848D01*
X22179Y-35800D01*
X22180Y-35749D01*
X22180Y-35199D01*
X22160Y-35151D01*
X22123Y-35114D01*
X22075Y-35095D01*
X22045Y-35094D01*
X22045Y-34360D01*
X22100Y-34360D01*
X22148Y-34340D01*
X22185Y-34303D01*
X22204Y-34255D01*
X22205Y-34204D01*
X22205Y-33854D01*
X22195Y-33830D01*
X22309Y-33830D01*
X22309Y-33885D01*
X22329Y-33933D01*
X22366Y-33970D01*
X22414Y-33989D01*
X22465Y-33990D01*
X23265Y-33990D01*
X23313Y-33970D01*
X23350Y-33933D01*
X23369Y-33885D01*
X23370Y-33834D01*
X23370Y-33830D01*
X26350Y-33830D01*
X26415Y-33817D01*
X26415Y-33817D01*
X26470Y-33780D01*
X26577Y-33673D01*
X26577Y-33673D01*
X26577Y-33673D01*
X26614Y-33618D01*
X26627Y-33553D01*
X26626Y-33553D01*
X26627Y-33553D01*
X26627Y-33205D01*
X26691Y-33270D01*
X26691Y-33270D01*
X26746Y-33307D01*
X26812Y-33320D01*
X26917Y-33320D01*
X26920Y-33322D01*
X26784Y-33322D01*
X26736Y-33342D01*
X26699Y-33379D01*
X26680Y-33427D01*
X26679Y-33478D01*
X26679Y-33872D01*
X26699Y-33920D01*
X26736Y-33957D01*
X26778Y-33974D01*
X26778Y-34271D01*
X26790Y-34336D01*
X26827Y-34391D01*
X27655Y-35219D01*
X27655Y-35219D01*
X27710Y-35256D01*
X27775Y-35269D01*
X27775Y-35268D01*
X27776Y-35269D01*
X28019Y-35269D01*
X28019Y-35299D01*
X28039Y-35347D01*
X28076Y-35384D01*
X28124Y-35403D01*
X28175Y-35404D01*
X28725Y-35404D01*
X28773Y-35384D01*
X28810Y-35347D01*
X28829Y-35299D01*
X28830Y-35269D01*
X29751Y-35269D01*
X29751Y-35299D01*
X29771Y-35347D01*
X29808Y-35384D01*
X29856Y-35403D01*
X29907Y-35404D01*
X30457Y-35404D01*
X30505Y-35384D01*
X30542Y-35347D01*
X30561Y-35299D01*
X30562Y-35269D01*
X30618Y-35269D01*
X30618Y-35299D01*
X30638Y-35347D01*
X30675Y-35384D01*
X30723Y-35403D01*
X30774Y-35404D01*
X31324Y-35404D01*
X31372Y-35384D01*
X31409Y-35347D01*
X31428Y-35299D01*
X31429Y-35269D01*
X31484Y-35269D01*
X31484Y-35299D01*
X31504Y-35347D01*
X31541Y-35384D01*
X31589Y-35403D01*
X31640Y-35404D01*
X32190Y-35404D01*
X32238Y-35384D01*
X32275Y-35347D01*
X32294Y-35299D01*
X32295Y-35248D01*
X32295Y-38950D01*
X29247Y-38950D01*
X29247Y-36788D01*
X29232Y-36713D01*
X29185Y-36677D01*
X29031Y-36831D01*
X29185Y-36984D01*
X29232Y-36948D01*
X29247Y-36788D01*
X29247Y-38950D01*
X28990Y-38950D01*
X28990Y-37179D01*
X28990Y-36482D01*
X28954Y-36435D01*
X28794Y-36420D01*
X28719Y-36435D01*
X28683Y-36482D01*
X28837Y-36636D01*
X28990Y-36482D01*
X28990Y-37179D01*
X28837Y-37025D01*
X28683Y-37179D01*
X28719Y-37226D01*
X28879Y-37241D01*
X28954Y-37226D01*
X28990Y-37179D01*
X28990Y-38950D01*
X21037Y-38950D01*
X21037Y-35872D01*
X21037Y-35637D01*
X21037Y-35362D01*
X21037Y-35127D01*
X21005Y-35095D01*
X20924Y-35094D01*
X20876Y-35114D01*
X20839Y-35151D01*
X20820Y-35199D01*
X20819Y-35250D01*
X20820Y-35330D01*
X20852Y-35362D01*
X21037Y-35362D01*
X21037Y-35637D01*
X20852Y-35637D01*
X20820Y-35670D01*
X20819Y-35749D01*
X20820Y-35800D01*
X20839Y-35848D01*
X20876Y-35885D01*
X20924Y-35905D01*
X21005Y-35905D01*
X21037Y-35872D01*
X21037Y-38950D01*
X17089Y-38950D01*
X17089Y-33378D01*
X17027Y-33067D01*
X16918Y-32884D01*
X16900Y-32903D01*
X16900Y-30422D01*
X16687Y-29907D01*
X16294Y-29513D01*
X15779Y-29300D01*
X15222Y-29299D01*
X14707Y-29512D01*
X14313Y-29905D01*
X14100Y-30420D01*
X14099Y-30977D01*
X14312Y-31492D01*
X14705Y-31886D01*
X15220Y-32099D01*
X15434Y-32099D01*
X15234Y-32139D01*
X15051Y-32248D01*
X15667Y-32863D01*
X16282Y-32248D01*
X16099Y-32139D01*
X15746Y-32100D01*
X15777Y-32100D01*
X16292Y-31887D01*
X16686Y-31494D01*
X16899Y-30979D01*
X16900Y-30422D01*
X16900Y-32903D01*
X16303Y-33500D01*
X16918Y-34115D01*
X17027Y-33932D01*
X17089Y-33378D01*
X17089Y-38950D01*
X16282Y-38950D01*
X16282Y-34751D01*
X15667Y-34136D01*
X15051Y-34751D01*
X15234Y-34860D01*
X15788Y-34922D01*
X16099Y-34860D01*
X16282Y-34751D01*
X16282Y-38950D01*
X15030Y-38950D01*
X15030Y-33500D01*
X14415Y-32884D01*
X14306Y-33067D01*
X14244Y-33621D01*
X14306Y-33932D01*
X14415Y-34115D01*
X15030Y-33500D01*
X15030Y-38950D01*
X13930Y-38950D01*
X13930Y-37315D01*
X13930Y-26815D01*
X13788Y-26473D01*
X13527Y-26212D01*
X13185Y-26070D01*
X12815Y-26069D01*
X12473Y-26211D01*
X12212Y-26472D01*
X12070Y-26814D01*
X12069Y-27184D01*
X12211Y-27526D01*
X12472Y-27787D01*
X12814Y-27929D01*
X13184Y-27930D01*
X13526Y-27788D01*
X13787Y-27527D01*
X13929Y-27185D01*
X13930Y-26815D01*
X13930Y-37315D01*
X13788Y-36973D01*
X13527Y-36712D01*
X13185Y-36570D01*
X12815Y-36569D01*
X12473Y-36711D01*
X12212Y-36972D01*
X12070Y-37314D01*
X12069Y-37684D01*
X12211Y-38026D01*
X12472Y-38287D01*
X12814Y-38429D01*
X13184Y-38430D01*
X13526Y-38288D01*
X13787Y-38027D01*
X13929Y-37685D01*
X13930Y-37315D01*
X13930Y-38950D01*
X11800Y-38950D01*
X11800Y-25800D01*
X34700Y-25800D01*
X34700Y-27594D01*
X33785Y-27594D01*
X33737Y-27614D01*
X33700Y-27651D01*
X33681Y-27699D01*
X33681Y-27750D01*
X33681Y-27930D01*
X32963Y-27930D01*
X32963Y-27809D01*
X32943Y-27761D01*
X32906Y-27724D01*
X32858Y-27705D01*
X32807Y-27704D01*
X32457Y-27704D01*
X32409Y-27724D01*
X32372Y-27761D01*
X32353Y-27809D01*
X32352Y-27860D01*
X32352Y-28410D01*
X32372Y-28458D01*
X32409Y-28495D01*
X32457Y-28514D01*
X32508Y-28515D01*
X32858Y-28515D01*
X32906Y-28495D01*
X32943Y-28458D01*
X32962Y-28410D01*
X32963Y-28359D01*
X32963Y-28270D01*
X33681Y-28270D01*
X33681Y-28400D01*
X33700Y-28448D01*
X33737Y-28485D01*
X33785Y-28504D01*
X33836Y-28505D01*
X34700Y-28505D01*
X34700Y-31405D01*
X34111Y-31405D01*
X34111Y-30472D01*
X34111Y-30212D01*
X34111Y-29887D01*
X34111Y-29627D01*
X34078Y-29595D01*
X33836Y-29594D01*
X33785Y-29595D01*
X33737Y-29614D01*
X33700Y-29651D01*
X33681Y-29699D01*
X33681Y-29855D01*
X33713Y-29887D01*
X34111Y-29887D01*
X34111Y-30212D01*
X33713Y-30212D01*
X33681Y-30245D01*
X33681Y-30400D01*
X33700Y-30448D01*
X33737Y-30485D01*
X33785Y-30504D01*
X33836Y-30505D01*
X34078Y-30505D01*
X34111Y-30472D01*
X34111Y-31405D01*
X32905Y-31405D01*
X32876Y-31375D01*
X32876Y-31375D01*
X32078Y-30577D01*
X32078Y-28515D01*
X32108Y-28515D01*
X32156Y-28495D01*
X32193Y-28458D01*
X32212Y-28410D01*
X32213Y-28359D01*
X32213Y-27809D01*
X32193Y-27761D01*
X32156Y-27724D01*
X32108Y-27705D01*
X32057Y-27704D01*
X31707Y-27704D01*
X31659Y-27724D01*
X31622Y-27761D01*
X31603Y-27809D01*
X31602Y-27860D01*
X31602Y-28410D01*
X31622Y-28458D01*
X31659Y-28495D01*
X31707Y-28514D01*
X31738Y-28515D01*
X31738Y-30648D01*
X31750Y-30713D01*
X31787Y-30768D01*
X32635Y-31616D01*
X32635Y-31616D01*
X32665Y-31645D01*
X32665Y-34043D01*
X32534Y-34043D01*
X32486Y-34063D01*
X32449Y-34100D01*
X32430Y-34148D01*
X32429Y-34199D01*
X32429Y-34549D01*
X32449Y-34597D01*
X32486Y-34634D01*
X32534Y-34653D01*
X32585Y-34654D01*
X33135Y-34654D01*
X33183Y-34634D01*
X33220Y-34597D01*
X33239Y-34549D01*
X33240Y-34498D01*
X33240Y-34148D01*
X33220Y-34100D01*
X33183Y-34063D01*
X33135Y-34044D01*
X33084Y-34043D01*
X33005Y-34043D01*
X33005Y-31745D01*
X34628Y-31745D01*
X34505Y-31795D01*
X34402Y-31898D01*
X34347Y-32032D01*
X34346Y-32178D01*
X34402Y-32313D01*
X34505Y-32416D01*
X34639Y-32471D01*
X34700Y-32471D01*
X34700Y-32527D01*
X34640Y-32527D01*
X34505Y-32583D01*
X34402Y-32686D01*
X34347Y-32820D01*
X34346Y-32966D01*
X34402Y-33101D01*
X34505Y-33204D01*
X34639Y-33259D01*
X34700Y-33259D01*
X34700Y-34534D01*
X34090Y-34534D01*
X34090Y-32404D01*
X34017Y-32228D01*
X33882Y-32093D01*
X33705Y-32020D01*
X33514Y-32019D01*
X33338Y-32092D01*
X33203Y-32227D01*
X33130Y-32404D01*
X33129Y-32595D01*
X33202Y-32771D01*
X33337Y-32906D01*
X33514Y-32979D01*
X33705Y-32980D01*
X33881Y-32907D01*
X34016Y-32772D01*
X34089Y-32595D01*
X34090Y-32404D01*
X34090Y-34534D01*
X33785Y-34534D01*
X33737Y-34554D01*
X33700Y-34591D01*
X33681Y-34639D01*
X33681Y-34690D01*
X33681Y-34930D01*
X33240Y-34930D01*
X33240Y-34898D01*
X33220Y-34850D01*
X33183Y-34813D01*
X33135Y-34794D01*
X33084Y-34793D01*
X32534Y-34793D01*
X32486Y-34813D01*
X32449Y-34850D01*
X32430Y-34898D01*
X32429Y-34949D01*
X32429Y-35299D01*
X32449Y-35347D01*
X32486Y-35384D01*
X32534Y-35403D01*
X32585Y-35404D01*
X33135Y-35404D01*
X33183Y-35384D01*
X33220Y-35347D01*
X33239Y-35299D01*
X33240Y-35270D01*
X33681Y-35270D01*
X33681Y-35340D01*
X33700Y-35388D01*
X33737Y-35425D01*
X33785Y-35444D01*
X33836Y-35445D01*
X34700Y-35445D01*
X34700Y-38950D01*
X34700Y-38950D01*
G37*
G54D29*
X34700Y-38950D02*
X34111Y-38950D01*
X34111Y-37412D01*
X34111Y-37152D01*
X34111Y-36827D01*
X34111Y-36567D01*
X34078Y-36535D01*
X33836Y-36534D01*
X33785Y-36535D01*
X33737Y-36554D01*
X33700Y-36591D01*
X33681Y-36639D01*
X33681Y-36795D01*
X33713Y-36827D01*
X34111Y-36827D01*
X34111Y-37152D01*
X33713Y-37152D01*
X33681Y-37185D01*
X33681Y-37340D01*
X33700Y-37388D01*
X33737Y-37425D01*
X33785Y-37444D01*
X33836Y-37445D01*
X34078Y-37445D01*
X34111Y-37412D01*
X34111Y-38950D01*
X32374Y-38950D01*
X32374Y-33288D01*
X32374Y-32659D01*
X32374Y-32222D01*
X32374Y-31541D01*
X32354Y-31493D01*
X32318Y-31457D01*
X32270Y-31437D01*
X32218Y-31437D01*
X32099Y-31437D01*
X32067Y-31470D01*
X32067Y-31724D01*
X32342Y-31724D01*
X32374Y-31692D01*
X32374Y-31541D01*
X32374Y-32222D01*
X32374Y-32071D01*
X32342Y-32039D01*
X32067Y-32039D01*
X32067Y-32294D01*
X32099Y-32326D01*
X32218Y-32326D01*
X32270Y-32326D01*
X32318Y-32306D01*
X32354Y-32270D01*
X32374Y-32222D01*
X32374Y-32659D01*
X32354Y-32611D01*
X32318Y-32575D01*
X32270Y-32555D01*
X32218Y-32555D01*
X31712Y-32555D01*
X31712Y-32294D01*
X31712Y-32039D01*
X31712Y-31724D01*
X31712Y-31470D01*
X31680Y-31437D01*
X31561Y-31437D01*
X31509Y-31437D01*
X31461Y-31457D01*
X31425Y-31493D01*
X31405Y-31541D01*
X31405Y-31692D01*
X31438Y-31724D01*
X31712Y-31724D01*
X31712Y-32039D01*
X31438Y-32039D01*
X31405Y-32071D01*
X31405Y-32222D01*
X31425Y-32270D01*
X31461Y-32306D01*
X31509Y-32326D01*
X31561Y-32326D01*
X31680Y-32326D01*
X31712Y-32294D01*
X31712Y-32555D01*
X31509Y-32555D01*
X31461Y-32575D01*
X31425Y-32611D01*
X31405Y-32659D01*
X31405Y-32711D01*
X31405Y-33340D01*
X31425Y-33388D01*
X31461Y-33424D01*
X31509Y-33444D01*
X31561Y-33444D01*
X31720Y-33444D01*
X31720Y-34043D01*
X31589Y-34043D01*
X31541Y-34063D01*
X31504Y-34100D01*
X31485Y-34148D01*
X31484Y-34179D01*
X31429Y-34179D01*
X31429Y-34148D01*
X31409Y-34100D01*
X31372Y-34063D01*
X31324Y-34044D01*
X31273Y-34043D01*
X30723Y-34043D01*
X30675Y-34063D01*
X30638Y-34100D01*
X30619Y-34148D01*
X30618Y-34199D01*
X30618Y-34549D01*
X30638Y-34597D01*
X30675Y-34634D01*
X30723Y-34653D01*
X30774Y-34654D01*
X31324Y-34654D01*
X31372Y-34634D01*
X31409Y-34597D01*
X31428Y-34549D01*
X31429Y-34519D01*
X31484Y-34519D01*
X31484Y-34549D01*
X31504Y-34597D01*
X31541Y-34634D01*
X31589Y-34653D01*
X31640Y-34654D01*
X32190Y-34654D01*
X32238Y-34634D01*
X32275Y-34597D01*
X32294Y-34549D01*
X32295Y-34498D01*
X32295Y-34148D01*
X32275Y-34100D01*
X32238Y-34063D01*
X32190Y-34044D01*
X32139Y-34043D01*
X32060Y-34043D01*
X32060Y-33444D01*
X32270Y-33444D01*
X32318Y-33424D01*
X32354Y-33388D01*
X32374Y-33340D01*
X32374Y-33288D01*
X32374Y-38950D01*
X32295Y-38950D01*
X32295Y-35248D01*
X32295Y-34898D01*
X32275Y-34850D01*
X32238Y-34813D01*
X32190Y-34794D01*
X32139Y-34793D01*
X31589Y-34793D01*
X31541Y-34813D01*
X31504Y-34850D01*
X31485Y-34898D01*
X31484Y-34929D01*
X31429Y-34929D01*
X31429Y-34898D01*
X31409Y-34850D01*
X31372Y-34813D01*
X31324Y-34794D01*
X31273Y-34793D01*
X30723Y-34793D01*
X30675Y-34813D01*
X30638Y-34850D01*
X30619Y-34898D01*
X30618Y-34929D01*
X30562Y-34929D01*
X30562Y-34898D01*
X30562Y-34498D01*
X30562Y-34148D01*
X30542Y-34100D01*
X30505Y-34063D01*
X30457Y-34044D01*
X30406Y-34043D01*
X30327Y-34043D01*
X30327Y-33149D01*
X30314Y-33083D01*
X30277Y-33028D01*
X30277Y-33028D01*
X30069Y-32820D01*
X30014Y-32783D01*
X29949Y-32771D01*
X29934Y-32771D01*
X29934Y-32718D01*
X29914Y-32670D01*
X29877Y-32633D01*
X29829Y-32614D01*
X29778Y-32613D01*
X29576Y-32613D01*
X29620Y-32506D01*
X29621Y-32375D01*
X29613Y-32358D01*
X29704Y-32268D01*
X29829Y-32268D01*
X29877Y-32248D01*
X29914Y-32211D01*
X29933Y-32163D01*
X29934Y-32112D01*
X29934Y-31718D01*
X29914Y-31670D01*
X29877Y-31633D01*
X29829Y-31614D01*
X29778Y-31613D01*
X29559Y-31613D01*
X29559Y-31490D01*
X29429Y-31490D01*
X29429Y-31613D01*
X29392Y-31614D01*
X29360Y-31646D01*
X29360Y-31842D01*
X29397Y-31842D01*
X29397Y-32039D01*
X29360Y-32039D01*
X29360Y-32112D01*
X29356Y-32111D01*
X29225Y-32110D01*
X29222Y-32112D01*
X29222Y-32039D01*
X29184Y-32039D01*
X29184Y-31842D01*
X29222Y-31842D01*
X29222Y-31646D01*
X29189Y-31614D01*
X29153Y-31613D01*
X29153Y-31490D01*
X29023Y-31490D01*
X29023Y-31613D01*
X28752Y-31613D01*
X28704Y-31633D01*
X28667Y-31670D01*
X28648Y-31718D01*
X28647Y-31769D01*
X28647Y-32163D01*
X28667Y-32211D01*
X28704Y-32248D01*
X28752Y-32267D01*
X28803Y-32268D01*
X28877Y-32268D01*
X28967Y-32358D01*
X28961Y-32375D01*
X28960Y-32506D01*
X29005Y-32613D01*
X28752Y-32613D01*
X28704Y-32633D01*
X28667Y-32670D01*
X28648Y-32718D01*
X28647Y-32769D01*
X28647Y-32775D01*
X28607Y-32783D01*
X28552Y-32820D01*
X28552Y-32820D01*
X28304Y-33068D01*
X28267Y-33123D01*
X28255Y-33189D01*
X28255Y-34043D01*
X28124Y-34043D01*
X28122Y-34044D01*
X28122Y-31075D01*
X28122Y-30725D01*
X28122Y-30376D01*
X28122Y-29975D01*
X28102Y-29927D01*
X28065Y-29890D01*
X28017Y-29871D01*
X27966Y-29870D01*
X27887Y-29871D01*
X27854Y-29903D01*
X27854Y-30088D01*
X28089Y-30088D01*
X28122Y-30056D01*
X28122Y-29975D01*
X28122Y-30376D01*
X28122Y-30296D01*
X28089Y-30263D01*
X27854Y-30263D01*
X27854Y-30448D01*
X27887Y-30481D01*
X27966Y-30481D01*
X28017Y-30480D01*
X28065Y-30461D01*
X28102Y-30424D01*
X28122Y-30376D01*
X28122Y-30725D01*
X28102Y-30677D01*
X28065Y-30640D01*
X28017Y-30621D01*
X27966Y-30620D01*
X27579Y-30620D01*
X27579Y-30448D01*
X27579Y-30263D01*
X27579Y-30088D01*
X27579Y-29903D01*
X27547Y-29871D01*
X27467Y-29870D01*
X27416Y-29871D01*
X27368Y-29890D01*
X27331Y-29927D01*
X27311Y-29975D01*
X27312Y-30056D01*
X27344Y-30088D01*
X27579Y-30088D01*
X27579Y-30263D01*
X27344Y-30263D01*
X27312Y-30296D01*
X27311Y-30376D01*
X27331Y-30424D01*
X27368Y-30461D01*
X27416Y-30480D01*
X27467Y-30481D01*
X27547Y-30481D01*
X27579Y-30448D01*
X27579Y-30620D01*
X27416Y-30620D01*
X27368Y-30640D01*
X27331Y-30677D01*
X27312Y-30725D01*
X27311Y-30776D01*
X27311Y-31126D01*
X27331Y-31174D01*
X27368Y-31211D01*
X27416Y-31230D01*
X27467Y-31231D01*
X27547Y-31231D01*
X27547Y-31405D01*
X27497Y-31405D01*
X27449Y-31425D01*
X27412Y-31462D01*
X27393Y-31510D01*
X27392Y-31561D01*
X27392Y-32111D01*
X27412Y-32159D01*
X27449Y-32196D01*
X27461Y-32201D01*
X27461Y-32322D01*
X27424Y-32323D01*
X27392Y-32355D01*
X27392Y-32551D01*
X27429Y-32551D01*
X27429Y-32748D01*
X27392Y-32748D01*
X27392Y-32944D01*
X27424Y-32977D01*
X27461Y-32977D01*
X27461Y-33100D01*
X27591Y-33100D01*
X27591Y-32977D01*
X27861Y-32977D01*
X27909Y-32957D01*
X27946Y-32920D01*
X27965Y-32872D01*
X27966Y-32821D01*
X27966Y-32427D01*
X27946Y-32379D01*
X27909Y-32342D01*
X27868Y-32325D01*
X27868Y-32216D01*
X27898Y-32216D01*
X27946Y-32196D01*
X27983Y-32159D01*
X28002Y-32111D01*
X28003Y-32060D01*
X28003Y-31510D01*
X27983Y-31462D01*
X27946Y-31425D01*
X27898Y-31406D01*
X27887Y-31406D01*
X27887Y-31231D01*
X28017Y-31231D01*
X28065Y-31211D01*
X28102Y-31174D01*
X28121Y-31126D01*
X28122Y-31075D01*
X28122Y-34044D01*
X28076Y-34063D01*
X28039Y-34100D01*
X28020Y-34148D01*
X28019Y-34199D01*
X28019Y-34549D01*
X28039Y-34597D01*
X28076Y-34634D01*
X28124Y-34653D01*
X28175Y-34654D01*
X28725Y-34654D01*
X28773Y-34634D01*
X28810Y-34597D01*
X28829Y-34549D01*
X28830Y-34498D01*
X28830Y-34149D01*
X28885Y-34205D01*
X28885Y-34551D01*
X28905Y-34599D01*
X28942Y-34636D01*
X28990Y-34655D01*
X29041Y-34656D01*
X29591Y-34656D01*
X29639Y-34636D01*
X29676Y-34599D01*
X29695Y-34551D01*
X29696Y-34500D01*
X29696Y-34150D01*
X29676Y-34102D01*
X29639Y-34065D01*
X29591Y-34046D01*
X29540Y-34045D01*
X29207Y-34045D01*
X29067Y-33906D01*
X29591Y-33906D01*
X29639Y-33886D01*
X29676Y-33849D01*
X29695Y-33801D01*
X29696Y-33750D01*
X29696Y-33400D01*
X29676Y-33352D01*
X29639Y-33315D01*
X29591Y-33296D01*
X29540Y-33295D01*
X29461Y-33295D01*
X29461Y-33265D01*
X29478Y-33258D01*
X29502Y-33267D01*
X29553Y-33268D01*
X29829Y-33268D01*
X29877Y-33248D01*
X29914Y-33211D01*
X29933Y-33165D01*
X29987Y-33219D01*
X29987Y-34043D01*
X29856Y-34043D01*
X29808Y-34063D01*
X29771Y-34100D01*
X29752Y-34148D01*
X29751Y-34199D01*
X29751Y-34549D01*
X29771Y-34597D01*
X29808Y-34634D01*
X29856Y-34653D01*
X29907Y-34654D01*
X30457Y-34654D01*
X30505Y-34634D01*
X30542Y-34597D01*
X30561Y-34549D01*
X30562Y-34498D01*
X30562Y-34898D01*
X30542Y-34850D01*
X30505Y-34813D01*
X30457Y-34794D01*
X30406Y-34793D01*
X29856Y-34793D01*
X29808Y-34813D01*
X29771Y-34850D01*
X29752Y-34898D01*
X29751Y-34929D01*
X28830Y-34929D01*
X28830Y-34898D01*
X28810Y-34850D01*
X28773Y-34813D01*
X28725Y-34794D01*
X28674Y-34793D01*
X28124Y-34793D01*
X28076Y-34813D01*
X28039Y-34850D01*
X28020Y-34898D01*
X28019Y-34929D01*
X27966Y-34929D01*
X27966Y-33821D01*
X27966Y-33478D01*
X27965Y-33427D01*
X27946Y-33379D01*
X27909Y-33342D01*
X27861Y-33322D01*
X27799Y-33323D01*
X27767Y-33355D01*
X27767Y-33551D01*
X27933Y-33551D01*
X27966Y-33519D01*
X27966Y-33478D01*
X27966Y-33821D01*
X27966Y-33781D01*
X27933Y-33748D01*
X27767Y-33748D01*
X27767Y-33944D01*
X27799Y-33977D01*
X27861Y-33977D01*
X27909Y-33957D01*
X27946Y-33920D01*
X27965Y-33872D01*
X27966Y-33821D01*
X27966Y-34929D01*
X27846Y-34929D01*
X27118Y-34200D01*
X27118Y-33974D01*
X27135Y-33967D01*
X27159Y-33976D01*
X27210Y-33977D01*
X27430Y-33977D01*
X27430Y-34100D01*
X27560Y-34100D01*
X27560Y-33977D01*
X27596Y-33977D01*
X27629Y-33944D01*
X27629Y-33748D01*
X27591Y-33748D01*
X27591Y-33551D01*
X27629Y-33551D01*
X27629Y-33355D01*
X27596Y-33323D01*
X27560Y-33322D01*
X27560Y-33199D01*
X27430Y-33199D01*
X27430Y-33322D01*
X27410Y-33322D01*
X27388Y-33307D01*
X27385Y-33307D01*
X27178Y-33100D01*
X27185Y-33100D01*
X27185Y-32977D01*
X27221Y-32977D01*
X27254Y-32944D01*
X27254Y-32748D01*
X27216Y-32748D01*
X27216Y-32551D01*
X27254Y-32551D01*
X27254Y-32355D01*
X27221Y-32323D01*
X27185Y-32322D01*
X27185Y-32201D01*
X27196Y-32196D01*
X27233Y-32159D01*
X27252Y-32111D01*
X27253Y-32060D01*
X27253Y-31510D01*
X27233Y-31462D01*
X27196Y-31425D01*
X27148Y-31406D01*
X27118Y-31405D01*
X27118Y-29209D01*
X27194Y-29177D01*
X27287Y-29085D01*
X27337Y-28963D01*
X27338Y-28832D01*
X27287Y-28711D01*
X27195Y-28618D01*
X27073Y-28568D01*
X26942Y-28567D01*
X26821Y-28618D01*
X26728Y-28710D01*
X26678Y-28832D01*
X26678Y-28875D01*
X26657Y-28867D01*
X26627Y-28866D01*
X26627Y-28543D01*
X26703Y-28512D01*
X26817Y-28398D01*
X26868Y-28276D01*
X26918Y-28398D01*
X27032Y-28512D01*
X27181Y-28573D01*
X27342Y-28574D01*
X27491Y-28512D01*
X27605Y-28398D01*
X27655Y-28277D01*
X27705Y-28398D01*
X27819Y-28512D01*
X27968Y-28573D01*
X28129Y-28574D01*
X28278Y-28512D01*
X28392Y-28398D01*
X28443Y-28276D01*
X28493Y-28398D01*
X28607Y-28512D01*
X28756Y-28573D01*
X28917Y-28574D01*
X29066Y-28512D01*
X29180Y-28398D01*
X29241Y-28249D01*
X29242Y-28088D01*
X29180Y-27939D01*
X29066Y-27825D01*
X28917Y-27764D01*
X28756Y-27763D01*
X28607Y-27825D01*
X28493Y-27939D01*
X28442Y-28061D01*
X28392Y-27939D01*
X28278Y-27825D01*
X28129Y-27764D01*
X27968Y-27763D01*
X27819Y-27825D01*
X27705Y-27939D01*
X27655Y-28060D01*
X27605Y-27939D01*
X27491Y-27825D01*
X27342Y-27764D01*
X27181Y-27763D01*
X27032Y-27825D01*
X26918Y-27939D01*
X26867Y-28061D01*
X26817Y-27939D01*
X26703Y-27825D01*
X26554Y-27764D01*
X26393Y-27763D01*
X26244Y-27825D01*
X26130Y-27939D01*
X26080Y-28060D01*
X26030Y-27939D01*
X25916Y-27825D01*
X25767Y-27764D01*
X25606Y-27763D01*
X25457Y-27825D01*
X25343Y-27939D01*
X25293Y-28060D01*
X25243Y-27939D01*
X25129Y-27825D01*
X24980Y-27764D01*
X24819Y-27763D01*
X24670Y-27825D01*
X24556Y-27939D01*
X24505Y-28061D01*
X24455Y-27939D01*
X24341Y-27825D01*
X24192Y-27764D01*
X24031Y-27763D01*
X23882Y-27825D01*
X23768Y-27939D01*
X23718Y-28060D01*
X23668Y-27939D01*
X23554Y-27825D01*
X23405Y-27764D01*
X23244Y-27763D01*
X23095Y-27825D01*
X22981Y-27939D01*
X22930Y-28061D01*
X22880Y-27939D01*
X22766Y-27825D01*
X22617Y-27764D01*
X22456Y-27763D01*
X22307Y-27825D01*
X22193Y-27939D01*
X22143Y-28060D01*
X22093Y-27939D01*
X21979Y-27825D01*
X21830Y-27764D01*
X21669Y-27763D01*
X21520Y-27825D01*
X21406Y-27939D01*
X21345Y-28088D01*
X21344Y-28249D01*
X21406Y-28398D01*
X21520Y-28512D01*
X21669Y-28573D01*
X21830Y-28574D01*
X21979Y-28512D01*
X22093Y-28398D01*
X22143Y-28277D01*
X22193Y-28398D01*
X22307Y-28512D01*
X22367Y-28536D01*
X22367Y-29397D01*
X22334Y-29397D01*
X22334Y-29266D01*
X22314Y-29218D01*
X22277Y-29181D01*
X22229Y-29162D01*
X22178Y-29161D01*
X21828Y-29161D01*
X21780Y-29181D01*
X21743Y-29218D01*
X21724Y-29266D01*
X21723Y-29317D01*
X21723Y-29867D01*
X21743Y-29915D01*
X21780Y-29952D01*
X21828Y-29971D01*
X21879Y-29972D01*
X22229Y-29972D01*
X22277Y-29952D01*
X22314Y-29915D01*
X22333Y-29867D01*
X22334Y-29816D01*
X22334Y-29737D01*
X22665Y-29737D01*
X22665Y-29867D01*
X22685Y-29915D01*
X22722Y-29952D01*
X22770Y-29971D01*
X22821Y-29972D01*
X23171Y-29972D01*
X23219Y-29952D01*
X23256Y-29915D01*
X23275Y-29867D01*
X23276Y-29816D01*
X23276Y-29266D01*
X23256Y-29218D01*
X23219Y-29181D01*
X23171Y-29162D01*
X23120Y-29161D01*
X22770Y-29161D01*
X22722Y-29181D01*
X22707Y-29197D01*
X22707Y-28536D01*
X22766Y-28512D01*
X22880Y-28398D01*
X22931Y-28276D01*
X22981Y-28398D01*
X23095Y-28512D01*
X23244Y-28573D01*
X23405Y-28574D01*
X23554Y-28512D01*
X23668Y-28398D01*
X23718Y-28277D01*
X23768Y-28398D01*
X23882Y-28512D01*
X24031Y-28573D01*
X24192Y-28574D01*
X24341Y-28512D01*
X24455Y-28398D01*
X24506Y-28276D01*
X24556Y-28398D01*
X24670Y-28512D01*
X24819Y-28573D01*
X24980Y-28574D01*
X25129Y-28512D01*
X25243Y-28398D01*
X25293Y-28277D01*
X25343Y-28398D01*
X25457Y-28512D01*
X25606Y-28573D01*
X25767Y-28574D01*
X25916Y-28512D01*
X26030Y-28398D01*
X26080Y-28277D01*
X26130Y-28398D01*
X26244Y-28512D01*
X26287Y-28529D01*
X26287Y-28866D01*
X26256Y-28866D01*
X26208Y-28886D01*
X26171Y-28923D01*
X26152Y-28971D01*
X26151Y-29022D01*
X26151Y-29258D01*
X26157Y-29271D01*
X26152Y-29285D01*
X26151Y-29336D01*
X26151Y-29572D01*
X26171Y-29620D01*
X26208Y-29657D01*
X26256Y-29676D01*
X26287Y-29677D01*
X26287Y-30650D01*
X26287Y-32795D01*
X26287Y-33482D01*
X26279Y-33490D01*
X25993Y-33490D01*
X25993Y-29521D01*
X25993Y-29022D01*
X25992Y-28971D01*
X25973Y-28923D01*
X25936Y-28886D01*
X25888Y-28866D01*
X25808Y-28867D01*
X25775Y-28899D01*
X25775Y-29134D01*
X25960Y-29134D01*
X25993Y-29102D01*
X25993Y-29022D01*
X25993Y-29521D01*
X25993Y-29442D01*
X25960Y-29409D01*
X25775Y-29409D01*
X25775Y-29644D01*
X25808Y-29677D01*
X25888Y-29677D01*
X25936Y-29657D01*
X25973Y-29620D01*
X25992Y-29572D01*
X25993Y-29521D01*
X25993Y-33490D01*
X25969Y-33490D01*
X25970Y-33454D01*
X25970Y-32014D01*
X25950Y-31966D01*
X25913Y-31929D01*
X25865Y-31910D01*
X25814Y-31909D01*
X25600Y-31909D01*
X25600Y-29644D01*
X25600Y-29409D01*
X25600Y-29134D01*
X25600Y-28899D01*
X25568Y-28867D01*
X25487Y-28866D01*
X25439Y-28886D01*
X25402Y-28923D01*
X25383Y-28971D01*
X25382Y-29022D01*
X25383Y-29102D01*
X25415Y-29134D01*
X25600Y-29134D01*
X25600Y-29409D01*
X25415Y-29409D01*
X25383Y-29442D01*
X25382Y-29521D01*
X25383Y-29572D01*
X25402Y-29620D01*
X25439Y-29657D01*
X25487Y-29677D01*
X25568Y-29677D01*
X25600Y-29644D01*
X25600Y-31909D01*
X25014Y-31909D01*
X24966Y-31929D01*
X24929Y-31966D01*
X24910Y-32014D01*
X24909Y-32065D01*
X24909Y-33490D01*
X24026Y-33490D01*
X24026Y-29816D01*
X24026Y-29266D01*
X24006Y-29218D01*
X23969Y-29181D01*
X23921Y-29162D01*
X23870Y-29161D01*
X23520Y-29161D01*
X23472Y-29181D01*
X23435Y-29218D01*
X23416Y-29266D01*
X23415Y-29317D01*
X23415Y-29867D01*
X23435Y-29915D01*
X23472Y-29952D01*
X23520Y-29971D01*
X23551Y-29972D01*
X23551Y-31568D01*
X23429Y-31690D01*
X23370Y-31690D01*
X23370Y-31634D01*
X23350Y-31586D01*
X23313Y-31549D01*
X23265Y-31530D01*
X23214Y-31529D01*
X22414Y-31529D01*
X22366Y-31549D01*
X22329Y-31586D01*
X22310Y-31634D01*
X22309Y-31685D01*
X22309Y-31690D01*
X22215Y-31690D01*
X22215Y-31444D01*
X22195Y-31396D01*
X22158Y-31359D01*
X22110Y-31340D01*
X22059Y-31339D01*
X21584Y-31339D01*
X21584Y-29816D01*
X21584Y-29317D01*
X21583Y-29266D01*
X21564Y-29218D01*
X21527Y-29181D01*
X21479Y-29161D01*
X21399Y-29162D01*
X21366Y-29194D01*
X21366Y-29429D01*
X21551Y-29429D01*
X21584Y-29397D01*
X21584Y-29317D01*
X21584Y-29816D01*
X21584Y-29737D01*
X21551Y-29704D01*
X21366Y-29704D01*
X21366Y-29939D01*
X21399Y-29972D01*
X21479Y-29972D01*
X21527Y-29952D01*
X21564Y-29915D01*
X21583Y-29867D01*
X21584Y-29816D01*
X21584Y-31339D01*
X21509Y-31339D01*
X21461Y-31359D01*
X21424Y-31396D01*
X21405Y-31444D01*
X21404Y-31475D01*
X21225Y-31475D01*
X21191Y-31481D01*
X21191Y-29939D01*
X21191Y-29704D01*
X21191Y-29429D01*
X21191Y-29194D01*
X21159Y-29162D01*
X21078Y-29161D01*
X21030Y-29181D01*
X20993Y-29218D01*
X20974Y-29266D01*
X20973Y-29317D01*
X20974Y-29397D01*
X21006Y-29429D01*
X21191Y-29429D01*
X21191Y-29704D01*
X21006Y-29704D01*
X20974Y-29737D01*
X20973Y-29816D01*
X20974Y-29867D01*
X20993Y-29915D01*
X21030Y-29952D01*
X21078Y-29972D01*
X21159Y-29972D01*
X21191Y-29939D01*
X21191Y-31481D01*
X21159Y-31487D01*
X21104Y-31524D01*
X21104Y-31524D01*
X20749Y-31879D01*
X20712Y-31934D01*
X20700Y-32000D01*
X20700Y-32120D01*
X20700Y-32269D01*
X20673Y-32280D01*
X20580Y-32372D01*
X20530Y-32494D01*
X20529Y-32625D01*
X20580Y-32746D01*
X20672Y-32839D01*
X20794Y-32889D01*
X20925Y-32890D01*
X21046Y-32839D01*
X21139Y-32747D01*
X21189Y-32625D01*
X21190Y-32494D01*
X21139Y-32373D01*
X21047Y-32280D01*
X21040Y-32277D01*
X21040Y-32120D01*
X21040Y-32070D01*
X21295Y-31815D01*
X21404Y-31815D01*
X21404Y-31845D01*
X21424Y-31893D01*
X21461Y-31930D01*
X21509Y-31949D01*
X21560Y-31950D01*
X21874Y-31950D01*
X21904Y-31980D01*
X21959Y-32017D01*
X21959Y-32017D01*
X22025Y-32030D01*
X22309Y-32030D01*
X22309Y-32085D01*
X22329Y-32133D01*
X22366Y-32170D01*
X22414Y-32189D01*
X22465Y-32190D01*
X23265Y-32190D01*
X23313Y-32170D01*
X23350Y-32133D01*
X23369Y-32085D01*
X23370Y-32034D01*
X23370Y-32030D01*
X23500Y-32030D01*
X23565Y-32017D01*
X23565Y-32017D01*
X23620Y-31980D01*
X23841Y-31759D01*
X23841Y-31759D01*
X23841Y-31759D01*
X23878Y-31704D01*
X23891Y-31639D01*
X23891Y-29972D01*
X23921Y-29972D01*
X23969Y-29952D01*
X24006Y-29915D01*
X24025Y-29867D01*
X24026Y-29816D01*
X24026Y-33490D01*
X23370Y-33490D01*
X23370Y-33434D01*
X23370Y-32985D01*
X23370Y-32534D01*
X23350Y-32486D01*
X23313Y-32449D01*
X23265Y-32430D01*
X23214Y-32429D01*
X23072Y-32430D01*
X23040Y-32462D01*
X23040Y-32660D01*
X23337Y-32660D01*
X23370Y-32627D01*
X23370Y-32534D01*
X23370Y-32985D01*
X23370Y-32892D01*
X23337Y-32860D01*
X23040Y-32860D01*
X23040Y-33057D01*
X23072Y-33090D01*
X23214Y-33090D01*
X23265Y-33089D01*
X23313Y-33070D01*
X23350Y-33033D01*
X23370Y-32985D01*
X23370Y-33434D01*
X23350Y-33386D01*
X23313Y-33349D01*
X23265Y-33330D01*
X23214Y-33329D01*
X22640Y-33329D01*
X22640Y-33057D01*
X22640Y-32860D01*
X22640Y-32660D01*
X22640Y-32462D01*
X22607Y-32430D01*
X22465Y-32429D01*
X22414Y-32430D01*
X22366Y-32449D01*
X22329Y-32486D01*
X22309Y-32534D01*
X22310Y-32627D01*
X22342Y-32660D01*
X22640Y-32660D01*
X22640Y-32860D01*
X22342Y-32860D01*
X22310Y-32892D01*
X22309Y-32985D01*
X22329Y-33033D01*
X22366Y-33070D01*
X22414Y-33089D01*
X22465Y-33090D01*
X22607Y-33090D01*
X22640Y-33057D01*
X22640Y-33329D01*
X22414Y-33329D01*
X22366Y-33349D01*
X22329Y-33386D01*
X22310Y-33434D01*
X22309Y-33485D01*
X22309Y-33490D01*
X22250Y-33490D01*
X22250Y-33480D01*
X22215Y-33480D01*
X22215Y-32595D01*
X22215Y-32194D01*
X22195Y-32146D01*
X22158Y-32109D01*
X22110Y-32090D01*
X22059Y-32089D01*
X21980Y-32090D01*
X21947Y-32122D01*
X21947Y-32307D01*
X22182Y-32307D01*
X22215Y-32275D01*
X22215Y-32194D01*
X22215Y-32595D01*
X22215Y-32515D01*
X22182Y-32482D01*
X21947Y-32482D01*
X21947Y-32667D01*
X21980Y-32700D01*
X22059Y-32700D01*
X22110Y-32699D01*
X22158Y-32680D01*
X22195Y-32643D01*
X22215Y-32595D01*
X22215Y-33480D01*
X22205Y-33480D01*
X22205Y-33104D01*
X22185Y-33056D01*
X22148Y-33019D01*
X22100Y-33000D01*
X22049Y-32999D01*
X21970Y-33000D01*
X21937Y-33032D01*
X21937Y-33217D01*
X22172Y-33217D01*
X22205Y-33185D01*
X22205Y-33104D01*
X22205Y-33480D01*
X22205Y-33480D01*
X22205Y-33425D01*
X22172Y-33392D01*
X21937Y-33392D01*
X21937Y-33480D01*
X21672Y-33480D01*
X21672Y-32667D01*
X21672Y-32482D01*
X21672Y-32307D01*
X21672Y-32122D01*
X21640Y-32090D01*
X21560Y-32089D01*
X21509Y-32090D01*
X21461Y-32109D01*
X21424Y-32146D01*
X21404Y-32194D01*
X21405Y-32275D01*
X21437Y-32307D01*
X21672Y-32307D01*
X21672Y-32482D01*
X21437Y-32482D01*
X21405Y-32515D01*
X21404Y-32595D01*
X21424Y-32643D01*
X21461Y-32680D01*
X21509Y-32699D01*
X21560Y-32700D01*
X21640Y-32700D01*
X21672Y-32667D01*
X21672Y-33480D01*
X21662Y-33480D01*
X21662Y-33392D01*
X21662Y-33217D01*
X21662Y-33032D01*
X21630Y-33000D01*
X21550Y-32999D01*
X21499Y-33000D01*
X21451Y-33019D01*
X21414Y-33056D01*
X21394Y-33104D01*
X21395Y-33185D01*
X21427Y-33217D01*
X21662Y-33217D01*
X21662Y-33392D01*
X21427Y-33392D01*
X21395Y-33425D01*
X21394Y-33480D01*
X21349Y-33480D01*
X21349Y-33610D01*
X21524Y-33610D01*
X21550Y-33610D01*
X21630Y-33610D01*
X21662Y-33610D01*
X21672Y-33610D01*
X21779Y-33610D01*
X21679Y-33709D01*
X21672Y-33720D01*
X21662Y-33735D01*
X21652Y-33749D01*
X21499Y-33749D01*
X21451Y-33769D01*
X21414Y-33806D01*
X21395Y-33854D01*
X21394Y-33905D01*
X21394Y-34255D01*
X21414Y-34303D01*
X21451Y-34340D01*
X21499Y-34359D01*
X21550Y-34360D01*
X21705Y-34360D01*
X21705Y-35094D01*
X21674Y-35094D01*
X21626Y-35114D01*
X21589Y-35151D01*
X21570Y-35199D01*
X21569Y-35250D01*
X21569Y-35800D01*
X21589Y-35848D01*
X21626Y-35885D01*
X21674Y-35904D01*
X21705Y-35905D01*
X21705Y-36425D01*
X21669Y-36425D01*
X21520Y-36487D01*
X21430Y-36578D01*
X21430Y-35749D01*
X21430Y-35250D01*
X21429Y-35199D01*
X21410Y-35151D01*
X21373Y-35114D01*
X21325Y-35094D01*
X21245Y-35095D01*
X21212Y-35127D01*
X21212Y-35362D01*
X21397Y-35362D01*
X21430Y-35330D01*
X21430Y-35250D01*
X21430Y-35749D01*
X21430Y-35670D01*
X21397Y-35637D01*
X21212Y-35637D01*
X21212Y-35872D01*
X21245Y-35905D01*
X21325Y-35905D01*
X21373Y-35885D01*
X21410Y-35848D01*
X21429Y-35800D01*
X21430Y-35749D01*
X21430Y-36578D01*
X21406Y-36601D01*
X21345Y-36750D01*
X21344Y-36911D01*
X21406Y-37060D01*
X21520Y-37174D01*
X21669Y-37235D01*
X21830Y-37236D01*
X21979Y-37174D01*
X22093Y-37060D01*
X22143Y-36939D01*
X22193Y-37060D01*
X22307Y-37174D01*
X22456Y-37235D01*
X22617Y-37236D01*
X22766Y-37174D01*
X22880Y-37060D01*
X22931Y-36938D01*
X22981Y-37060D01*
X23095Y-37174D01*
X23244Y-37235D01*
X23405Y-37236D01*
X23554Y-37174D01*
X23668Y-37060D01*
X23718Y-36939D01*
X23768Y-37060D01*
X23882Y-37174D01*
X24031Y-37235D01*
X24192Y-37236D01*
X24341Y-37174D01*
X24455Y-37060D01*
X24506Y-36938D01*
X24556Y-37060D01*
X24670Y-37174D01*
X24819Y-37235D01*
X24980Y-37236D01*
X25129Y-37174D01*
X25243Y-37060D01*
X25293Y-36939D01*
X25343Y-37060D01*
X25457Y-37174D01*
X25606Y-37235D01*
X25767Y-37236D01*
X25916Y-37174D01*
X26030Y-37060D01*
X26080Y-36939D01*
X26130Y-37060D01*
X26244Y-37174D01*
X26393Y-37235D01*
X26554Y-37236D01*
X26703Y-37174D01*
X26817Y-37060D01*
X26868Y-36938D01*
X26918Y-37060D01*
X27032Y-37174D01*
X27181Y-37235D01*
X27342Y-37236D01*
X27491Y-37174D01*
X27605Y-37060D01*
X27655Y-36939D01*
X27705Y-37060D01*
X27819Y-37174D01*
X27968Y-37235D01*
X28129Y-37236D01*
X28278Y-37174D01*
X28392Y-37060D01*
X28440Y-36944D01*
X28441Y-36948D01*
X28488Y-36984D01*
X28642Y-36831D01*
X28488Y-36677D01*
X28441Y-36713D01*
X28440Y-36718D01*
X28392Y-36601D01*
X28278Y-36487D01*
X28129Y-36426D01*
X27968Y-36425D01*
X27819Y-36487D01*
X27705Y-36601D01*
X27655Y-36722D01*
X27605Y-36601D01*
X27491Y-36487D01*
X27342Y-36426D01*
X27181Y-36425D01*
X27032Y-36487D01*
X26918Y-36601D01*
X26867Y-36723D01*
X26817Y-36601D01*
X26703Y-36487D01*
X26554Y-36426D01*
X26393Y-36425D01*
X26244Y-36487D01*
X26130Y-36601D01*
X26080Y-36722D01*
X26030Y-36601D01*
X25916Y-36487D01*
X25767Y-36426D01*
X25606Y-36425D01*
X25457Y-36487D01*
X25343Y-36601D01*
X25293Y-36722D01*
X25243Y-36601D01*
X25129Y-36487D01*
X24980Y-36426D01*
X24819Y-36425D01*
X24670Y-36487D01*
X24556Y-36601D01*
X24505Y-36723D01*
X24455Y-36601D01*
X24341Y-36487D01*
X24192Y-36426D01*
X24031Y-36425D01*
X23882Y-36487D01*
X23768Y-36601D01*
X23718Y-36722D01*
X23668Y-36601D01*
X23554Y-36487D01*
X23405Y-36426D01*
X23244Y-36425D01*
X23095Y-36487D01*
X22981Y-36601D01*
X22930Y-36723D01*
X22880Y-36601D01*
X22766Y-36487D01*
X22617Y-36426D01*
X22456Y-36425D01*
X22307Y-36487D01*
X22193Y-36601D01*
X22143Y-36722D01*
X22093Y-36601D01*
X22045Y-36553D01*
X22045Y-35905D01*
X22075Y-35905D01*
X22123Y-35885D01*
X22160Y-35848D01*
X22179Y-35800D01*
X22180Y-35749D01*
X22180Y-35199D01*
X22160Y-35151D01*
X22123Y-35114D01*
X22075Y-35095D01*
X22045Y-35094D01*
X22045Y-34360D01*
X22100Y-34360D01*
X22148Y-34340D01*
X22185Y-34303D01*
X22204Y-34255D01*
X22205Y-34204D01*
X22205Y-33854D01*
X22195Y-33830D01*
X22309Y-33830D01*
X22309Y-33885D01*
X22329Y-33933D01*
X22366Y-33970D01*
X22414Y-33989D01*
X22465Y-33990D01*
X23265Y-33990D01*
X23313Y-33970D01*
X23350Y-33933D01*
X23369Y-33885D01*
X23370Y-33834D01*
X23370Y-33830D01*
X26350Y-33830D01*
X26415Y-33817D01*
X26415Y-33817D01*
X26470Y-33780D01*
X26577Y-33673D01*
X26577Y-33673D01*
X26577Y-33673D01*
X26614Y-33618D01*
X26627Y-33553D01*
X26626Y-33553D01*
X26627Y-33553D01*
X26627Y-33205D01*
X26691Y-33270D01*
X26691Y-33270D01*
X26746Y-33307D01*
X26812Y-33320D01*
X26917Y-33320D01*
X26920Y-33322D01*
X26784Y-33322D01*
X26736Y-33342D01*
X26699Y-33379D01*
X26680Y-33427D01*
X26679Y-33478D01*
X26679Y-33872D01*
X26699Y-33920D01*
X26736Y-33957D01*
X26778Y-33974D01*
X26778Y-34271D01*
X26790Y-34336D01*
X26827Y-34391D01*
X27655Y-35219D01*
X27655Y-35219D01*
X27710Y-35256D01*
X27775Y-35269D01*
X27775Y-35268D01*
X27776Y-35269D01*
X28019Y-35269D01*
X28019Y-35299D01*
X28039Y-35347D01*
X28076Y-35384D01*
X28124Y-35403D01*
X28175Y-35404D01*
X28725Y-35404D01*
X28773Y-35384D01*
X28810Y-35347D01*
X28829Y-35299D01*
X28830Y-35269D01*
X29751Y-35269D01*
X29751Y-35299D01*
X29771Y-35347D01*
X29808Y-35384D01*
X29856Y-35403D01*
X29907Y-35404D01*
X30457Y-35404D01*
X30505Y-35384D01*
X30542Y-35347D01*
X30561Y-35299D01*
X30562Y-35269D01*
X30618Y-35269D01*
X30618Y-35299D01*
X30638Y-35347D01*
X30675Y-35384D01*
X30723Y-35403D01*
X30774Y-35404D01*
X31324Y-35404D01*
X31372Y-35384D01*
X31409Y-35347D01*
X31428Y-35299D01*
X31429Y-35269D01*
X31484Y-35269D01*
X31484Y-35299D01*
X31504Y-35347D01*
X31541Y-35384D01*
X31589Y-35403D01*
X31640Y-35404D01*
X32190Y-35404D01*
X32238Y-35384D01*
X32275Y-35347D01*
X32294Y-35299D01*
X32295Y-35248D01*
X32295Y-38950D01*
X29247Y-38950D01*
X29247Y-36788D01*
X29232Y-36713D01*
X29185Y-36677D01*
X29031Y-36831D01*
X29185Y-36984D01*
X29232Y-36948D01*
X29247Y-36788D01*
X29247Y-38950D01*
X28990Y-38950D01*
X28990Y-37179D01*
X28990Y-36482D01*
X28954Y-36435D01*
X28794Y-36420D01*
X28719Y-36435D01*
X28683Y-36482D01*
X28837Y-36636D01*
X28990Y-36482D01*
X28990Y-37179D01*
X28837Y-37025D01*
X28683Y-37179D01*
X28719Y-37226D01*
X28879Y-37241D01*
X28954Y-37226D01*
X28990Y-37179D01*
X28990Y-38950D01*
X21037Y-38950D01*
X21037Y-35872D01*
X21037Y-35637D01*
X21037Y-35362D01*
X21037Y-35127D01*
X21005Y-35095D01*
X20924Y-35094D01*
X20876Y-35114D01*
X20839Y-35151D01*
X20820Y-35199D01*
X20819Y-35250D01*
X20820Y-35330D01*
X20852Y-35362D01*
X21037Y-35362D01*
X21037Y-35637D01*
X20852Y-35637D01*
X20820Y-35670D01*
X20819Y-35749D01*
X20820Y-35800D01*
X20839Y-35848D01*
X20876Y-35885D01*
X20924Y-35905D01*
X21005Y-35905D01*
X21037Y-35872D01*
X21037Y-38950D01*
X17089Y-38950D01*
X17089Y-33378D01*
X17027Y-33067D01*
X16918Y-32884D01*
X16900Y-32903D01*
X16900Y-30422D01*
X16687Y-29907D01*
X16294Y-29513D01*
X15779Y-29300D01*
X15222Y-29299D01*
X14707Y-29512D01*
X14313Y-29905D01*
X14100Y-30420D01*
X14099Y-30977D01*
X14312Y-31492D01*
X14705Y-31886D01*
X15220Y-32099D01*
X15434Y-32099D01*
X15234Y-32139D01*
X15051Y-32248D01*
X15667Y-32863D01*
X16282Y-32248D01*
X16099Y-32139D01*
X15746Y-32100D01*
X15777Y-32100D01*
X16292Y-31887D01*
X16686Y-31494D01*
X16899Y-30979D01*
X16900Y-30422D01*
X16900Y-32903D01*
X16303Y-33500D01*
X16918Y-34115D01*
X17027Y-33932D01*
X17089Y-33378D01*
X17089Y-38950D01*
X16282Y-38950D01*
X16282Y-34751D01*
X15667Y-34136D01*
X15051Y-34751D01*
X15234Y-34860D01*
X15788Y-34922D01*
X16099Y-34860D01*
X16282Y-34751D01*
X16282Y-38950D01*
X15030Y-38950D01*
X15030Y-33500D01*
X14415Y-32884D01*
X14306Y-33067D01*
X14244Y-33621D01*
X14306Y-33932D01*
X14415Y-34115D01*
X15030Y-33500D01*
X15030Y-38950D01*
X13930Y-38950D01*
X13930Y-37315D01*
X13930Y-26815D01*
X13788Y-26473D01*
X13527Y-26212D01*
X13185Y-26070D01*
X12815Y-26069D01*
X12473Y-26211D01*
X12212Y-26472D01*
X12070Y-26814D01*
X12069Y-27184D01*
X12211Y-27526D01*
X12472Y-27787D01*
X12814Y-27929D01*
X13184Y-27930D01*
X13526Y-27788D01*
X13787Y-27527D01*
X13929Y-27185D01*
X13930Y-26815D01*
X13930Y-37315D01*
X13788Y-36973D01*
X13527Y-36712D01*
X13185Y-36570D01*
X12815Y-36569D01*
X12473Y-36711D01*
X12212Y-36972D01*
X12070Y-37314D01*
X12069Y-37684D01*
X12211Y-38026D01*
X12472Y-38287D01*
X12814Y-38429D01*
X13184Y-38430D01*
X13526Y-38288D01*
X13787Y-38027D01*
X13929Y-37685D01*
X13930Y-37315D01*
X13930Y-38950D01*
X11800Y-38950D01*
X11800Y-25800D01*
X34700Y-25800D01*
X34700Y-27594D01*
X33785Y-27594D01*
X33737Y-27614D01*
X33700Y-27651D01*
X33681Y-27699D01*
X33681Y-27750D01*
X33681Y-27930D01*
X32963Y-27930D01*
X32963Y-27809D01*
X32943Y-27761D01*
X32906Y-27724D01*
X32858Y-27705D01*
X32807Y-27704D01*
X32457Y-27704D01*
X32409Y-27724D01*
X32372Y-27761D01*
X32353Y-27809D01*
X32352Y-27860D01*
X32352Y-28410D01*
X32372Y-28458D01*
X32409Y-28495D01*
X32457Y-28514D01*
X32508Y-28515D01*
X32858Y-28515D01*
X32906Y-28495D01*
X32943Y-28458D01*
X32962Y-28410D01*
X32963Y-28359D01*
X32963Y-28270D01*
X33681Y-28270D01*
X33681Y-28400D01*
X33700Y-28448D01*
X33737Y-28485D01*
X33785Y-28504D01*
X33836Y-28505D01*
X34700Y-28505D01*
X34700Y-31405D01*
X34111Y-31405D01*
X34111Y-30472D01*
X34111Y-30212D01*
X34111Y-29887D01*
X34111Y-29627D01*
X34078Y-29595D01*
X33836Y-29594D01*
X33785Y-29595D01*
X33737Y-29614D01*
X33700Y-29651D01*
X33681Y-29699D01*
X33681Y-29855D01*
X33713Y-29887D01*
X34111Y-29887D01*
X34111Y-30212D01*
X33713Y-30212D01*
X33681Y-30245D01*
X33681Y-30400D01*
X33700Y-30448D01*
X33737Y-30485D01*
X33785Y-30504D01*
X33836Y-30505D01*
X34078Y-30505D01*
X34111Y-30472D01*
X34111Y-31405D01*
X32905Y-31405D01*
X32876Y-31375D01*
X32876Y-31375D01*
X32078Y-30577D01*
X32078Y-28515D01*
X32108Y-28515D01*
X32156Y-28495D01*
X32193Y-28458D01*
X32212Y-28410D01*
X32213Y-28359D01*
X32213Y-27809D01*
X32193Y-27761D01*
X32156Y-27724D01*
X32108Y-27705D01*
X32057Y-27704D01*
X31707Y-27704D01*
X31659Y-27724D01*
X31622Y-27761D01*
X31603Y-27809D01*
X31602Y-27860D01*
X31602Y-28410D01*
X31622Y-28458D01*
X31659Y-28495D01*
X31707Y-28514D01*
X31738Y-28515D01*
X31738Y-30648D01*
X31750Y-30713D01*
X31787Y-30768D01*
X32635Y-31616D01*
X32635Y-31616D01*
X32665Y-31645D01*
X32665Y-34043D01*
X32534Y-34043D01*
X32486Y-34063D01*
X32449Y-34100D01*
X32430Y-34148D01*
X32429Y-34199D01*
X32429Y-34549D01*
X32449Y-34597D01*
X32486Y-34634D01*
X32534Y-34653D01*
X32585Y-34654D01*
X33135Y-34654D01*
X33183Y-34634D01*
X33220Y-34597D01*
X33239Y-34549D01*
X33240Y-34498D01*
X33240Y-34148D01*
X33220Y-34100D01*
X33183Y-34063D01*
X33135Y-34044D01*
X33084Y-34043D01*
X33005Y-34043D01*
X33005Y-31745D01*
X34628Y-31745D01*
X34505Y-31795D01*
X34402Y-31898D01*
X34347Y-32032D01*
X34346Y-32178D01*
X34402Y-32313D01*
X34505Y-32416D01*
X34639Y-32471D01*
X34700Y-32471D01*
X34700Y-32527D01*
X34640Y-32527D01*
X34505Y-32583D01*
X34402Y-32686D01*
X34347Y-32820D01*
X34346Y-32966D01*
X34402Y-33101D01*
X34505Y-33204D01*
X34639Y-33259D01*
X34700Y-33259D01*
X34700Y-34534D01*
X34090Y-34534D01*
X34090Y-32404D01*
X34017Y-32228D01*
X33882Y-32093D01*
X33705Y-32020D01*
X33514Y-32019D01*
X33338Y-32092D01*
X33203Y-32227D01*
X33130Y-32404D01*
X33129Y-32595D01*
X33202Y-32771D01*
X33337Y-32906D01*
X33514Y-32979D01*
X33705Y-32980D01*
X33881Y-32907D01*
X34016Y-32772D01*
X34089Y-32595D01*
X34090Y-32404D01*
X34090Y-34534D01*
X33785Y-34534D01*
X33737Y-34554D01*
X33700Y-34591D01*
X33681Y-34639D01*
X33681Y-34690D01*
X33681Y-34930D01*
X33240Y-34930D01*
X33240Y-34898D01*
X33220Y-34850D01*
X33183Y-34813D01*
X33135Y-34794D01*
X33084Y-34793D01*
X32534Y-34793D01*
X32486Y-34813D01*
X32449Y-34850D01*
X32430Y-34898D01*
X32429Y-34949D01*
X32429Y-35299D01*
X32449Y-35347D01*
X32486Y-35384D01*
X32534Y-35403D01*
X32585Y-35404D01*
X33135Y-35404D01*
X33183Y-35384D01*
X33220Y-35347D01*
X33239Y-35299D01*
X33240Y-35270D01*
X33681Y-35270D01*
X33681Y-35340D01*
X33700Y-35388D01*
X33737Y-35425D01*
X33785Y-35444D01*
X33836Y-35445D01*
X34700Y-35445D01*
X34700Y-38950D01*
M02*
