G04 (created by PCBNEW (2013-06-11 BZR 4021)-stable) date Tue 16 Jul 2013 06:26:29 PM CDT*
%MOIN*%
G04 Gerber Fmt 3.4, Leading zero omitted, Abs format*
%FSLAX34Y34*%
G01*
G70*
G90*
G04 APERTURE LIST*
%ADD10C,0.00590551*%
%ADD11C,0.16*%
%ADD12C,0.0472*%
%ADD13C,0.07*%
%ADD14C,0.055*%
%ADD15C,0.254*%
%ADD16C,0.04*%
%ADD17C,0.008*%
%ADD18C,0.01*%
G04 APERTURE END LIST*
G54D10*
G54D11*
X13000Y-37500D03*
X13000Y-27000D03*
X71500Y-27000D03*
X71500Y-37750D03*
G54D12*
X36287Y-32894D03*
X35500Y-32894D03*
X34713Y-32894D03*
X36287Y-32106D03*
X35500Y-32106D03*
X34713Y-32106D03*
G54D13*
X37390Y-32500D03*
X33610Y-32500D03*
G54D14*
X21750Y-28169D03*
X24900Y-28169D03*
X26474Y-28169D03*
X25687Y-28169D03*
X23325Y-28169D03*
X24112Y-28169D03*
X22537Y-28169D03*
X28049Y-28169D03*
X28837Y-28169D03*
X27262Y-28169D03*
X27262Y-36831D03*
X28837Y-36831D03*
X28049Y-36831D03*
X22537Y-36831D03*
X24112Y-36831D03*
X23325Y-36831D03*
X25687Y-36831D03*
X26474Y-36831D03*
X24900Y-36831D03*
X21750Y-36831D03*
G54D13*
X42599Y-28920D03*
X43425Y-28920D03*
X47618Y-28920D03*
X48444Y-28920D03*
X52638Y-28920D03*
X53464Y-28920D03*
X62579Y-28920D03*
X63405Y-28920D03*
X67697Y-28920D03*
X68523Y-28920D03*
X57559Y-28920D03*
X58385Y-28920D03*
G54D15*
X68000Y-33700D03*
X68167Y-36500D03*
X15500Y-30700D03*
X15667Y-33500D03*
X63000Y-33700D03*
X63167Y-36500D03*
X53000Y-33700D03*
X53167Y-36500D03*
X48000Y-33700D03*
X48167Y-36500D03*
X43000Y-33700D03*
X43167Y-36500D03*
X58000Y-33700D03*
X58167Y-36500D03*
G54D16*
X63250Y-27000D03*
X28740Y-33819D03*
X33010Y-29020D03*
X33010Y-29500D03*
X33010Y-30030D03*
X33010Y-30500D03*
X33500Y-29000D03*
X33500Y-30500D03*
X33500Y-29500D03*
X34000Y-29000D03*
X34000Y-30750D03*
X33500Y-30000D03*
X34500Y-29000D03*
X34500Y-30750D03*
X19000Y-36250D03*
X34500Y-36000D03*
X32500Y-36000D03*
X19500Y-28750D03*
X19000Y-35750D03*
X20000Y-37250D03*
X32500Y-37000D03*
X19000Y-28750D03*
X19000Y-29250D03*
X19500Y-36250D03*
X21000Y-37250D03*
X20000Y-36250D03*
X33500Y-36000D03*
X33500Y-36500D03*
X19500Y-28250D03*
X33000Y-36000D03*
X19500Y-27750D03*
X33500Y-37000D03*
X19000Y-29750D03*
X20000Y-36750D03*
X19000Y-35250D03*
X20500Y-28250D03*
X20000Y-28750D03*
X19000Y-27750D03*
X32500Y-36500D03*
X20000Y-28250D03*
X33000Y-37000D03*
X19500Y-35750D03*
X20500Y-36750D03*
X19500Y-36750D03*
X19500Y-29250D03*
X33000Y-36500D03*
X21000Y-27750D03*
X20500Y-27750D03*
X20500Y-37250D03*
X19000Y-36750D03*
X19500Y-37250D03*
X34000Y-36000D03*
X20000Y-27750D03*
X19000Y-28250D03*
X19000Y-37250D03*
X20860Y-32560D03*
X27008Y-28898D03*
X29291Y-32441D03*
G54D17*
X24570Y-33150D02*
X24567Y-33150D01*
X33010Y-29500D02*
X33010Y-29020D01*
X33010Y-30500D02*
X33010Y-30030D01*
X33500Y-29000D02*
X33500Y-29500D01*
X33500Y-30000D02*
X33500Y-30500D01*
X34000Y-30750D02*
X34500Y-30750D01*
X34500Y-29000D02*
X34000Y-29000D01*
X33500Y-36000D02*
X33500Y-36500D01*
X20000Y-28250D02*
X20000Y-28750D01*
X19000Y-28750D02*
X19000Y-29250D01*
X20500Y-28250D02*
X20500Y-27750D01*
X33000Y-36500D02*
X33000Y-36000D01*
X19000Y-37250D02*
X19000Y-36750D01*
X19500Y-37250D02*
X20000Y-37250D01*
X34500Y-36000D02*
X34000Y-36000D01*
X19000Y-35250D02*
X19500Y-35750D01*
X19500Y-36250D02*
X19500Y-36750D01*
X33500Y-37000D02*
X33000Y-37000D01*
X19000Y-36250D02*
X19000Y-35750D01*
X19000Y-29750D02*
X19500Y-29250D01*
X32500Y-36000D02*
X32500Y-36500D01*
X19500Y-28750D02*
X19500Y-28250D01*
X19500Y-27750D02*
X20000Y-27750D01*
X20000Y-36750D02*
X20000Y-36250D01*
X19000Y-27750D02*
X19000Y-28250D01*
X20500Y-36750D02*
X20500Y-37250D01*
X34713Y-32894D02*
X33936Y-32894D01*
X21040Y-32740D02*
X20860Y-32560D01*
X33100Y-32740D02*
X21040Y-32740D01*
X33330Y-32970D02*
X33100Y-32740D01*
X33860Y-32970D02*
X33330Y-32970D01*
X33936Y-32894D02*
X33860Y-32970D01*
X22205Y-28898D02*
X27008Y-28898D01*
X21750Y-28443D02*
X22205Y-28898D01*
X21750Y-28169D02*
X21750Y-28443D01*
X34310Y-32106D02*
X34173Y-31969D01*
X33385Y-31969D02*
X32913Y-32441D01*
X32913Y-32441D02*
X29291Y-32441D01*
X34713Y-32106D02*
X34310Y-32106D01*
X34173Y-31969D02*
X33385Y-31969D01*
G54D10*
G36*
X72700Y-38950D02*
X72430Y-38950D01*
X72430Y-37565D01*
X72430Y-26815D01*
X72288Y-26473D01*
X72027Y-26212D01*
X71685Y-26070D01*
X71315Y-26069D01*
X70973Y-26211D01*
X70712Y-26472D01*
X70570Y-26814D01*
X70569Y-27184D01*
X70711Y-27526D01*
X70972Y-27787D01*
X71314Y-27929D01*
X71684Y-27930D01*
X72026Y-27788D01*
X72287Y-27527D01*
X72429Y-27185D01*
X72430Y-26815D01*
X72430Y-37565D01*
X72288Y-37223D01*
X72027Y-36962D01*
X71685Y-36820D01*
X71315Y-36819D01*
X70973Y-36961D01*
X70712Y-37222D01*
X70570Y-37564D01*
X70569Y-37934D01*
X70711Y-38276D01*
X70972Y-38537D01*
X71314Y-38679D01*
X71684Y-38680D01*
X72026Y-38538D01*
X72287Y-38277D01*
X72429Y-37935D01*
X72430Y-37565D01*
X72430Y-38950D01*
X69567Y-38950D01*
X69567Y-36222D01*
X69422Y-35871D01*
X69422Y-33578D01*
X69360Y-33267D01*
X69251Y-33084D01*
X69008Y-33328D01*
X69008Y-28856D01*
X68995Y-28792D01*
X68945Y-28745D01*
X68770Y-28920D01*
X68945Y-29094D01*
X68995Y-29047D01*
X69008Y-28856D01*
X69008Y-33328D01*
X68697Y-33638D01*
X68697Y-29342D01*
X68697Y-28497D01*
X68650Y-28447D01*
X68459Y-28434D01*
X68395Y-28447D01*
X68348Y-28497D01*
X68523Y-28672D01*
X68697Y-28497D01*
X68697Y-29342D01*
X68523Y-29167D01*
X68348Y-29342D01*
X68395Y-29392D01*
X68586Y-29405D01*
X68650Y-29392D01*
X68697Y-29342D01*
X68697Y-33638D01*
X68636Y-33700D01*
X69251Y-34315D01*
X69360Y-34132D01*
X69422Y-33578D01*
X69422Y-35871D01*
X69354Y-35707D01*
X68961Y-35313D01*
X68446Y-35100D01*
X68232Y-35100D01*
X68432Y-35060D01*
X68615Y-34951D01*
X68615Y-32448D01*
X68432Y-32339D01*
X68275Y-32322D01*
X68275Y-28920D01*
X68174Y-28819D01*
X68104Y-28648D01*
X67969Y-28513D01*
X67792Y-28440D01*
X67601Y-28439D01*
X67425Y-28512D01*
X67290Y-28647D01*
X67217Y-28824D01*
X67216Y-29015D01*
X67289Y-29191D01*
X67424Y-29326D01*
X67601Y-29399D01*
X67792Y-29400D01*
X67968Y-29327D01*
X68103Y-29192D01*
X68174Y-29020D01*
X68275Y-28920D01*
X68275Y-32322D01*
X67878Y-32277D01*
X67567Y-32339D01*
X67384Y-32448D01*
X68000Y-33063D01*
X68615Y-32448D01*
X68615Y-34951D01*
X68000Y-34336D01*
X67384Y-34951D01*
X67567Y-35060D01*
X67920Y-35099D01*
X67889Y-35099D01*
X67374Y-35312D01*
X67363Y-35323D01*
X67363Y-33700D01*
X66748Y-33084D01*
X66639Y-33267D01*
X66577Y-33821D01*
X66639Y-34132D01*
X66748Y-34315D01*
X67363Y-33700D01*
X67363Y-35323D01*
X66980Y-35705D01*
X66767Y-36220D01*
X66766Y-36777D01*
X66979Y-37292D01*
X67372Y-37686D01*
X67887Y-37899D01*
X68444Y-37900D01*
X68959Y-37687D01*
X69353Y-37294D01*
X69566Y-36779D01*
X69567Y-36222D01*
X69567Y-38950D01*
X64567Y-38950D01*
X64567Y-36222D01*
X64422Y-35871D01*
X64422Y-33578D01*
X64360Y-33267D01*
X64251Y-33084D01*
X63890Y-33446D01*
X63890Y-28856D01*
X63877Y-28792D01*
X63827Y-28745D01*
X63652Y-28920D01*
X63827Y-29094D01*
X63877Y-29047D01*
X63890Y-28856D01*
X63890Y-33446D01*
X63636Y-33700D01*
X64251Y-34315D01*
X64360Y-34132D01*
X64422Y-33578D01*
X64422Y-35871D01*
X64354Y-35707D01*
X63961Y-35313D01*
X63446Y-35100D01*
X63232Y-35100D01*
X63432Y-35060D01*
X63615Y-34951D01*
X63615Y-32448D01*
X63579Y-32426D01*
X63579Y-29342D01*
X63579Y-28497D01*
X63532Y-28447D01*
X63341Y-28434D01*
X63277Y-28447D01*
X63230Y-28497D01*
X63405Y-28672D01*
X63579Y-28497D01*
X63579Y-29342D01*
X63405Y-29167D01*
X63230Y-29342D01*
X63277Y-29392D01*
X63468Y-29405D01*
X63532Y-29392D01*
X63579Y-29342D01*
X63579Y-32426D01*
X63432Y-32339D01*
X63157Y-32308D01*
X63157Y-28920D01*
X63056Y-28819D01*
X62986Y-28648D01*
X62851Y-28513D01*
X62674Y-28440D01*
X62483Y-28439D01*
X62307Y-28512D01*
X62172Y-28647D01*
X62099Y-28824D01*
X62098Y-29015D01*
X62171Y-29191D01*
X62306Y-29326D01*
X62483Y-29399D01*
X62674Y-29400D01*
X62850Y-29327D01*
X62985Y-29192D01*
X63056Y-29020D01*
X63157Y-28920D01*
X63157Y-32308D01*
X62878Y-32277D01*
X62567Y-32339D01*
X62384Y-32448D01*
X63000Y-33063D01*
X63615Y-32448D01*
X63615Y-34951D01*
X63000Y-34336D01*
X62384Y-34951D01*
X62567Y-35060D01*
X62920Y-35099D01*
X62889Y-35099D01*
X62374Y-35312D01*
X62363Y-35323D01*
X62363Y-33700D01*
X61748Y-33084D01*
X61639Y-33267D01*
X61577Y-33821D01*
X61639Y-34132D01*
X61748Y-34315D01*
X62363Y-33700D01*
X62363Y-35323D01*
X61980Y-35705D01*
X61767Y-36220D01*
X61766Y-36777D01*
X61979Y-37292D01*
X62372Y-37686D01*
X62887Y-37899D01*
X63444Y-37900D01*
X63959Y-37687D01*
X64353Y-37294D01*
X64566Y-36779D01*
X64567Y-36222D01*
X64567Y-38950D01*
X59567Y-38950D01*
X59567Y-36222D01*
X59422Y-35871D01*
X59422Y-33578D01*
X59360Y-33267D01*
X59251Y-33084D01*
X58870Y-33466D01*
X58870Y-28856D01*
X58857Y-28792D01*
X58807Y-28745D01*
X58632Y-28920D01*
X58807Y-29094D01*
X58857Y-29047D01*
X58870Y-28856D01*
X58870Y-33466D01*
X58636Y-33700D01*
X59251Y-34315D01*
X59360Y-34132D01*
X59422Y-33578D01*
X59422Y-35871D01*
X59354Y-35707D01*
X58961Y-35313D01*
X58446Y-35100D01*
X58232Y-35100D01*
X58432Y-35060D01*
X58615Y-34951D01*
X58615Y-32448D01*
X58559Y-32415D01*
X58559Y-29342D01*
X58559Y-28497D01*
X58512Y-28447D01*
X58321Y-28434D01*
X58257Y-28447D01*
X58210Y-28497D01*
X58385Y-28672D01*
X58559Y-28497D01*
X58559Y-29342D01*
X58385Y-29167D01*
X58210Y-29342D01*
X58257Y-29392D01*
X58448Y-29405D01*
X58512Y-29392D01*
X58559Y-29342D01*
X58559Y-32415D01*
X58432Y-32339D01*
X58137Y-32306D01*
X58137Y-28920D01*
X58036Y-28819D01*
X57966Y-28648D01*
X57831Y-28513D01*
X57654Y-28440D01*
X57463Y-28439D01*
X57287Y-28512D01*
X57152Y-28647D01*
X57079Y-28824D01*
X57078Y-29015D01*
X57151Y-29191D01*
X57286Y-29326D01*
X57463Y-29399D01*
X57654Y-29400D01*
X57830Y-29327D01*
X57965Y-29192D01*
X58036Y-29020D01*
X58137Y-28920D01*
X58137Y-32306D01*
X57878Y-32277D01*
X57567Y-32339D01*
X57384Y-32448D01*
X58000Y-33063D01*
X58615Y-32448D01*
X58615Y-34951D01*
X58000Y-34336D01*
X57384Y-34951D01*
X57567Y-35060D01*
X57920Y-35099D01*
X57889Y-35099D01*
X57374Y-35312D01*
X57363Y-35323D01*
X57363Y-33700D01*
X56748Y-33084D01*
X56639Y-33267D01*
X56577Y-33821D01*
X56639Y-34132D01*
X56748Y-34315D01*
X57363Y-33700D01*
X57363Y-35323D01*
X56980Y-35705D01*
X56767Y-36220D01*
X56766Y-36777D01*
X56979Y-37292D01*
X57372Y-37686D01*
X57887Y-37899D01*
X58444Y-37900D01*
X58959Y-37687D01*
X59353Y-37294D01*
X59566Y-36779D01*
X59567Y-36222D01*
X59567Y-38950D01*
X54567Y-38950D01*
X54567Y-36222D01*
X54422Y-35871D01*
X54422Y-33578D01*
X54360Y-33267D01*
X54251Y-33084D01*
X53949Y-33387D01*
X53949Y-28856D01*
X53936Y-28792D01*
X53886Y-28745D01*
X53711Y-28920D01*
X53886Y-29094D01*
X53936Y-29047D01*
X53949Y-28856D01*
X53949Y-33387D01*
X53638Y-33697D01*
X53638Y-29342D01*
X53638Y-28497D01*
X53591Y-28447D01*
X53400Y-28434D01*
X53336Y-28447D01*
X53289Y-28497D01*
X53464Y-28672D01*
X53638Y-28497D01*
X53638Y-29342D01*
X53464Y-29167D01*
X53289Y-29342D01*
X53336Y-29392D01*
X53527Y-29405D01*
X53591Y-29392D01*
X53638Y-29342D01*
X53638Y-33697D01*
X53636Y-33700D01*
X54251Y-34315D01*
X54360Y-34132D01*
X54422Y-33578D01*
X54422Y-35871D01*
X54354Y-35707D01*
X53961Y-35313D01*
X53446Y-35100D01*
X53232Y-35100D01*
X53432Y-35060D01*
X53615Y-34951D01*
X53615Y-32448D01*
X53432Y-32339D01*
X53216Y-32315D01*
X53216Y-28920D01*
X53115Y-28819D01*
X53045Y-28648D01*
X52910Y-28513D01*
X52733Y-28440D01*
X52542Y-28439D01*
X52366Y-28512D01*
X52231Y-28647D01*
X52158Y-28824D01*
X52157Y-29015D01*
X52230Y-29191D01*
X52365Y-29326D01*
X52542Y-29399D01*
X52733Y-29400D01*
X52909Y-29327D01*
X53044Y-29192D01*
X53115Y-29020D01*
X53216Y-28920D01*
X53216Y-32315D01*
X52878Y-32277D01*
X52567Y-32339D01*
X52384Y-32448D01*
X53000Y-33063D01*
X53615Y-32448D01*
X53615Y-34951D01*
X53000Y-34336D01*
X52384Y-34951D01*
X52567Y-35060D01*
X52920Y-35099D01*
X52889Y-35099D01*
X52374Y-35312D01*
X52363Y-35323D01*
X52363Y-33700D01*
X51748Y-33084D01*
X51639Y-33267D01*
X51577Y-33821D01*
X51639Y-34132D01*
X51748Y-34315D01*
X52363Y-33700D01*
X52363Y-35323D01*
X51980Y-35705D01*
X51767Y-36220D01*
X51766Y-36777D01*
X51979Y-37292D01*
X52372Y-37686D01*
X52887Y-37899D01*
X53444Y-37900D01*
X53959Y-37687D01*
X54353Y-37294D01*
X54566Y-36779D01*
X54567Y-36222D01*
X54567Y-38950D01*
X49567Y-38950D01*
X49567Y-36222D01*
X49422Y-35871D01*
X49422Y-33578D01*
X49360Y-33267D01*
X49251Y-33084D01*
X48929Y-33407D01*
X48929Y-28856D01*
X48916Y-28792D01*
X48866Y-28745D01*
X48691Y-28920D01*
X48866Y-29094D01*
X48916Y-29047D01*
X48929Y-28856D01*
X48929Y-33407D01*
X48636Y-33700D01*
X49251Y-34315D01*
X49360Y-34132D01*
X49422Y-33578D01*
X49422Y-35871D01*
X49354Y-35707D01*
X48961Y-35313D01*
X48618Y-35171D01*
X48618Y-29342D01*
X48618Y-28497D01*
X48571Y-28447D01*
X48380Y-28434D01*
X48316Y-28447D01*
X48269Y-28497D01*
X48444Y-28672D01*
X48618Y-28497D01*
X48618Y-29342D01*
X48444Y-29167D01*
X48269Y-29342D01*
X48316Y-29392D01*
X48507Y-29405D01*
X48571Y-29392D01*
X48618Y-29342D01*
X48618Y-35171D01*
X48446Y-35100D01*
X48232Y-35100D01*
X48432Y-35060D01*
X48615Y-34951D01*
X48615Y-32448D01*
X48432Y-32339D01*
X48196Y-32313D01*
X48196Y-28920D01*
X48095Y-28819D01*
X48025Y-28648D01*
X47890Y-28513D01*
X47713Y-28440D01*
X47522Y-28439D01*
X47346Y-28512D01*
X47211Y-28647D01*
X47138Y-28824D01*
X47137Y-29015D01*
X47210Y-29191D01*
X47345Y-29326D01*
X47522Y-29399D01*
X47713Y-29400D01*
X47889Y-29327D01*
X48024Y-29192D01*
X48095Y-29020D01*
X48196Y-28920D01*
X48196Y-32313D01*
X47878Y-32277D01*
X47567Y-32339D01*
X47384Y-32448D01*
X48000Y-33063D01*
X48615Y-32448D01*
X48615Y-34951D01*
X48000Y-34336D01*
X47384Y-34951D01*
X47567Y-35060D01*
X47920Y-35099D01*
X47889Y-35099D01*
X47374Y-35312D01*
X47363Y-35323D01*
X47363Y-33700D01*
X46748Y-33084D01*
X46639Y-33267D01*
X46577Y-33821D01*
X46639Y-34132D01*
X46748Y-34315D01*
X47363Y-33700D01*
X47363Y-35323D01*
X46980Y-35705D01*
X46767Y-36220D01*
X46766Y-36777D01*
X46979Y-37292D01*
X47372Y-37686D01*
X47887Y-37899D01*
X48444Y-37900D01*
X48959Y-37687D01*
X49353Y-37294D01*
X49566Y-36779D01*
X49567Y-36222D01*
X49567Y-38950D01*
X44567Y-38950D01*
X44567Y-36222D01*
X44422Y-35871D01*
X44422Y-33578D01*
X44360Y-33267D01*
X44251Y-33084D01*
X43910Y-33426D01*
X43910Y-28856D01*
X43897Y-28792D01*
X43847Y-28745D01*
X43672Y-28920D01*
X43847Y-29094D01*
X43897Y-29047D01*
X43910Y-28856D01*
X43910Y-33426D01*
X43636Y-33700D01*
X44251Y-34315D01*
X44360Y-34132D01*
X44422Y-33578D01*
X44422Y-35871D01*
X44354Y-35707D01*
X43961Y-35313D01*
X43446Y-35100D01*
X43232Y-35100D01*
X43432Y-35060D01*
X43615Y-34951D01*
X43615Y-32448D01*
X43599Y-32438D01*
X43599Y-29342D01*
X43599Y-28497D01*
X43552Y-28447D01*
X43361Y-28434D01*
X43297Y-28447D01*
X43250Y-28497D01*
X43425Y-28672D01*
X43599Y-28497D01*
X43599Y-29342D01*
X43425Y-29167D01*
X43250Y-29342D01*
X43297Y-29392D01*
X43488Y-29405D01*
X43552Y-29392D01*
X43599Y-29342D01*
X43599Y-32438D01*
X43432Y-32339D01*
X43177Y-32311D01*
X43177Y-28920D01*
X43076Y-28819D01*
X43006Y-28648D01*
X42871Y-28513D01*
X42694Y-28440D01*
X42503Y-28439D01*
X42327Y-28512D01*
X42192Y-28647D01*
X42119Y-28824D01*
X42118Y-29015D01*
X42191Y-29191D01*
X42326Y-29326D01*
X42503Y-29399D01*
X42694Y-29400D01*
X42870Y-29327D01*
X43005Y-29192D01*
X43076Y-29020D01*
X43177Y-28920D01*
X43177Y-32311D01*
X42878Y-32277D01*
X42567Y-32339D01*
X42384Y-32448D01*
X43000Y-33063D01*
X43615Y-32448D01*
X43615Y-34951D01*
X43000Y-34336D01*
X42384Y-34951D01*
X42567Y-35060D01*
X42920Y-35099D01*
X42889Y-35099D01*
X42374Y-35312D01*
X42363Y-35323D01*
X42363Y-33700D01*
X41748Y-33084D01*
X41639Y-33267D01*
X41577Y-33821D01*
X41639Y-34132D01*
X41748Y-34315D01*
X42363Y-33700D01*
X42363Y-35323D01*
X41980Y-35705D01*
X41767Y-36220D01*
X41766Y-36777D01*
X41979Y-37292D01*
X42372Y-37686D01*
X42887Y-37899D01*
X43444Y-37900D01*
X43959Y-37687D01*
X44353Y-37294D01*
X44566Y-36779D01*
X44567Y-36222D01*
X44567Y-38950D01*
X37870Y-38950D01*
X37870Y-32404D01*
X37797Y-32228D01*
X37662Y-32093D01*
X37485Y-32020D01*
X37294Y-32019D01*
X37118Y-32092D01*
X36983Y-32227D01*
X36910Y-32404D01*
X36909Y-32595D01*
X36982Y-32771D01*
X37117Y-32906D01*
X37294Y-32979D01*
X37485Y-32980D01*
X37661Y-32907D01*
X37796Y-32772D01*
X37869Y-32595D01*
X37870Y-32404D01*
X37870Y-38950D01*
X36653Y-38950D01*
X36653Y-32821D01*
X36597Y-32686D01*
X36494Y-32583D01*
X36360Y-32528D01*
X36214Y-32527D01*
X36079Y-32583D01*
X36050Y-32613D01*
X36050Y-32386D01*
X36079Y-32416D01*
X36213Y-32471D01*
X36359Y-32472D01*
X36494Y-32416D01*
X36597Y-32313D01*
X36652Y-32179D01*
X36653Y-32033D01*
X36597Y-31898D01*
X36494Y-31795D01*
X36360Y-31740D01*
X36214Y-31739D01*
X36079Y-31795D01*
X35976Y-31898D01*
X35921Y-32032D01*
X35920Y-32178D01*
X35946Y-32240D01*
X35840Y-32240D01*
X35865Y-32179D01*
X35866Y-32033D01*
X35810Y-31898D01*
X35707Y-31795D01*
X35573Y-31740D01*
X35550Y-31740D01*
X35550Y-31300D01*
X35550Y-27200D01*
X18450Y-27200D01*
X18450Y-31300D01*
X35550Y-31300D01*
X35550Y-31740D01*
X35427Y-31739D01*
X35292Y-31795D01*
X35189Y-31898D01*
X35134Y-32032D01*
X35133Y-32178D01*
X35159Y-32240D01*
X35053Y-32240D01*
X35078Y-32179D01*
X35079Y-32033D01*
X35023Y-31898D01*
X34920Y-31795D01*
X34786Y-31740D01*
X34640Y-31739D01*
X34505Y-31795D01*
X34402Y-31898D01*
X34387Y-31936D01*
X34380Y-31936D01*
X34293Y-31848D01*
X34238Y-31811D01*
X34173Y-31799D01*
X33385Y-31799D01*
X33319Y-31811D01*
X33264Y-31848D01*
X33264Y-31848D01*
X32842Y-32271D01*
X29577Y-32271D01*
X29570Y-32254D01*
X29478Y-32161D01*
X29356Y-32111D01*
X29225Y-32110D01*
X29104Y-32161D01*
X29011Y-32253D01*
X28961Y-32375D01*
X28960Y-32506D01*
X28987Y-32570D01*
X21189Y-32570D01*
X21190Y-32494D01*
X21139Y-32373D01*
X21047Y-32280D01*
X20925Y-32230D01*
X20794Y-32229D01*
X20673Y-32280D01*
X20580Y-32372D01*
X20530Y-32494D01*
X20529Y-32625D01*
X20580Y-32746D01*
X20672Y-32839D01*
X20794Y-32889D01*
X20925Y-32890D01*
X20949Y-32880D01*
X20974Y-32897D01*
X21040Y-32910D01*
X33029Y-32910D01*
X33209Y-33090D01*
X33209Y-33090D01*
X33264Y-33127D01*
X33330Y-33140D01*
X33860Y-33140D01*
X33925Y-33127D01*
X33925Y-33127D01*
X33980Y-33090D01*
X34006Y-33064D01*
X34387Y-33064D01*
X34402Y-33101D01*
X34505Y-33204D01*
X34639Y-33259D01*
X34785Y-33260D01*
X34920Y-33204D01*
X35023Y-33101D01*
X35068Y-32991D01*
X35129Y-32931D01*
X35144Y-33006D01*
X35190Y-33036D01*
X35333Y-32894D01*
X35279Y-32840D01*
X35550Y-32840D01*
X35720Y-32840D01*
X35666Y-32894D01*
X35809Y-33036D01*
X35855Y-33006D01*
X35864Y-32925D01*
X35931Y-32991D01*
X35976Y-33101D01*
X36079Y-33204D01*
X36213Y-33259D01*
X36359Y-33260D01*
X36494Y-33204D01*
X36597Y-33101D01*
X36652Y-32967D01*
X36653Y-32821D01*
X36653Y-38950D01*
X35642Y-38950D01*
X35642Y-33203D01*
X35550Y-33110D01*
X35500Y-33060D01*
X35357Y-33203D01*
X35387Y-33249D01*
X35532Y-33265D01*
X35550Y-33262D01*
X35612Y-33249D01*
X35642Y-33203D01*
X35642Y-38950D01*
X35550Y-38950D01*
X35550Y-37800D01*
X35550Y-34200D01*
X24740Y-34200D01*
X24740Y-33150D01*
X24727Y-33084D01*
X24690Y-33029D01*
X24635Y-32992D01*
X24570Y-32980D01*
X24567Y-32980D01*
X24501Y-32992D01*
X24446Y-33029D01*
X24409Y-33084D01*
X24397Y-33150D01*
X24409Y-33215D01*
X24446Y-33270D01*
X24501Y-33307D01*
X24567Y-33320D01*
X24570Y-33320D01*
X24635Y-33307D01*
X24690Y-33270D01*
X24727Y-33215D01*
X24740Y-33150D01*
X24740Y-34200D01*
X18450Y-34200D01*
X18450Y-37800D01*
X35550Y-37800D01*
X35550Y-38950D01*
X35500Y-38950D01*
X17067Y-38950D01*
X17067Y-33222D01*
X16922Y-32871D01*
X16922Y-30578D01*
X16860Y-30267D01*
X16751Y-30084D01*
X16136Y-30700D01*
X16751Y-31315D01*
X16860Y-31132D01*
X16922Y-30578D01*
X16922Y-32871D01*
X16854Y-32707D01*
X16461Y-32313D01*
X15946Y-32100D01*
X15732Y-32100D01*
X15932Y-32060D01*
X16115Y-31951D01*
X16115Y-29448D01*
X15932Y-29339D01*
X15378Y-29277D01*
X15067Y-29339D01*
X14884Y-29448D01*
X15500Y-30063D01*
X16115Y-29448D01*
X16115Y-31951D01*
X15500Y-31336D01*
X14884Y-31951D01*
X15067Y-32060D01*
X15420Y-32099D01*
X15389Y-32099D01*
X14874Y-32312D01*
X14863Y-32323D01*
X14863Y-30700D01*
X14248Y-30084D01*
X14139Y-30267D01*
X14077Y-30821D01*
X14139Y-31132D01*
X14248Y-31315D01*
X14863Y-30700D01*
X14863Y-32323D01*
X14480Y-32705D01*
X14267Y-33220D01*
X14266Y-33777D01*
X14479Y-34292D01*
X14872Y-34686D01*
X15387Y-34899D01*
X15944Y-34900D01*
X16459Y-34687D01*
X16853Y-34294D01*
X17066Y-33779D01*
X17067Y-33222D01*
X17067Y-38950D01*
X13930Y-38950D01*
X13930Y-37315D01*
X13930Y-26815D01*
X13788Y-26473D01*
X13527Y-26212D01*
X13185Y-26070D01*
X12815Y-26069D01*
X12473Y-26211D01*
X12212Y-26472D01*
X12070Y-26814D01*
X12069Y-27184D01*
X12211Y-27526D01*
X12472Y-27787D01*
X12814Y-27929D01*
X13184Y-27930D01*
X13526Y-27788D01*
X13787Y-27527D01*
X13929Y-27185D01*
X13930Y-26815D01*
X13930Y-37315D01*
X13788Y-36973D01*
X13527Y-36712D01*
X13185Y-36570D01*
X12815Y-36569D01*
X12473Y-36711D01*
X12212Y-36972D01*
X12070Y-37314D01*
X12069Y-37684D01*
X12211Y-38026D01*
X12472Y-38287D01*
X12814Y-38429D01*
X13184Y-38430D01*
X13526Y-38288D01*
X13787Y-38027D01*
X13929Y-37685D01*
X13930Y-37315D01*
X13930Y-38950D01*
X11800Y-38950D01*
X11800Y-25800D01*
X72700Y-25800D01*
X72700Y-38950D01*
X72700Y-38950D01*
G37*
G54D18*
X72700Y-38950D02*
X72430Y-38950D01*
X72430Y-37565D01*
X72430Y-26815D01*
X72288Y-26473D01*
X72027Y-26212D01*
X71685Y-26070D01*
X71315Y-26069D01*
X70973Y-26211D01*
X70712Y-26472D01*
X70570Y-26814D01*
X70569Y-27184D01*
X70711Y-27526D01*
X70972Y-27787D01*
X71314Y-27929D01*
X71684Y-27930D01*
X72026Y-27788D01*
X72287Y-27527D01*
X72429Y-27185D01*
X72430Y-26815D01*
X72430Y-37565D01*
X72288Y-37223D01*
X72027Y-36962D01*
X71685Y-36820D01*
X71315Y-36819D01*
X70973Y-36961D01*
X70712Y-37222D01*
X70570Y-37564D01*
X70569Y-37934D01*
X70711Y-38276D01*
X70972Y-38537D01*
X71314Y-38679D01*
X71684Y-38680D01*
X72026Y-38538D01*
X72287Y-38277D01*
X72429Y-37935D01*
X72430Y-37565D01*
X72430Y-38950D01*
X69567Y-38950D01*
X69567Y-36222D01*
X69422Y-35871D01*
X69422Y-33578D01*
X69360Y-33267D01*
X69251Y-33084D01*
X69008Y-33328D01*
X69008Y-28856D01*
X68995Y-28792D01*
X68945Y-28745D01*
X68770Y-28920D01*
X68945Y-29094D01*
X68995Y-29047D01*
X69008Y-28856D01*
X69008Y-33328D01*
X68697Y-33638D01*
X68697Y-29342D01*
X68697Y-28497D01*
X68650Y-28447D01*
X68459Y-28434D01*
X68395Y-28447D01*
X68348Y-28497D01*
X68523Y-28672D01*
X68697Y-28497D01*
X68697Y-29342D01*
X68523Y-29167D01*
X68348Y-29342D01*
X68395Y-29392D01*
X68586Y-29405D01*
X68650Y-29392D01*
X68697Y-29342D01*
X68697Y-33638D01*
X68636Y-33700D01*
X69251Y-34315D01*
X69360Y-34132D01*
X69422Y-33578D01*
X69422Y-35871D01*
X69354Y-35707D01*
X68961Y-35313D01*
X68446Y-35100D01*
X68232Y-35100D01*
X68432Y-35060D01*
X68615Y-34951D01*
X68615Y-32448D01*
X68432Y-32339D01*
X68275Y-32322D01*
X68275Y-28920D01*
X68174Y-28819D01*
X68104Y-28648D01*
X67969Y-28513D01*
X67792Y-28440D01*
X67601Y-28439D01*
X67425Y-28512D01*
X67290Y-28647D01*
X67217Y-28824D01*
X67216Y-29015D01*
X67289Y-29191D01*
X67424Y-29326D01*
X67601Y-29399D01*
X67792Y-29400D01*
X67968Y-29327D01*
X68103Y-29192D01*
X68174Y-29020D01*
X68275Y-28920D01*
X68275Y-32322D01*
X67878Y-32277D01*
X67567Y-32339D01*
X67384Y-32448D01*
X68000Y-33063D01*
X68615Y-32448D01*
X68615Y-34951D01*
X68000Y-34336D01*
X67384Y-34951D01*
X67567Y-35060D01*
X67920Y-35099D01*
X67889Y-35099D01*
X67374Y-35312D01*
X67363Y-35323D01*
X67363Y-33700D01*
X66748Y-33084D01*
X66639Y-33267D01*
X66577Y-33821D01*
X66639Y-34132D01*
X66748Y-34315D01*
X67363Y-33700D01*
X67363Y-35323D01*
X66980Y-35705D01*
X66767Y-36220D01*
X66766Y-36777D01*
X66979Y-37292D01*
X67372Y-37686D01*
X67887Y-37899D01*
X68444Y-37900D01*
X68959Y-37687D01*
X69353Y-37294D01*
X69566Y-36779D01*
X69567Y-36222D01*
X69567Y-38950D01*
X64567Y-38950D01*
X64567Y-36222D01*
X64422Y-35871D01*
X64422Y-33578D01*
X64360Y-33267D01*
X64251Y-33084D01*
X63890Y-33446D01*
X63890Y-28856D01*
X63877Y-28792D01*
X63827Y-28745D01*
X63652Y-28920D01*
X63827Y-29094D01*
X63877Y-29047D01*
X63890Y-28856D01*
X63890Y-33446D01*
X63636Y-33700D01*
X64251Y-34315D01*
X64360Y-34132D01*
X64422Y-33578D01*
X64422Y-35871D01*
X64354Y-35707D01*
X63961Y-35313D01*
X63446Y-35100D01*
X63232Y-35100D01*
X63432Y-35060D01*
X63615Y-34951D01*
X63615Y-32448D01*
X63579Y-32426D01*
X63579Y-29342D01*
X63579Y-28497D01*
X63532Y-28447D01*
X63341Y-28434D01*
X63277Y-28447D01*
X63230Y-28497D01*
X63405Y-28672D01*
X63579Y-28497D01*
X63579Y-29342D01*
X63405Y-29167D01*
X63230Y-29342D01*
X63277Y-29392D01*
X63468Y-29405D01*
X63532Y-29392D01*
X63579Y-29342D01*
X63579Y-32426D01*
X63432Y-32339D01*
X63157Y-32308D01*
X63157Y-28920D01*
X63056Y-28819D01*
X62986Y-28648D01*
X62851Y-28513D01*
X62674Y-28440D01*
X62483Y-28439D01*
X62307Y-28512D01*
X62172Y-28647D01*
X62099Y-28824D01*
X62098Y-29015D01*
X62171Y-29191D01*
X62306Y-29326D01*
X62483Y-29399D01*
X62674Y-29400D01*
X62850Y-29327D01*
X62985Y-29192D01*
X63056Y-29020D01*
X63157Y-28920D01*
X63157Y-32308D01*
X62878Y-32277D01*
X62567Y-32339D01*
X62384Y-32448D01*
X63000Y-33063D01*
X63615Y-32448D01*
X63615Y-34951D01*
X63000Y-34336D01*
X62384Y-34951D01*
X62567Y-35060D01*
X62920Y-35099D01*
X62889Y-35099D01*
X62374Y-35312D01*
X62363Y-35323D01*
X62363Y-33700D01*
X61748Y-33084D01*
X61639Y-33267D01*
X61577Y-33821D01*
X61639Y-34132D01*
X61748Y-34315D01*
X62363Y-33700D01*
X62363Y-35323D01*
X61980Y-35705D01*
X61767Y-36220D01*
X61766Y-36777D01*
X61979Y-37292D01*
X62372Y-37686D01*
X62887Y-37899D01*
X63444Y-37900D01*
X63959Y-37687D01*
X64353Y-37294D01*
X64566Y-36779D01*
X64567Y-36222D01*
X64567Y-38950D01*
X59567Y-38950D01*
X59567Y-36222D01*
X59422Y-35871D01*
X59422Y-33578D01*
X59360Y-33267D01*
X59251Y-33084D01*
X58870Y-33466D01*
X58870Y-28856D01*
X58857Y-28792D01*
X58807Y-28745D01*
X58632Y-28920D01*
X58807Y-29094D01*
X58857Y-29047D01*
X58870Y-28856D01*
X58870Y-33466D01*
X58636Y-33700D01*
X59251Y-34315D01*
X59360Y-34132D01*
X59422Y-33578D01*
X59422Y-35871D01*
X59354Y-35707D01*
X58961Y-35313D01*
X58446Y-35100D01*
X58232Y-35100D01*
X58432Y-35060D01*
X58615Y-34951D01*
X58615Y-32448D01*
X58559Y-32415D01*
X58559Y-29342D01*
X58559Y-28497D01*
X58512Y-28447D01*
X58321Y-28434D01*
X58257Y-28447D01*
X58210Y-28497D01*
X58385Y-28672D01*
X58559Y-28497D01*
X58559Y-29342D01*
X58385Y-29167D01*
X58210Y-29342D01*
X58257Y-29392D01*
X58448Y-29405D01*
X58512Y-29392D01*
X58559Y-29342D01*
X58559Y-32415D01*
X58432Y-32339D01*
X58137Y-32306D01*
X58137Y-28920D01*
X58036Y-28819D01*
X57966Y-28648D01*
X57831Y-28513D01*
X57654Y-28440D01*
X57463Y-28439D01*
X57287Y-28512D01*
X57152Y-28647D01*
X57079Y-28824D01*
X57078Y-29015D01*
X57151Y-29191D01*
X57286Y-29326D01*
X57463Y-29399D01*
X57654Y-29400D01*
X57830Y-29327D01*
X57965Y-29192D01*
X58036Y-29020D01*
X58137Y-28920D01*
X58137Y-32306D01*
X57878Y-32277D01*
X57567Y-32339D01*
X57384Y-32448D01*
X58000Y-33063D01*
X58615Y-32448D01*
X58615Y-34951D01*
X58000Y-34336D01*
X57384Y-34951D01*
X57567Y-35060D01*
X57920Y-35099D01*
X57889Y-35099D01*
X57374Y-35312D01*
X57363Y-35323D01*
X57363Y-33700D01*
X56748Y-33084D01*
X56639Y-33267D01*
X56577Y-33821D01*
X56639Y-34132D01*
X56748Y-34315D01*
X57363Y-33700D01*
X57363Y-35323D01*
X56980Y-35705D01*
X56767Y-36220D01*
X56766Y-36777D01*
X56979Y-37292D01*
X57372Y-37686D01*
X57887Y-37899D01*
X58444Y-37900D01*
X58959Y-37687D01*
X59353Y-37294D01*
X59566Y-36779D01*
X59567Y-36222D01*
X59567Y-38950D01*
X54567Y-38950D01*
X54567Y-36222D01*
X54422Y-35871D01*
X54422Y-33578D01*
X54360Y-33267D01*
X54251Y-33084D01*
X53949Y-33387D01*
X53949Y-28856D01*
X53936Y-28792D01*
X53886Y-28745D01*
X53711Y-28920D01*
X53886Y-29094D01*
X53936Y-29047D01*
X53949Y-28856D01*
X53949Y-33387D01*
X53638Y-33697D01*
X53638Y-29342D01*
X53638Y-28497D01*
X53591Y-28447D01*
X53400Y-28434D01*
X53336Y-28447D01*
X53289Y-28497D01*
X53464Y-28672D01*
X53638Y-28497D01*
X53638Y-29342D01*
X53464Y-29167D01*
X53289Y-29342D01*
X53336Y-29392D01*
X53527Y-29405D01*
X53591Y-29392D01*
X53638Y-29342D01*
X53638Y-33697D01*
X53636Y-33700D01*
X54251Y-34315D01*
X54360Y-34132D01*
X54422Y-33578D01*
X54422Y-35871D01*
X54354Y-35707D01*
X53961Y-35313D01*
X53446Y-35100D01*
X53232Y-35100D01*
X53432Y-35060D01*
X53615Y-34951D01*
X53615Y-32448D01*
X53432Y-32339D01*
X53216Y-32315D01*
X53216Y-28920D01*
X53115Y-28819D01*
X53045Y-28648D01*
X52910Y-28513D01*
X52733Y-28440D01*
X52542Y-28439D01*
X52366Y-28512D01*
X52231Y-28647D01*
X52158Y-28824D01*
X52157Y-29015D01*
X52230Y-29191D01*
X52365Y-29326D01*
X52542Y-29399D01*
X52733Y-29400D01*
X52909Y-29327D01*
X53044Y-29192D01*
X53115Y-29020D01*
X53216Y-28920D01*
X53216Y-32315D01*
X52878Y-32277D01*
X52567Y-32339D01*
X52384Y-32448D01*
X53000Y-33063D01*
X53615Y-32448D01*
X53615Y-34951D01*
X53000Y-34336D01*
X52384Y-34951D01*
X52567Y-35060D01*
X52920Y-35099D01*
X52889Y-35099D01*
X52374Y-35312D01*
X52363Y-35323D01*
X52363Y-33700D01*
X51748Y-33084D01*
X51639Y-33267D01*
X51577Y-33821D01*
X51639Y-34132D01*
X51748Y-34315D01*
X52363Y-33700D01*
X52363Y-35323D01*
X51980Y-35705D01*
X51767Y-36220D01*
X51766Y-36777D01*
X51979Y-37292D01*
X52372Y-37686D01*
X52887Y-37899D01*
X53444Y-37900D01*
X53959Y-37687D01*
X54353Y-37294D01*
X54566Y-36779D01*
X54567Y-36222D01*
X54567Y-38950D01*
X49567Y-38950D01*
X49567Y-36222D01*
X49422Y-35871D01*
X49422Y-33578D01*
X49360Y-33267D01*
X49251Y-33084D01*
X48929Y-33407D01*
X48929Y-28856D01*
X48916Y-28792D01*
X48866Y-28745D01*
X48691Y-28920D01*
X48866Y-29094D01*
X48916Y-29047D01*
X48929Y-28856D01*
X48929Y-33407D01*
X48636Y-33700D01*
X49251Y-34315D01*
X49360Y-34132D01*
X49422Y-33578D01*
X49422Y-35871D01*
X49354Y-35707D01*
X48961Y-35313D01*
X48618Y-35171D01*
X48618Y-29342D01*
X48618Y-28497D01*
X48571Y-28447D01*
X48380Y-28434D01*
X48316Y-28447D01*
X48269Y-28497D01*
X48444Y-28672D01*
X48618Y-28497D01*
X48618Y-29342D01*
X48444Y-29167D01*
X48269Y-29342D01*
X48316Y-29392D01*
X48507Y-29405D01*
X48571Y-29392D01*
X48618Y-29342D01*
X48618Y-35171D01*
X48446Y-35100D01*
X48232Y-35100D01*
X48432Y-35060D01*
X48615Y-34951D01*
X48615Y-32448D01*
X48432Y-32339D01*
X48196Y-32313D01*
X48196Y-28920D01*
X48095Y-28819D01*
X48025Y-28648D01*
X47890Y-28513D01*
X47713Y-28440D01*
X47522Y-28439D01*
X47346Y-28512D01*
X47211Y-28647D01*
X47138Y-28824D01*
X47137Y-29015D01*
X47210Y-29191D01*
X47345Y-29326D01*
X47522Y-29399D01*
X47713Y-29400D01*
X47889Y-29327D01*
X48024Y-29192D01*
X48095Y-29020D01*
X48196Y-28920D01*
X48196Y-32313D01*
X47878Y-32277D01*
X47567Y-32339D01*
X47384Y-32448D01*
X48000Y-33063D01*
X48615Y-32448D01*
X48615Y-34951D01*
X48000Y-34336D01*
X47384Y-34951D01*
X47567Y-35060D01*
X47920Y-35099D01*
X47889Y-35099D01*
X47374Y-35312D01*
X47363Y-35323D01*
X47363Y-33700D01*
X46748Y-33084D01*
X46639Y-33267D01*
X46577Y-33821D01*
X46639Y-34132D01*
X46748Y-34315D01*
X47363Y-33700D01*
X47363Y-35323D01*
X46980Y-35705D01*
X46767Y-36220D01*
X46766Y-36777D01*
X46979Y-37292D01*
X47372Y-37686D01*
X47887Y-37899D01*
X48444Y-37900D01*
X48959Y-37687D01*
X49353Y-37294D01*
X49566Y-36779D01*
X49567Y-36222D01*
X49567Y-38950D01*
X44567Y-38950D01*
X44567Y-36222D01*
X44422Y-35871D01*
X44422Y-33578D01*
X44360Y-33267D01*
X44251Y-33084D01*
X43910Y-33426D01*
X43910Y-28856D01*
X43897Y-28792D01*
X43847Y-28745D01*
X43672Y-28920D01*
X43847Y-29094D01*
X43897Y-29047D01*
X43910Y-28856D01*
X43910Y-33426D01*
X43636Y-33700D01*
X44251Y-34315D01*
X44360Y-34132D01*
X44422Y-33578D01*
X44422Y-35871D01*
X44354Y-35707D01*
X43961Y-35313D01*
X43446Y-35100D01*
X43232Y-35100D01*
X43432Y-35060D01*
X43615Y-34951D01*
X43615Y-32448D01*
X43599Y-32438D01*
X43599Y-29342D01*
X43599Y-28497D01*
X43552Y-28447D01*
X43361Y-28434D01*
X43297Y-28447D01*
X43250Y-28497D01*
X43425Y-28672D01*
X43599Y-28497D01*
X43599Y-29342D01*
X43425Y-29167D01*
X43250Y-29342D01*
X43297Y-29392D01*
X43488Y-29405D01*
X43552Y-29392D01*
X43599Y-29342D01*
X43599Y-32438D01*
X43432Y-32339D01*
X43177Y-32311D01*
X43177Y-28920D01*
X43076Y-28819D01*
X43006Y-28648D01*
X42871Y-28513D01*
X42694Y-28440D01*
X42503Y-28439D01*
X42327Y-28512D01*
X42192Y-28647D01*
X42119Y-28824D01*
X42118Y-29015D01*
X42191Y-29191D01*
X42326Y-29326D01*
X42503Y-29399D01*
X42694Y-29400D01*
X42870Y-29327D01*
X43005Y-29192D01*
X43076Y-29020D01*
X43177Y-28920D01*
X43177Y-32311D01*
X42878Y-32277D01*
X42567Y-32339D01*
X42384Y-32448D01*
X43000Y-33063D01*
X43615Y-32448D01*
X43615Y-34951D01*
X43000Y-34336D01*
X42384Y-34951D01*
X42567Y-35060D01*
X42920Y-35099D01*
X42889Y-35099D01*
X42374Y-35312D01*
X42363Y-35323D01*
X42363Y-33700D01*
X41748Y-33084D01*
X41639Y-33267D01*
X41577Y-33821D01*
X41639Y-34132D01*
X41748Y-34315D01*
X42363Y-33700D01*
X42363Y-35323D01*
X41980Y-35705D01*
X41767Y-36220D01*
X41766Y-36777D01*
X41979Y-37292D01*
X42372Y-37686D01*
X42887Y-37899D01*
X43444Y-37900D01*
X43959Y-37687D01*
X44353Y-37294D01*
X44566Y-36779D01*
X44567Y-36222D01*
X44567Y-38950D01*
X37870Y-38950D01*
X37870Y-32404D01*
X37797Y-32228D01*
X37662Y-32093D01*
X37485Y-32020D01*
X37294Y-32019D01*
X37118Y-32092D01*
X36983Y-32227D01*
X36910Y-32404D01*
X36909Y-32595D01*
X36982Y-32771D01*
X37117Y-32906D01*
X37294Y-32979D01*
X37485Y-32980D01*
X37661Y-32907D01*
X37796Y-32772D01*
X37869Y-32595D01*
X37870Y-32404D01*
X37870Y-38950D01*
X36653Y-38950D01*
X36653Y-32821D01*
X36597Y-32686D01*
X36494Y-32583D01*
X36360Y-32528D01*
X36214Y-32527D01*
X36079Y-32583D01*
X36050Y-32613D01*
X36050Y-32386D01*
X36079Y-32416D01*
X36213Y-32471D01*
X36359Y-32472D01*
X36494Y-32416D01*
X36597Y-32313D01*
X36652Y-32179D01*
X36653Y-32033D01*
X36597Y-31898D01*
X36494Y-31795D01*
X36360Y-31740D01*
X36214Y-31739D01*
X36079Y-31795D01*
X35976Y-31898D01*
X35921Y-32032D01*
X35920Y-32178D01*
X35946Y-32240D01*
X35840Y-32240D01*
X35865Y-32179D01*
X35866Y-32033D01*
X35810Y-31898D01*
X35707Y-31795D01*
X35573Y-31740D01*
X35550Y-31740D01*
X35550Y-31300D01*
X35550Y-27200D01*
X18450Y-27200D01*
X18450Y-31300D01*
X35550Y-31300D01*
X35550Y-31740D01*
X35427Y-31739D01*
X35292Y-31795D01*
X35189Y-31898D01*
X35134Y-32032D01*
X35133Y-32178D01*
X35159Y-32240D01*
X35053Y-32240D01*
X35078Y-32179D01*
X35079Y-32033D01*
X35023Y-31898D01*
X34920Y-31795D01*
X34786Y-31740D01*
X34640Y-31739D01*
X34505Y-31795D01*
X34402Y-31898D01*
X34387Y-31936D01*
X34380Y-31936D01*
X34293Y-31848D01*
X34238Y-31811D01*
X34173Y-31799D01*
X33385Y-31799D01*
X33319Y-31811D01*
X33264Y-31848D01*
X33264Y-31848D01*
X32842Y-32271D01*
X29577Y-32271D01*
X29570Y-32254D01*
X29478Y-32161D01*
X29356Y-32111D01*
X29225Y-32110D01*
X29104Y-32161D01*
X29011Y-32253D01*
X28961Y-32375D01*
X28960Y-32506D01*
X28987Y-32570D01*
X21189Y-32570D01*
X21190Y-32494D01*
X21139Y-32373D01*
X21047Y-32280D01*
X20925Y-32230D01*
X20794Y-32229D01*
X20673Y-32280D01*
X20580Y-32372D01*
X20530Y-32494D01*
X20529Y-32625D01*
X20580Y-32746D01*
X20672Y-32839D01*
X20794Y-32889D01*
X20925Y-32890D01*
X20949Y-32880D01*
X20974Y-32897D01*
X21040Y-32910D01*
X33029Y-32910D01*
X33209Y-33090D01*
X33209Y-33090D01*
X33264Y-33127D01*
X33330Y-33140D01*
X33860Y-33140D01*
X33925Y-33127D01*
X33925Y-33127D01*
X33980Y-33090D01*
X34006Y-33064D01*
X34387Y-33064D01*
X34402Y-33101D01*
X34505Y-33204D01*
X34639Y-33259D01*
X34785Y-33260D01*
X34920Y-33204D01*
X35023Y-33101D01*
X35068Y-32991D01*
X35129Y-32931D01*
X35144Y-33006D01*
X35190Y-33036D01*
X35333Y-32894D01*
X35279Y-32840D01*
X35550Y-32840D01*
X35720Y-32840D01*
X35666Y-32894D01*
X35809Y-33036D01*
X35855Y-33006D01*
X35864Y-32925D01*
X35931Y-32991D01*
X35976Y-33101D01*
X36079Y-33204D01*
X36213Y-33259D01*
X36359Y-33260D01*
X36494Y-33204D01*
X36597Y-33101D01*
X36652Y-32967D01*
X36653Y-32821D01*
X36653Y-38950D01*
X35642Y-38950D01*
X35642Y-33203D01*
X35550Y-33110D01*
X35500Y-33060D01*
X35357Y-33203D01*
X35387Y-33249D01*
X35532Y-33265D01*
X35550Y-33262D01*
X35612Y-33249D01*
X35642Y-33203D01*
X35642Y-38950D01*
X35550Y-38950D01*
X35550Y-37800D01*
X35550Y-34200D01*
X24740Y-34200D01*
X24740Y-33150D01*
X24727Y-33084D01*
X24690Y-33029D01*
X24635Y-32992D01*
X24570Y-32980D01*
X24567Y-32980D01*
X24501Y-32992D01*
X24446Y-33029D01*
X24409Y-33084D01*
X24397Y-33150D01*
X24409Y-33215D01*
X24446Y-33270D01*
X24501Y-33307D01*
X24567Y-33320D01*
X24570Y-33320D01*
X24635Y-33307D01*
X24690Y-33270D01*
X24727Y-33215D01*
X24740Y-33150D01*
X24740Y-34200D01*
X18450Y-34200D01*
X18450Y-37800D01*
X35550Y-37800D01*
X35550Y-38950D01*
X35500Y-38950D01*
X17067Y-38950D01*
X17067Y-33222D01*
X16922Y-32871D01*
X16922Y-30578D01*
X16860Y-30267D01*
X16751Y-30084D01*
X16136Y-30700D01*
X16751Y-31315D01*
X16860Y-31132D01*
X16922Y-30578D01*
X16922Y-32871D01*
X16854Y-32707D01*
X16461Y-32313D01*
X15946Y-32100D01*
X15732Y-32100D01*
X15932Y-32060D01*
X16115Y-31951D01*
X16115Y-29448D01*
X15932Y-29339D01*
X15378Y-29277D01*
X15067Y-29339D01*
X14884Y-29448D01*
X15500Y-30063D01*
X16115Y-29448D01*
X16115Y-31951D01*
X15500Y-31336D01*
X14884Y-31951D01*
X15067Y-32060D01*
X15420Y-32099D01*
X15389Y-32099D01*
X14874Y-32312D01*
X14863Y-32323D01*
X14863Y-30700D01*
X14248Y-30084D01*
X14139Y-30267D01*
X14077Y-30821D01*
X14139Y-31132D01*
X14248Y-31315D01*
X14863Y-30700D01*
X14863Y-32323D01*
X14480Y-32705D01*
X14267Y-33220D01*
X14266Y-33777D01*
X14479Y-34292D01*
X14872Y-34686D01*
X15387Y-34899D01*
X15944Y-34900D01*
X16459Y-34687D01*
X16853Y-34294D01*
X17066Y-33779D01*
X17067Y-33222D01*
X17067Y-38950D01*
X13930Y-38950D01*
X13930Y-37315D01*
X13930Y-26815D01*
X13788Y-26473D01*
X13527Y-26212D01*
X13185Y-26070D01*
X12815Y-26069D01*
X12473Y-26211D01*
X12212Y-26472D01*
X12070Y-26814D01*
X12069Y-27184D01*
X12211Y-27526D01*
X12472Y-27787D01*
X12814Y-27929D01*
X13184Y-27930D01*
X13526Y-27788D01*
X13787Y-27527D01*
X13929Y-27185D01*
X13930Y-26815D01*
X13930Y-37315D01*
X13788Y-36973D01*
X13527Y-36712D01*
X13185Y-36570D01*
X12815Y-36569D01*
X12473Y-36711D01*
X12212Y-36972D01*
X12070Y-37314D01*
X12069Y-37684D01*
X12211Y-38026D01*
X12472Y-38287D01*
X12814Y-38429D01*
X13184Y-38430D01*
X13526Y-38288D01*
X13787Y-38027D01*
X13929Y-37685D01*
X13930Y-37315D01*
X13930Y-38950D01*
X11800Y-38950D01*
X11800Y-25800D01*
X72700Y-25800D01*
X72700Y-38950D01*
G54D10*
G36*
X34950Y-30950D02*
X29242Y-30950D01*
X29242Y-28088D01*
X29180Y-27939D01*
X29066Y-27825D01*
X28917Y-27764D01*
X28756Y-27763D01*
X28607Y-27825D01*
X28493Y-27939D01*
X28442Y-28061D01*
X28392Y-27939D01*
X28278Y-27825D01*
X28129Y-27764D01*
X27968Y-27763D01*
X27819Y-27825D01*
X27705Y-27939D01*
X27655Y-28060D01*
X27605Y-27939D01*
X27491Y-27825D01*
X27342Y-27764D01*
X27181Y-27763D01*
X27032Y-27825D01*
X26918Y-27939D01*
X26867Y-28061D01*
X26817Y-27939D01*
X26703Y-27825D01*
X26554Y-27764D01*
X26393Y-27763D01*
X26244Y-27825D01*
X26130Y-27939D01*
X26080Y-28060D01*
X26030Y-27939D01*
X25916Y-27825D01*
X25767Y-27764D01*
X25606Y-27763D01*
X25457Y-27825D01*
X25343Y-27939D01*
X25293Y-28060D01*
X25243Y-27939D01*
X25129Y-27825D01*
X24980Y-27764D01*
X24819Y-27763D01*
X24670Y-27825D01*
X24556Y-27939D01*
X24505Y-28061D01*
X24455Y-27939D01*
X24341Y-27825D01*
X24192Y-27764D01*
X24031Y-27763D01*
X23882Y-27825D01*
X23768Y-27939D01*
X23718Y-28060D01*
X23668Y-27939D01*
X23554Y-27825D01*
X23405Y-27764D01*
X23244Y-27763D01*
X23095Y-27825D01*
X22981Y-27939D01*
X22930Y-28061D01*
X22880Y-27939D01*
X22766Y-27825D01*
X22617Y-27764D01*
X22456Y-27763D01*
X22307Y-27825D01*
X22193Y-27939D01*
X22143Y-28060D01*
X22093Y-27939D01*
X21979Y-27825D01*
X21830Y-27764D01*
X21669Y-27763D01*
X21520Y-27825D01*
X21406Y-27939D01*
X21345Y-28088D01*
X21344Y-28249D01*
X21406Y-28398D01*
X21520Y-28512D01*
X21624Y-28555D01*
X21629Y-28563D01*
X22084Y-29018D01*
X22084Y-29018D01*
X22139Y-29055D01*
X22205Y-29068D01*
X26721Y-29068D01*
X26728Y-29084D01*
X26820Y-29177D01*
X26942Y-29227D01*
X27073Y-29228D01*
X27194Y-29177D01*
X27287Y-29085D01*
X27337Y-28963D01*
X27338Y-28832D01*
X27287Y-28711D01*
X27195Y-28618D01*
X27073Y-28568D01*
X26942Y-28567D01*
X26821Y-28618D01*
X26728Y-28710D01*
X26721Y-28728D01*
X22275Y-28728D01*
X22019Y-28472D01*
X22093Y-28398D01*
X22143Y-28277D01*
X22193Y-28398D01*
X22307Y-28512D01*
X22456Y-28573D01*
X22617Y-28574D01*
X22766Y-28512D01*
X22880Y-28398D01*
X22931Y-28276D01*
X22981Y-28398D01*
X23095Y-28512D01*
X23244Y-28573D01*
X23405Y-28574D01*
X23554Y-28512D01*
X23668Y-28398D01*
X23718Y-28277D01*
X23768Y-28398D01*
X23882Y-28512D01*
X24031Y-28573D01*
X24192Y-28574D01*
X24341Y-28512D01*
X24455Y-28398D01*
X24506Y-28276D01*
X24556Y-28398D01*
X24670Y-28512D01*
X24819Y-28573D01*
X24980Y-28574D01*
X25129Y-28512D01*
X25243Y-28398D01*
X25293Y-28277D01*
X25343Y-28398D01*
X25457Y-28512D01*
X25606Y-28573D01*
X25767Y-28574D01*
X25916Y-28512D01*
X26030Y-28398D01*
X26080Y-28277D01*
X26130Y-28398D01*
X26244Y-28512D01*
X26393Y-28573D01*
X26554Y-28574D01*
X26703Y-28512D01*
X26817Y-28398D01*
X26868Y-28276D01*
X26918Y-28398D01*
X27032Y-28512D01*
X27181Y-28573D01*
X27342Y-28574D01*
X27491Y-28512D01*
X27605Y-28398D01*
X27655Y-28277D01*
X27705Y-28398D01*
X27819Y-28512D01*
X27968Y-28573D01*
X28129Y-28574D01*
X28278Y-28512D01*
X28392Y-28398D01*
X28443Y-28276D01*
X28493Y-28398D01*
X28607Y-28512D01*
X28756Y-28573D01*
X28917Y-28574D01*
X29066Y-28512D01*
X29180Y-28398D01*
X29241Y-28249D01*
X29242Y-28088D01*
X29242Y-30950D01*
X18800Y-30950D01*
X18800Y-27550D01*
X34950Y-27550D01*
X34950Y-30950D01*
X34950Y-30950D01*
G37*
G54D18*
X34950Y-30950D02*
X29242Y-30950D01*
X29242Y-28088D01*
X29180Y-27939D01*
X29066Y-27825D01*
X28917Y-27764D01*
X28756Y-27763D01*
X28607Y-27825D01*
X28493Y-27939D01*
X28442Y-28061D01*
X28392Y-27939D01*
X28278Y-27825D01*
X28129Y-27764D01*
X27968Y-27763D01*
X27819Y-27825D01*
X27705Y-27939D01*
X27655Y-28060D01*
X27605Y-27939D01*
X27491Y-27825D01*
X27342Y-27764D01*
X27181Y-27763D01*
X27032Y-27825D01*
X26918Y-27939D01*
X26867Y-28061D01*
X26817Y-27939D01*
X26703Y-27825D01*
X26554Y-27764D01*
X26393Y-27763D01*
X26244Y-27825D01*
X26130Y-27939D01*
X26080Y-28060D01*
X26030Y-27939D01*
X25916Y-27825D01*
X25767Y-27764D01*
X25606Y-27763D01*
X25457Y-27825D01*
X25343Y-27939D01*
X25293Y-28060D01*
X25243Y-27939D01*
X25129Y-27825D01*
X24980Y-27764D01*
X24819Y-27763D01*
X24670Y-27825D01*
X24556Y-27939D01*
X24505Y-28061D01*
X24455Y-27939D01*
X24341Y-27825D01*
X24192Y-27764D01*
X24031Y-27763D01*
X23882Y-27825D01*
X23768Y-27939D01*
X23718Y-28060D01*
X23668Y-27939D01*
X23554Y-27825D01*
X23405Y-27764D01*
X23244Y-27763D01*
X23095Y-27825D01*
X22981Y-27939D01*
X22930Y-28061D01*
X22880Y-27939D01*
X22766Y-27825D01*
X22617Y-27764D01*
X22456Y-27763D01*
X22307Y-27825D01*
X22193Y-27939D01*
X22143Y-28060D01*
X22093Y-27939D01*
X21979Y-27825D01*
X21830Y-27764D01*
X21669Y-27763D01*
X21520Y-27825D01*
X21406Y-27939D01*
X21345Y-28088D01*
X21344Y-28249D01*
X21406Y-28398D01*
X21520Y-28512D01*
X21624Y-28555D01*
X21629Y-28563D01*
X22084Y-29018D01*
X22084Y-29018D01*
X22139Y-29055D01*
X22205Y-29068D01*
X26721Y-29068D01*
X26728Y-29084D01*
X26820Y-29177D01*
X26942Y-29227D01*
X27073Y-29228D01*
X27194Y-29177D01*
X27287Y-29085D01*
X27337Y-28963D01*
X27338Y-28832D01*
X27287Y-28711D01*
X27195Y-28618D01*
X27073Y-28568D01*
X26942Y-28567D01*
X26821Y-28618D01*
X26728Y-28710D01*
X26721Y-28728D01*
X22275Y-28728D01*
X22019Y-28472D01*
X22093Y-28398D01*
X22143Y-28277D01*
X22193Y-28398D01*
X22307Y-28512D01*
X22456Y-28573D01*
X22617Y-28574D01*
X22766Y-28512D01*
X22880Y-28398D01*
X22931Y-28276D01*
X22981Y-28398D01*
X23095Y-28512D01*
X23244Y-28573D01*
X23405Y-28574D01*
X23554Y-28512D01*
X23668Y-28398D01*
X23718Y-28277D01*
X23768Y-28398D01*
X23882Y-28512D01*
X24031Y-28573D01*
X24192Y-28574D01*
X24341Y-28512D01*
X24455Y-28398D01*
X24506Y-28276D01*
X24556Y-28398D01*
X24670Y-28512D01*
X24819Y-28573D01*
X24980Y-28574D01*
X25129Y-28512D01*
X25243Y-28398D01*
X25293Y-28277D01*
X25343Y-28398D01*
X25457Y-28512D01*
X25606Y-28573D01*
X25767Y-28574D01*
X25916Y-28512D01*
X26030Y-28398D01*
X26080Y-28277D01*
X26130Y-28398D01*
X26244Y-28512D01*
X26393Y-28573D01*
X26554Y-28574D01*
X26703Y-28512D01*
X26817Y-28398D01*
X26868Y-28276D01*
X26918Y-28398D01*
X27032Y-28512D01*
X27181Y-28573D01*
X27342Y-28574D01*
X27491Y-28512D01*
X27605Y-28398D01*
X27655Y-28277D01*
X27705Y-28398D01*
X27819Y-28512D01*
X27968Y-28573D01*
X28129Y-28574D01*
X28278Y-28512D01*
X28392Y-28398D01*
X28443Y-28276D01*
X28493Y-28398D01*
X28607Y-28512D01*
X28756Y-28573D01*
X28917Y-28574D01*
X29066Y-28512D01*
X29180Y-28398D01*
X29241Y-28249D01*
X29242Y-28088D01*
X29242Y-30950D01*
X18800Y-30950D01*
X18800Y-27550D01*
X34950Y-27550D01*
X34950Y-30950D01*
G54D10*
G36*
X34950Y-37450D02*
X29247Y-37450D01*
X29247Y-36788D01*
X29232Y-36713D01*
X29185Y-36677D01*
X29031Y-36831D01*
X29185Y-36984D01*
X29232Y-36948D01*
X29247Y-36788D01*
X29247Y-37450D01*
X28990Y-37450D01*
X28990Y-37179D01*
X28990Y-36482D01*
X28954Y-36435D01*
X28794Y-36420D01*
X28719Y-36435D01*
X28683Y-36482D01*
X28837Y-36636D01*
X28990Y-36482D01*
X28990Y-37179D01*
X28837Y-37025D01*
X28683Y-37179D01*
X28719Y-37226D01*
X28879Y-37241D01*
X28954Y-37226D01*
X28990Y-37179D01*
X28990Y-37450D01*
X28642Y-37450D01*
X28642Y-36831D01*
X28488Y-36677D01*
X28441Y-36713D01*
X28440Y-36718D01*
X28392Y-36601D01*
X28278Y-36487D01*
X28129Y-36426D01*
X27968Y-36425D01*
X27819Y-36487D01*
X27705Y-36601D01*
X27655Y-36722D01*
X27605Y-36601D01*
X27491Y-36487D01*
X27342Y-36426D01*
X27181Y-36425D01*
X27032Y-36487D01*
X26918Y-36601D01*
X26867Y-36723D01*
X26817Y-36601D01*
X26703Y-36487D01*
X26554Y-36426D01*
X26393Y-36425D01*
X26244Y-36487D01*
X26130Y-36601D01*
X26080Y-36722D01*
X26030Y-36601D01*
X25916Y-36487D01*
X25767Y-36426D01*
X25606Y-36425D01*
X25457Y-36487D01*
X25343Y-36601D01*
X25293Y-36722D01*
X25243Y-36601D01*
X25129Y-36487D01*
X24980Y-36426D01*
X24819Y-36425D01*
X24670Y-36487D01*
X24556Y-36601D01*
X24505Y-36723D01*
X24455Y-36601D01*
X24341Y-36487D01*
X24192Y-36426D01*
X24031Y-36425D01*
X23882Y-36487D01*
X23768Y-36601D01*
X23718Y-36722D01*
X23668Y-36601D01*
X23554Y-36487D01*
X23405Y-36426D01*
X23244Y-36425D01*
X23095Y-36487D01*
X22981Y-36601D01*
X22930Y-36723D01*
X22880Y-36601D01*
X22766Y-36487D01*
X22617Y-36426D01*
X22456Y-36425D01*
X22307Y-36487D01*
X22193Y-36601D01*
X22143Y-36722D01*
X22093Y-36601D01*
X21979Y-36487D01*
X21830Y-36426D01*
X21669Y-36425D01*
X21520Y-36487D01*
X21406Y-36601D01*
X21345Y-36750D01*
X21344Y-36911D01*
X21406Y-37060D01*
X21520Y-37174D01*
X21669Y-37235D01*
X21830Y-37236D01*
X21979Y-37174D01*
X22093Y-37060D01*
X22143Y-36939D01*
X22193Y-37060D01*
X22307Y-37174D01*
X22456Y-37235D01*
X22617Y-37236D01*
X22766Y-37174D01*
X22880Y-37060D01*
X22931Y-36938D01*
X22981Y-37060D01*
X23095Y-37174D01*
X23244Y-37235D01*
X23405Y-37236D01*
X23554Y-37174D01*
X23668Y-37060D01*
X23718Y-36939D01*
X23768Y-37060D01*
X23882Y-37174D01*
X24031Y-37235D01*
X24192Y-37236D01*
X24341Y-37174D01*
X24455Y-37060D01*
X24506Y-36938D01*
X24556Y-37060D01*
X24670Y-37174D01*
X24819Y-37235D01*
X24980Y-37236D01*
X25129Y-37174D01*
X25243Y-37060D01*
X25293Y-36939D01*
X25343Y-37060D01*
X25457Y-37174D01*
X25606Y-37235D01*
X25767Y-37236D01*
X25916Y-37174D01*
X26030Y-37060D01*
X26080Y-36939D01*
X26130Y-37060D01*
X26244Y-37174D01*
X26393Y-37235D01*
X26554Y-37236D01*
X26703Y-37174D01*
X26817Y-37060D01*
X26868Y-36938D01*
X26918Y-37060D01*
X27032Y-37174D01*
X27181Y-37235D01*
X27342Y-37236D01*
X27491Y-37174D01*
X27605Y-37060D01*
X27655Y-36939D01*
X27705Y-37060D01*
X27819Y-37174D01*
X27968Y-37235D01*
X28129Y-37236D01*
X28278Y-37174D01*
X28392Y-37060D01*
X28440Y-36944D01*
X28441Y-36948D01*
X28488Y-36984D01*
X28642Y-36831D01*
X28642Y-37450D01*
X18800Y-37450D01*
X18800Y-34550D01*
X34950Y-34550D01*
X34950Y-37450D01*
X34950Y-37450D01*
G37*
G54D18*
X34950Y-37450D02*
X29247Y-37450D01*
X29247Y-36788D01*
X29232Y-36713D01*
X29185Y-36677D01*
X29031Y-36831D01*
X29185Y-36984D01*
X29232Y-36948D01*
X29247Y-36788D01*
X29247Y-37450D01*
X28990Y-37450D01*
X28990Y-37179D01*
X28990Y-36482D01*
X28954Y-36435D01*
X28794Y-36420D01*
X28719Y-36435D01*
X28683Y-36482D01*
X28837Y-36636D01*
X28990Y-36482D01*
X28990Y-37179D01*
X28837Y-37025D01*
X28683Y-37179D01*
X28719Y-37226D01*
X28879Y-37241D01*
X28954Y-37226D01*
X28990Y-37179D01*
X28990Y-37450D01*
X28642Y-37450D01*
X28642Y-36831D01*
X28488Y-36677D01*
X28441Y-36713D01*
X28440Y-36718D01*
X28392Y-36601D01*
X28278Y-36487D01*
X28129Y-36426D01*
X27968Y-36425D01*
X27819Y-36487D01*
X27705Y-36601D01*
X27655Y-36722D01*
X27605Y-36601D01*
X27491Y-36487D01*
X27342Y-36426D01*
X27181Y-36425D01*
X27032Y-36487D01*
X26918Y-36601D01*
X26867Y-36723D01*
X26817Y-36601D01*
X26703Y-36487D01*
X26554Y-36426D01*
X26393Y-36425D01*
X26244Y-36487D01*
X26130Y-36601D01*
X26080Y-36722D01*
X26030Y-36601D01*
X25916Y-36487D01*
X25767Y-36426D01*
X25606Y-36425D01*
X25457Y-36487D01*
X25343Y-36601D01*
X25293Y-36722D01*
X25243Y-36601D01*
X25129Y-36487D01*
X24980Y-36426D01*
X24819Y-36425D01*
X24670Y-36487D01*
X24556Y-36601D01*
X24505Y-36723D01*
X24455Y-36601D01*
X24341Y-36487D01*
X24192Y-36426D01*
X24031Y-36425D01*
X23882Y-36487D01*
X23768Y-36601D01*
X23718Y-36722D01*
X23668Y-36601D01*
X23554Y-36487D01*
X23405Y-36426D01*
X23244Y-36425D01*
X23095Y-36487D01*
X22981Y-36601D01*
X22930Y-36723D01*
X22880Y-36601D01*
X22766Y-36487D01*
X22617Y-36426D01*
X22456Y-36425D01*
X22307Y-36487D01*
X22193Y-36601D01*
X22143Y-36722D01*
X22093Y-36601D01*
X21979Y-36487D01*
X21830Y-36426D01*
X21669Y-36425D01*
X21520Y-36487D01*
X21406Y-36601D01*
X21345Y-36750D01*
X21344Y-36911D01*
X21406Y-37060D01*
X21520Y-37174D01*
X21669Y-37235D01*
X21830Y-37236D01*
X21979Y-37174D01*
X22093Y-37060D01*
X22143Y-36939D01*
X22193Y-37060D01*
X22307Y-37174D01*
X22456Y-37235D01*
X22617Y-37236D01*
X22766Y-37174D01*
X22880Y-37060D01*
X22931Y-36938D01*
X22981Y-37060D01*
X23095Y-37174D01*
X23244Y-37235D01*
X23405Y-37236D01*
X23554Y-37174D01*
X23668Y-37060D01*
X23718Y-36939D01*
X23768Y-37060D01*
X23882Y-37174D01*
X24031Y-37235D01*
X24192Y-37236D01*
X24341Y-37174D01*
X24455Y-37060D01*
X24506Y-36938D01*
X24556Y-37060D01*
X24670Y-37174D01*
X24819Y-37235D01*
X24980Y-37236D01*
X25129Y-37174D01*
X25243Y-37060D01*
X25293Y-36939D01*
X25343Y-37060D01*
X25457Y-37174D01*
X25606Y-37235D01*
X25767Y-37236D01*
X25916Y-37174D01*
X26030Y-37060D01*
X26080Y-36939D01*
X26130Y-37060D01*
X26244Y-37174D01*
X26393Y-37235D01*
X26554Y-37236D01*
X26703Y-37174D01*
X26817Y-37060D01*
X26868Y-36938D01*
X26918Y-37060D01*
X27032Y-37174D01*
X27181Y-37235D01*
X27342Y-37236D01*
X27491Y-37174D01*
X27605Y-37060D01*
X27655Y-36939D01*
X27705Y-37060D01*
X27819Y-37174D01*
X27968Y-37235D01*
X28129Y-37236D01*
X28278Y-37174D01*
X28392Y-37060D01*
X28440Y-36944D01*
X28441Y-36948D01*
X28488Y-36984D01*
X28642Y-36831D01*
X28642Y-37450D01*
X18800Y-37450D01*
X18800Y-34550D01*
X34950Y-34550D01*
X34950Y-37450D01*
M02*
