M48
;DRILL file {Pcbnew (2013-06-11 BZR 4021)-stable} date Tue 16 Jul 2013 06:26:32 PM CDT
;FORMAT={-:-/ absolute / inch / decimal}
FMAT,2
INCH,TZ
T1C0.025
T2C0.032
T3C0.032
T4C0.047
T5C0.120
T6C0.180
%
G90
G05
M72
T1
X1.9Y2.775
X1.9Y2.825
X1.9Y2.875
X1.9Y2.925
X1.9Y2.975
X1.9Y3.525
X1.9Y3.575
X1.9Y3.625
X1.9Y3.675
X1.9Y3.725
X1.95Y2.775
X1.95Y2.825
X1.95Y2.875
X1.95Y2.925
X1.95Y3.575
X1.95Y3.625
X1.95Y3.675
X1.95Y3.725
X2.Y2.775
X2.Y2.825
X2.Y2.875
X2.Y3.625
X2.Y3.675
X2.Y3.725
X2.05Y2.775
X2.05Y2.825
X2.05Y3.675
X2.05Y3.725
X2.086Y3.256
X2.1Y2.775
X2.1Y3.725
X2.7008Y2.8898
X2.874Y3.3819
X2.9291Y3.2441
X3.25Y3.6
X3.25Y3.65
X3.25Y3.7
X3.3Y3.6
X3.3Y3.65
X3.3Y3.7
X3.301Y2.902
X3.301Y2.95
X3.301Y3.003
X3.301Y3.05
X3.35Y2.9
X3.35Y2.95
X3.35Y3.
X3.35Y3.05
X3.35Y3.6
X3.35Y3.65
X3.35Y3.7
X3.4Y2.9
X3.4Y3.075
X3.4Y3.6
X3.45Y2.9
X3.45Y3.075
X3.45Y3.6
X6.325Y2.7
T2
X3.4713Y3.2106
X3.4713Y3.2894
X3.55Y3.2106
X3.55Y3.2894
X3.6287Y3.2106
X3.6287Y3.2894
T3
X2.175Y2.8169
X2.175Y3.6831
X2.2537Y2.8169
X2.2537Y3.6831
X2.3325Y2.8169
X2.3325Y3.6831
X2.4112Y2.8169
X2.4112Y3.6831
X2.49Y2.8169
X2.49Y3.6831
X2.5687Y2.8169
X2.5687Y3.6831
X2.6474Y2.8169
X2.6474Y3.6831
X2.7262Y2.8169
X2.7262Y3.6831
X2.8049Y2.8169
X2.8049Y3.6831
X2.8837Y2.8169
X2.8837Y3.6831
T4
X3.361Y3.25
X3.739Y3.25
X4.2599Y2.892
X4.3425Y2.892
X4.7618Y2.892
X4.8444Y2.892
X5.2638Y2.892
X5.3464Y2.892
X5.7559Y2.892
X5.8385Y2.892
X6.2579Y2.892
X6.3405Y2.892
X6.7697Y2.892
X6.8523Y2.892
T5
X1.3Y2.7
X1.3Y3.75
X7.15Y2.7
X7.15Y3.775
T6
X1.55Y3.07
X1.5667Y3.35
X4.3Y3.37
X4.3167Y3.65
X4.8Y3.37
X4.8167Y3.65
X5.3Y3.37
X5.3167Y3.65
X5.8Y3.37
X5.8167Y3.65
X6.3Y3.37
X6.3167Y3.65
X6.8Y3.37
X6.8167Y3.65
T0
M30
